<mxfile host="Electron" agent="Mozilla/5.0 (Macintosh; Intel Mac OS X 10_15_7) AppleWebKit/537.36 (KHTML, like Gecko) draw.io/26.2.2 Chrome/134.0.6998.178 Electron/35.1.2 Safari/537.36" version="26.2.2">
  <diagram name="Page-1" id="fsLEjamsDfjRZM8TCBKu">
    <mxGraphModel dx="2068" dy="784" grid="1" gridSize="10" guides="1" tooltips="1" connect="1" arrows="1" fold="1" page="1" pageScale="1" pageWidth="850" pageHeight="1100" math="0" shadow="0">
      <root>
        <mxCell id="0" />
        <mxCell id="1" parent="0" />
        <mxCell id="9VXA_7-maIpLuAQ-j1Ec-47" value="" style="rounded=0;whiteSpace=wrap;html=1;strokeColor=none;" vertex="1" parent="1">
          <mxGeometry x="47.5" y="420" width="725" height="560" as="geometry" />
        </mxCell>
        <mxCell id="9VXA_7-maIpLuAQ-j1Ec-21" value="" style="rounded=1;whiteSpace=wrap;html=1;fillColor=#dae8fc;gradientColor=#84B2ED;strokeColor=#84B2ED;gradientDirection=north;" vertex="1" parent="1">
          <mxGeometry x="100" y="755" width="240" height="160" as="geometry" />
        </mxCell>
        <mxCell id="9VXA_7-maIpLuAQ-j1Ec-36" style="edgeStyle=orthogonalEdgeStyle;rounded=0;orthogonalLoop=1;jettySize=auto;html=1;curved=1;startArrow=classic;startFill=1;flowAnimation=1;dashed=1;strokeColor=#009999;" edge="1" parent="1" source="9VXA_7-maIpLuAQ-j1Ec-16" target="9VXA_7-maIpLuAQ-j1Ec-21">
          <mxGeometry relative="1" as="geometry" />
        </mxCell>
        <mxCell id="9VXA_7-maIpLuAQ-j1Ec-37" style="edgeStyle=orthogonalEdgeStyle;rounded=0;orthogonalLoop=1;jettySize=auto;html=1;entryX=0.5;entryY=0;entryDx=0;entryDy=0;curved=1;startArrow=classic;startFill=1;flowAnimation=1;dashed=1;strokeColor=#009999;" edge="1" parent="1" source="9VXA_7-maIpLuAQ-j1Ec-16" target="9VXA_7-maIpLuAQ-j1Ec-27">
          <mxGeometry relative="1" as="geometry">
            <Array as="points">
              <mxPoint x="410" y="690" />
              <mxPoint x="605" y="690" />
            </Array>
          </mxGeometry>
        </mxCell>
        <mxCell id="9VXA_7-maIpLuAQ-j1Ec-16" value="" style="rounded=1;whiteSpace=wrap;html=1;fillColor=#dae8fc;gradientColor=#7ea6e0;strokeColor=#6c8ebf;gradientDirection=north;" vertex="1" parent="1">
          <mxGeometry x="290" y="470" width="240" height="160" as="geometry" />
        </mxCell>
        <mxCell id="9VXA_7-maIpLuAQ-j1Ec-12" value="" style="image;aspect=fixed;html=1;points=[];align=center;fontSize=12;image=img/lib/azure2/networking/Virtual_Networks.svg;" vertex="1" parent="1">
          <mxGeometry x="305" y="595" width="50.25" height="30" as="geometry" />
        </mxCell>
        <mxCell id="9VXA_7-maIpLuAQ-j1Ec-13" value="" style="image;aspect=fixed;html=1;points=[];align=center;fontSize=12;image=img/lib/azure2/networking/Route_Tables.svg;" vertex="1" parent="1">
          <mxGeometry x="90.00000000000001" y="740" width="33.03" height="32" as="geometry" />
        </mxCell>
        <mxCell id="9VXA_7-maIpLuAQ-j1Ec-17" value="vnet-hub-westus&lt;div&gt;10.162.0.0/16&lt;/div&gt;" style="text;html=1;align=left;verticalAlign=middle;whiteSpace=wrap;rounded=0;fontFamily=Verdana;fontStyle=1" vertex="1" parent="1">
          <mxGeometry x="365" y="595" width="145" height="30" as="geometry" />
        </mxCell>
        <mxCell id="9VXA_7-maIpLuAQ-j1Ec-22" value="" style="image;aspect=fixed;html=1;points=[];align=center;fontSize=12;image=img/lib/azure2/networking/Virtual_Networks.svg;" vertex="1" parent="1">
          <mxGeometry x="115" y="875" width="50.25" height="30" as="geometry" />
        </mxCell>
        <mxCell id="9VXA_7-maIpLuAQ-j1Ec-23" value="vnet-spoke-westus-01&lt;div&gt;10.163.0.0/16&lt;/div&gt;" style="text;html=1;align=left;verticalAlign=middle;whiteSpace=wrap;rounded=0;fontFamily=Verdana;fontStyle=1" vertex="1" parent="1">
          <mxGeometry x="175" y="875" width="185" height="30" as="geometry" />
        </mxCell>
        <mxCell id="9VXA_7-maIpLuAQ-j1Ec-25" value="&lt;font face=&quot;Verdana&quot; style=&quot;font-size: 13px;&quot;&gt;vm-test-01&lt;/font&gt;" style="image;aspect=fixed;html=1;points=[];align=center;fontSize=12;image=img/lib/azure2/compute/Virtual_Machine.svg;labelBackgroundColor=none;fontStyle=1" vertex="1" parent="1">
          <mxGeometry x="190.5" y="788" width="59" height="54.72" as="geometry" />
        </mxCell>
        <mxCell id="9VXA_7-maIpLuAQ-j1Ec-27" value="" style="rounded=1;whiteSpace=wrap;html=1;fillColor=#DAE8FC;gradientColor=#7ea6e0;strokeColor=#6c8ebf;gradientDirection=north;" vertex="1" parent="1">
          <mxGeometry x="484.75" y="755" width="240" height="160" as="geometry" />
        </mxCell>
        <mxCell id="9VXA_7-maIpLuAQ-j1Ec-28" value="" style="image;aspect=fixed;html=1;points=[];align=center;fontSize=12;image=img/lib/azure2/networking/Route_Tables.svg;" vertex="1" parent="1">
          <mxGeometry x="474.75" y="745" width="33.03" height="32" as="geometry" />
        </mxCell>
        <mxCell id="9VXA_7-maIpLuAQ-j1Ec-29" value="" style="image;aspect=fixed;html=1;points=[];align=center;fontSize=12;image=img/lib/azure2/networking/Virtual_Networks.svg;" vertex="1" parent="1">
          <mxGeometry x="499.75" y="880" width="50.25" height="30" as="geometry" />
        </mxCell>
        <mxCell id="9VXA_7-maIpLuAQ-j1Ec-30" value="vnet-spoke-westus-02&lt;div&gt;10.164.0.0/16&lt;/div&gt;" style="text;html=1;align=left;verticalAlign=middle;whiteSpace=wrap;rounded=0;fontFamily=Verdana;fontStyle=1" vertex="1" parent="1">
          <mxGeometry x="559.75" y="880" width="160.25" height="30" as="geometry" />
        </mxCell>
        <mxCell id="9VXA_7-maIpLuAQ-j1Ec-31" value="&lt;font style=&quot;font-size: 13px;&quot; face=&quot;Verdana&quot;&gt;vm-test-02&lt;/font&gt;" style="image;aspect=fixed;html=1;points=[];align=center;fontSize=12;image=img/lib/azure2/compute/Virtual_Machine.svg;labelBackgroundColor=none;fontStyle=1" vertex="1" parent="1">
          <mxGeometry x="575.25" y="793" width="59" height="54.72" as="geometry" />
        </mxCell>
        <mxCell id="9VXA_7-maIpLuAQ-j1Ec-39" style="edgeStyle=orthogonalEdgeStyle;rounded=0;orthogonalLoop=1;jettySize=auto;html=1;entryX=0.017;entryY=0.475;entryDx=0;entryDy=0;entryPerimeter=0;dashed=1;dashPattern=8 8;strokeWidth=2;strokeColor=#009900;flowAnimation=1;" edge="1" parent="1" source="9VXA_7-maIpLuAQ-j1Ec-25" target="9VXA_7-maIpLuAQ-j1Ec-15">
          <mxGeometry relative="1" as="geometry">
            <Array as="points">
              <mxPoint x="160" y="815" />
              <mxPoint x="160" y="534" />
            </Array>
          </mxGeometry>
        </mxCell>
        <mxCell id="9VXA_7-maIpLuAQ-j1Ec-40" style="edgeStyle=orthogonalEdgeStyle;rounded=0;orthogonalLoop=1;jettySize=auto;html=1;entryX=0.996;entryY=0.42;entryDx=0;entryDy=0;entryPerimeter=0;strokeColor=#009900;dashed=1;dashPattern=8 8;strokeWidth=2;flowAnimation=1;" edge="1" parent="1" source="9VXA_7-maIpLuAQ-j1Ec-15" target="9VXA_7-maIpLuAQ-j1Ec-31">
          <mxGeometry relative="1" as="geometry" />
        </mxCell>
        <mxCell id="9VXA_7-maIpLuAQ-j1Ec-41" value="Trafego entre vnets" style="text;html=1;align=center;verticalAlign=middle;whiteSpace=wrap;rounded=0;rotation=-90;fontSize=13;fontFamily=Verdana;" vertex="1" parent="1">
          <mxGeometry x="80" y="640" width="136.97" height="30" as="geometry" />
        </mxCell>
        <mxCell id="9VXA_7-maIpLuAQ-j1Ec-42" value="Trafego entre vnets" style="text;html=1;align=center;verticalAlign=middle;whiteSpace=wrap;rounded=0;rotation=91;fontSize=13;fontFamily=Verdana;" vertex="1" parent="1">
          <mxGeometry x="600" y="640" width="136.97" height="30" as="geometry" />
        </mxCell>
        <mxCell id="9VXA_7-maIpLuAQ-j1Ec-15" value="&lt;font style=&quot;font-size: 13px;&quot; face=&quot;Tahoma&quot;&gt;Linux - NVA&lt;/font&gt;" style="image;aspect=fixed;html=1;points=[];align=center;fontSize=12;image=img/lib/azure2/compute/Virtual_Machine.svg;labelBackgroundColor=none;fontStyle=1" vertex="1" parent="1">
          <mxGeometry x="373" y="508" width="59" height="54.72" as="geometry" />
        </mxCell>
        <mxCell id="9VXA_7-maIpLuAQ-j1Ec-19" value="" style="shape=image;verticalLabelPosition=bottom;labelBackgroundColor=default;verticalAlign=top;aspect=fixed;imageAspect=0;image=data:image/png,iVBORw0KGgoAAAANSUhEUgAAAgAAAAIACAYAAAD0eNT6AAAAAXNSR0IArs4c6QAAAERlWElmTU0AKgAAAAgAAYdpAAQAAAABAAAAGgAAAAAAA6ABAAMAAAABAAEAAKACAAQAAAABAAACAKADAAQAAAABAAACAAAAAAAL+LWFAABAAElEQVR4Aey9CZxcV3Xuu7tbLak1tSTLmufBgyzbsmw82/IAGPCAzWBiBmPzYkJeAtjk3kzkxnDvzcDNS4Dk5j3gEoMNhCQkgCEJQzCeMQZjCJYHPFu2LMuWZLVaUndL3er3/XfVap0uVVVXVVd1n6pa+6fd55x99tnDd0rnW2vttfcOwYMj4Ag4Ao6AI+AIOAKOgCPgCDgCjoAj4Ag4Ao6AI+AIOAKOgCPgCDgCjoAj4Ag4Ao6AI+AIOAKOgCPgCDgCjoAj4Ag4Ao6AI+AIOAKOgCPgCDgCjoAj4Ag4Ao6AI+AIpBSBlpS2y5vlCDgCY4fAMarquNYQjj8Ywiydr1OcrbhScYZibtidTdil487sOccXFHe1tobnDh4Mr+p8i+JjipsVPTgCjkDKEHABIGUvxJvjCNQYgbNE0KeJoE9UPScorq+kvtbWzKfj4MHBUh5HYHhAcZPiXYr3Kr6k6MERcATGEQEXAMYRfK/aEagxAmjv5yq+LnusiOyr1MYDEhraEwLDL1QuwsB/KN6huEfRgyPgCDgCjoAj4AhUiMAprSF8TM/+XBH1vF7ibbJMfETtXavowRFwBBwBR8ARcARKQOCoLOk/p7z1QvjF2vlctj+LS+i7Z3EEHAFHwBFwBJoKgZmLOsMH1OMhTV8m9kGi0hop3qb+XNJUb9Y76wg4Ao6AI+AI5EHgQqXdrLhfsZGI/rC+mECTFWqeywo8U/Jg4kmOgCPgCDgCjkBjIpAdH3+uATX8w4hfb7BYWld2eGBOY75p75Uj4Ag4Ao6AIxDClCzxdwmM/e3tE4oRY8PfM4uAsLC+YglZ7T8UR8ARcAQcAUegURCYZsSf1fgb3tyvF2ekXskRQWBpo7x874cj4Ag4Ao5A8yEwITvO3Sje/JWQeaXPdGWFJo0QeHAEHAFHwBFwBOoHgbeqqT7GPzpLAMIDsyJ81kD9/O69pY6AI+AINC0CM9XzbylCXm7qH70AYBYEpg+uUPTgCDgCjoAj4AikDoHT1SI391eP9I387WjDAql78d4gR8ARcAQcgSZFIDuVzYjKjxICzMu/ylMdsapgDVjYpD8177YjUBCBloJ3/IYj4AjUAoFpKvRWxXMU22tRQT2WqSmOYfLkjtCW3WVwQLsM9vcfUOwPAwMDIbGJUKXdY0fC6xVvVtSuxx4cAUfABQD/DTgCY4fAUarqHxXHc1e+settGTVNnz49TJmSWeRvwoQJkfh5HPLv6+uLwgDHKggCP1SxVym+TPkeHIFmRsAFgGZ++973sURgoyrD2Y8tej0kEED7nz5teuiQADB58uTQ1tYW70L+WACIUQg4sD/07VccvSCwWRVcofhgohl+6gg0HQKZ/2lN123vsCMwpghA/ux77+vY54F90qSJYdKkyZH8sQQgBEycOHHoiEWgvb09tLa2DcXBwYOyBlRsye9UM96n+Ijio3ma5EmOQFMg4AJAU7xm7+Q4ImDk7+P9BV4CFoCOjo4A+U+aNCkOBXBECLCIAIAgQMRCMGFCezyOQhDg23elFg/qHhwM9+scR0wPjkBTIeACQFO9bu/sGCMA+d+h6P/PigAP+ZsAgPbPOf4AkL8JAkb8GUtAa2hpaYmxlaMcBxkmqCSI/C/Sc7MUv1vJ8/6MI1DPCPiHqZ7fnrc9zQiwSc0dipPS3Mg0tG1Kx2QR/tQwbdq0SP4cIX4EAY5o/EQjf44ZK8CEICkgDgtwzawBEXol4TQ9tFLxm5U87M84AvWKgP4HeXAEHIEqI8BUP+aeu8PfCMBqzn+Y0D4xmvbJCrmj+Rv5o/knHQG539PTMzQc0CobvlkHeL63tyccOFCeNYA2SIC4OvvceynHgyPQDAi4BaAZ3rL3cawR+I4qPE7R/3+NgDzkPXXq1CHNH9O/XTMcYOc4CqLdJ8ke8h9UIgIDMwYYFmBIYOAg6waU7iCYsRoMUv5aLdDUpmruGKHZftsRaAgE/APVEK/RO5ESBOCkG0QkH1B7/P9WCS/FZgCY2R/CJ9pwAEIAEac/cbtiq0z+omkFjkSInyGAKAAwU0B5gvKW4xeQEQIi+Z+nojcp+uwAgeChsRHwIYDGfr/eu7FF4Cgpnn8+tlXWf21o9UQ0eQgdM39mZUCIP/OJ4shKgRbQ+EsJPT29pWTLzfNVJbBPg68TkIuMXzcUAi4ANNTr9M6MIwL8X4I4fLpfGS8Bzd6Cjf8jBJBu5G/3uSa9tXV/dA40Dd8WDGL4wPwFWFTIQgVCAI36huJJijutHD86Ao2GQMaW1mi98v44AmOMgP4j/ZGcyXyJ3wpwzxB7RhdBCEheFyvOBATM/8wW4Nr8BjhvZxqhItaECsJSPfO1Cp7zRxyBukHABYC6eVXe0BQjMF8uZzdUYZ36FHexNk2zzX8o3Qido52Tjlbf29sbIzMA9ms5YNP0uU+w/AwjcM4sgliOZhgwdFChEHCBPpAfixX4H0egARGoSDRuQBy8S47AaBD4hLT/GS4AlA8hy/tC1BB3bjDiZ34/U/S4hvwPHMjsErh3797o7c8QAPsDELhvgXJ5pp2jYrnTA2M5rS03hoODLON8r5XrR0egURBwAaBR3qT3Y7wQWK2Kr3LyLx9+5t+3ynyfDJA2U/jQ+CH+vr79Qxo/RG8WAPIY8Zs1IGkZQEiwYHVgBShXCMi+179XWUzr3GNl+tERaAQEXABohLfofRhPBP6bKj/kyTaeLanTuhnDJ3CEzCH37u7uYdo+hA7Bcw9t3655zog/eZ90hAjCwRJnDMTM+f/gD/C3ir5IUH58PLVOEXABoE5fnDc7FQisUCuuTkVL6rARRvzWdDR6AqZ9QlLbh/S5n6vtG+lzzwifPDGvtg8eODgYLQmklav9x0Yc+sN7vkWRFR49OAINgYALAA3xGr0T44TA9eNUb8NWC/njDwCx21g/5A+Bm6ZvQoClc03IR/qkVXF45iZVg9B3kPo8OAL1joALAPX+Br3944UA6/3/5nhV3mj1GrljFUAIMHLft29f7GrGJyCj2ds5NyD4TN6MY2CVCT8X5qVaouB6jUL8Ve4Nv3YE6hEBFwDq8a15m8cdARHB+9vaJrTXmHDGvZ9j2QCI3Mb2TSBIWgLMxH8A64C0fpwE0f7H8h2I/G8UJgwFbB9LbLwuR6AWCLgAUAtUvcyGR0BE8B7pn9U0Lzc8ZoU6CPGzgI+Z+U3DNyuAkfwYavqFmko6Ozz+paI7BIKGh7pGQFtmeHAEHIEyEVihKWxP80wVx5fLbEL9Z2daXmfnzKEd/1gCGLKH6BECxti8XzKgTF/Ue1+mBzaX/JBndARSiIBbAFL4UrxJqUZANBXe68Q/+ncEwffLU7+/f1L0+KfEXOJHGEgp1v9DzXUrwOh/Bl7COCLgFoBxBN+rrlsEnlPLl9Zt61PU8OnTp8d1/HH+QyDYu3dPtAKMcspezXvoVoCaQ+wVjAECUmY8OAKOQBkIHKW8Tv5lAFYsa3TkkxUAb/+url2yBPSOdr5+seqqdk9WCZYaxArgwRFwBBwBR6AZEJD9/yPq56DH6mAgTXpQvgB1iSdt1+9gfjP87r2PjYmAWwAa8716r2qEgLz/L65R0U1ZLOP7aTf3F3oxtF0f0A8Uuu/pjkDaEXAfgLS/IW9f2hBA6/PgCBgCu3XSaRd+dATqCQG3ANTT2/K2jjcCZ413A7z+1CHAugDXpq5V3iBHoAQEXAAoASTP4giAgMb/T3MkHIE8CHyIn0eedE9yBFKNgP9oU/16vHEpQqBV4/8npqg93pT0ILBeTTkjPc3xljgCpSHgAkBpOHkuR4Ad4M5zGByBAgi8v0C6JzsCqUXAnQBT+2q8YSlDYLbasyNlbfLmpAcBnAEXKGa2L0xPu7wljkBBBNwCUBAav+EIDEPg+GFXfuEIDEcAZ8B3DE/yK0cg3Qi4AJDu9+OtSwkCizrDsSlpijcjvQi8O71N85Y5Aocj4ALA4Zh4iiNwGAJbulwAOAwUT8hF4AIl+DLRuaj4dWoRcAEgta/GG5YyBNalrD3enBQioKmib0ths7xJjkBeBFwAyAuLJzoChyGw+rAUT3AEchDwpaJzAPHLVCPgswBS/Xq8cSlBYILawe5vHhyBkRDgdzJHkVkBHhyBVCPgFoBUvx5vXEoQWJ6Sdngz0o9Au5r41vQ301voCPjylf4bcARKQWBZKZk8jyOQReA8R8IRqAcE3AJQD2/J2zjeCCzV3u/j3Qavv34QuFxN9W9r/byvpm0pY5seHAFHoDACrfLsnsXe77UOCBlxj/mssDEWdda6T6WUT7+nTp0W2idMCO0TJ8ZHDuzfHw7094f+/gOhp6e3lGLSlIdFgU5V/HGaGuVtcQRyEXABIBcRv3YEhiNwUJ7dNR0CgADb2trC5MkdseY2Xbe2tkkYGAgDEjx6e3vCgQP9w1vVQFf0fcqUKaGzszNMmzYtzJgxI0yaNCm0t7cLg4Nh3759Yffu3WHHjh1h586dobu7O/W9l/r/Bm0e4QJA6t9UczfQBYDmfv/e+5ERwJQ7c+RsleeA7CZMaB/SgCdIEyZa6Jcm3NfXF2M9kJ+1u9Qjws22bdvCwMCAhKDJ8bGZM2dGgWD69OlDWND3l156KTz77LPh6aeeDLu60utoL/I/p9T+ez5HYLwQaBuvir1eR6BOEMD2/0HFFbVqL5r+RJm+IT8i5wgFU6dOHbru6OgIRO6RH6Gg0QKaPoIAmj79Y+yFPhsu4HHEEUeEBQvmh+nTZ0TBYNeuV6OVIIVYLFab/kKx8V5UCsH2JlWGgAsAleHmTzUXAjeou/Nr1eVBiRj7NebdPqEtWgIgfyJmcSN+O4cEEQIwm0OYjRjAAkHg8ccfD89K2+/p6ckOkWSEI4ZK5s6dG4cK6P+ePXsifinDgm/r3YpPpaxd3hxHYAgBFwCGoPATR6AgAn+oO50F71bpRq/M/Di9Yf43KwDnkD/EnzzaEEFPz76AANGoASFn8+bN4YUXXohDIFgDEIroP/4Cs2fPjhaArq6u1AkBGjt6Wq/mHr0bjQh4cATSh4ALAOl7J96i9CHwcTVp0lg0C9M3Y90DOh4Us0N4kJ0NB3CcNWtWFBA47+8fqAunuNFihyDw/PObZfXoic6B+AiAC/jgPNjb2xu2b38lVcMBIn+I/4uj7bs/7wjUCoFDnka1qsHLdQTqHwGmdY1p2Pnqq4GIZou5mwDRmR8AaVwTIMLnnnsunqfpT3v7hLBw4aKwbNmyMGfOnKixY8XIDa+qnwcOHAgvvvhi9PZ/+eWXRebbc7OJ3AfDI488EjEh/7HHHhv7jl/A+vXr45DIY489dthz45iAIyBOpG4BGMeX4FUXRsBXNymMjd9xBEAAxto73lBAoEuXLhWhLowCAaRP2Lt3byT/Z555JmzZsmW8mxnrnzdvXjj55JNjeydNyszrZ5aDBWs717nOjAyBMCsAjR8y/9nPHsg7BZLZAa973euGhADKefTRR8O9994b/QesrhQcT1YbHkxBO7wJjsBhCPgQwGGQeIIjMAyBWbr6r8NSxuECQty6dWvUfvGOZ/wbIsVXgMg0QbRi8o1XgPgvuuiicNZZZwbO0fYhfpz2MNVbW2k3lozM9MdDfeB+nA6p+f/kR+BZu/a4aPLHByAZcBQkDYGIIREwYUgEh8GtW19M01DA/Wr3L5Jt93NHIC0IuACQljfh7UgrAtjfP1zNxmESX7VqVTjppJPC8ccfH7VYzNkrVqzQ9LbpkbzQ7PMF0l98cUtoaWmJDnCQKRECtEVzIMexDmeffXZ4/etfF6fpTZx4aAYDJJ+cyQCxJ4UBu2bRH/JyJJqjH+eLFy+OwsDjj/9qGLHTz6effjqsXr06kj8YEPATYCphSgJjM99NSVu8GY7AMAR8CGAYHH7hCByGwDqlPHRYagUJmPHf9KY3Re0dgrMAgWPCtqOZwZkCd/fddxd08jv99NPDMcccEzVrnODwln/++ed1fC6v2dzqq+aRcf5LL70sCi+QOX0w8maqItdEgh055x6BxX8ICC9EAlgQuccRrZ7+vfLKK+FLX7rlsL4hUF1++ZujpQGfiSeeeCL85Cc/KYhbrGTs/qD9nzR21XlNjkDpCLgFoHSsPGdzIrBc3b5utF1fu3ZtuPjii4cc+WxKH2RpWrIdMWVDpji3YSXAxP3ss88MEaS1ZceO7dEfgLIgT4YAjDwLWRDs2WocIf+rrnpndPKz/jA0QeSavln/6BP9s0g6QgDXJjSQxrkNFdiRNCwBXK9cuSps2vTQMCwgffrOlMBBzZxAWAAPBIYUBHxI/jwF7fAmOAKHIeACwGGQeIIjMAyB5bp637CUMi8g/9e97rXRTI3nPmRoxAhRmhk8eYTsyAPxYTlYu/a46BSXNO9D9hAdZaAt4wdAGgS4f3/mvMymlpwd8n/Xu94dzfP0B/I1IYB2J6P1izQ7p392bv00wrcjfYf8yYewQOR63rz54eGHHx7WVvwjKIdnGR4Bpz3duwNrK4xzYProFxS7xrkdXr0jcBgCLgAcBoknOALDEFiqq4oFAMgb8/S0adMj8UOWSQ2ZayNCCBSN2K7taMR23HHHRfN20tGPKXSUhyCAAAD5ow3v57yG5Hf11VeHRYsWResEQo1p/rQVPwaOFiFlziF0Iv0yS4BZADjafc5NCOCcsX2OELsJBGj6DHkkA9fUTf4oEEkIwDqQgvB9teHJFLTDm+AIDEPABYBhcPiFI3AYAouU8uuHpZaQgJZ85ZVXRlM+ZnzI3siRI6QGGZIOQXI0IYAjJMh9jpZ+1FFHaXz7/mEm8D6RPtvomgCAgMB2urUSAPBjoB0IN/SL3ftoe1IIoN20mSN9s75YP+i7RUid+4aHXScFAs7JA7mbA+SvfvWrw2Y9bNv2ktoxPQpBCEVYApJWkxJeW9WzqMk/l7xyX9UL9gIdgVEikPHOGWUh/rgj0MAIVLyIyxlnnBmOPPLISJIQPuQHGRqpY9KG0IgErpPBnOA44ghnhPqRj/xO+MQnPjGUlQWDEAAoNzrNSQDoE/HVIuBwh18C5E+E9BEAIG3aR18gazPX0wbulRIg7GTkGRvPR7gxAYB0MHnb294WPvOZz3A5FFhD4NFHH4kLEIEFWyuPczigbp04zm3w6h2BvAiU9j8z76Oe6Ag0BQIVCQAQ/kknrR8ifzOTIwBAiJC1kT+EScgVAEiD6My5DzKEcNGUr7nmmvDFL36RLDGweU5HB1747RICDkhg6LVbVT1CuhD/ggULhsb9k0INfWtXbJEgYP2xY7GG0E+CHQfFmgOKJtSYbwPlIwgQwIOZED/+8Y/jtf2h78yE6OycqTLGfaMEXi47A3pwBFKHgAsAqXsl3qBGQAAz+ZFHzo0CAN78Zv43szekD5mZEMCxTRHizA2QH5oxpn0zt6NtM9WNpXEtZEi/NsRPHZdcckl0+luyZEkc1qAttGO6hJIJ6o9p/fRrAtaNHIuGtTP3eDBL/v3ZI/fpsx0RCvrl14AwQNy9e3cUFEi/8MIL864WiCWA5YRbx98CQDdWx874H0cgZQi4AJCyF+LNSR0CB8ptEWP/y5cvj1P+IH8bJzcT/iRpsKYhG2lSB8RpwQjUyHG/CJANcBACbKz9ox/9qDzx32WP1PRIn9C20fznz58/5NcQx+1lkUAAQIgh2LHSBiHsEIaGA0T09H+ShjUQAKKAkcWKoYErr3xH+MpXvpK3OvYPSEHAkdSDI5A6BA59cVLXNG+QI5AKBDK26TKacvLJp8Sxf8jSfACwABAh/EhiWQ3ZLABWfCHynKyhAwgR8kcbRhjg/JOf/GS44YYb7PGaHSFZxv+JCAA27S+3/dVogGFgR8qcKCEjWkIkDDAEkBwGYDVFhiXybSBUjfZUqYzZKmdnlcryYhyBqiAw3OuoKkV6IY5AQyEwR735rXJ6hFa+cuXKaAVAAMAKgA+AzQCIAkDWZA7J4dVusVg95CE/2jZlUCZT8VgtEO93eZrXJKD9/9qvXRU2bNgQl+RFsEHzR5ihTWMRqCdaS9R3yB8rgNWPYAAWP/3pT8eiKZXWcZMeTM36xJV2wp9rLATcAtBY79N7U30EMoPRJZYLWaIhs67/Eq1hD/lD2EnzfolFFc2GIAARsmEO5m/2EqhVeMtb3hrLpy62Ia52X8ptN/Vj/ZgoXCF/hkXWrFmTdivAmG8pXS6unr/5EDjc46j5MPAeOwLFEChrFsBZZ50dx8lxlJsnQQDTfS0JE0EAa0MtfQGY9rd69epIsLXsS7GXkHuPfoOtbRQE3u961ztzs6XpujNNjfG2OAIg4AKA/w4cgeIIlOUDcNppp0XtHyvAWJElloA//dM/Ld6LCu+y2dDRRx8dLQ027l5hUTV5jDYt1jAIFpe1a9k6OLVGzUO7P9UECS/UESgfgdT+bym/K/6EI1ATBMoSANBIcZQrhfzvuOOO8Itf/CLs2rUrrF+/PizXzAGOlQQEjnnz5skXYFsljxd85s1vfnPcuhifg0oD/fvWt74Vt+698847DyvmxBNP0HLJV4TzzjvvsHulJOAgiBWELYAZrvja1/5JDpM1cogopUH58xyZP9lTHQFHwBFwBNKKwEI1DDYpKf7zP//zoKamaan6wuHGG28cnNk5I295IsHBm2++ufDDBe5oTvygZgTkLbPUtufL99nPfnZQu+oVqLV4svYpGLzmmmsK9jW3PglOg9/4xjeKF1rgLv1/6qmnaoJBbjvLvdZaBLyXaxU9OAKOgCPgCNQRAnPV1pKJVRruoFbuy0tTEOIJJ5xQUlkIAs8880zecgolvvD88yWVXWp/Vq1aFQm5Z9++QlUWTP/5z39ecl9z24PQUEmgnbfeeusg7c4tMwXXb1UbPDgCjoAj4AjUEQJ4b5dEKJrmN6htagfRRvOFUsnf6sNKAJGWGrq7u0tqp5U/0vGiiy4avOeeewoKNIXahaCDNj9S+RD1W97ylsF3vOMdg9oyeVj+SoQAcH/00UcHf+d3fmdYWSO1Y4zuv0H1eHAEUoWAOwGm6nV4Y1KIwO5S28QUOab94aGeGz72sY+FX/7yl7nJQ9f5lqzd1bU7nH/exvDss88O5St2wuqB1QzM92e533z9KVbPe97znvD885uLZQkSbsJZZ50VzjnnnCBrR7juuuuCBAHVlVlX4Iva5+D66z9ctIzcm7QTHwxmLKQw9KSwTd6kJkfg8C9VkwPi3XcEKkXAFsjJfR4C//jHP56bPHQty0B0goMAIUPI0QJCwLXXljZ8zNr7LNdbrYCHPYsXlSMAfPOb3wz//u//NqITHrsVgpftIMjx7LPPDtdcc+2QEPDpT/91wFGynECbmRKYwtkAvghQOS/S844JAi4AjAnMXkmdI1DSfgCFPP8/9alPFuw+K/lB2qYJv/Wtbw2/9dsf1JS2tUPPQIIQ60gBombaXjUDC+6UE1iauBQPfDYuYgbE/sS2xZA3aw68/e1XDlWpoYCh81JOeAdMCWQr5pSFF1PWHm+OI+DrAPhvwBEoAYFRmW9vv/2OglUwvY4V9kwThgS5vvrqq4dZAjRzoGAZyRsMQRQLaMZo9aydT8wsT5x/it/evXtLms5o9SGo3HXXXXY54vE//uP7QT4OcY8Dy0z/EYjMkvHcc8+FL3zhC3Z7xCNCEBisW7duxLxjmAEB0vcBGEPAvarSEHALQGk4ea7mRmDXaLpfbOxfU9dCT8/h8gVr2/9fv37dULWUgcY8Uig2X3/2rFlh4cJF0fS+cOFCnS+M2jJprCGQz2xeyKqRrx3f/OY38iUXTMNScNNNN8U1/G0HQDLTB/Yd6OjICCbFhk/yFd6hFQLpW4rC1hS1xZviCAwh4ALAEBR+4ghUHwG04pECm/kkTeHkh3hxaEsGzOsjBcgvX8CvYL7G3Bkfx0RuS+gyDk8aQxFLly6LFgF7Pp9gYvfyHYtZOvLlt7QvfvELcREfu0aLZwvlJUsyu+hiBShlCMSeZ48ANmFKUXgyRW3xpjgCQwi4ADAEhZ84AgURKMl8u3t3yRMGhlWE2TzX0x+NGE2YVQUtlGIBKETakyZ3RI9+iB7SZ+VAZi1wzpADqxDiPY9wwLAAgSGAUgPtL2bpKFYOloC///u/HxKC6PuePd1B0/qGHtMCQUPnpZwUs4SU8nyV85QOZJUr9uIcgWIIuABQDB2/5wiUgQC70lUaPve5zwXN4x/2OJowe91bgGBZVrdQIL/m4Oe9vXPnjqAV/cLWrVsDgopWK4w76UG2WBtmzpwZhQGEAIQCQrkCQN6KS0x85JFHwpNPPhGFgJdeeils2vRw2Lz5uaGnv3XryE6QlpnZEGxXnKLwTIra4k1xBIYQ8L0AhqDwE0egIAI7mZ8+knf79u3bI6kWLKXIDcif9fLf/va3x21+LWvuWDZWgPPOO89uDzvuF6l3dXUNS7OLAwf6A/4Gr+7cGTo05Q4tH8dDImSJzwGht7d3SPN+4oknKu6P1VvO8W/+5m/CqaeeFrf33bTpoWF4Mx0SKwOWilJCOb4LpZQ3mjzSsl7VlpIoW2XtLDmaOv1ZR6AUBFwAKAUlz9PsCOwdifwBCAEgabYuFzSGAl7/+tcPG782c3ypZT3//PNFs+7EQpC1EuBkN0le91OnTY/DDW3SnLEMvPxyZkMhrAb9/f1Fy7ObzzwzeiUXjH/84x9bkYcdb7/99pLXRDjs4fFPcPIf/3fgLchBwIcAcgDxS0cgDwL57ep5MrIj3WjCD37wg2HT4nLLKuYH0CvyZlpdqYG5+GjWW7ZsidaBZ555OuBwRzoBq8GePXtKKo7nah3KqaNUwaXWbY7lt4bKnEPGpHFeSTMj4AJAM79973vVEWAMnnF1C6WarC3/XXfdOUzrzvULKOYDwNh+bn4rt5QjhJ8bEA6S/cm9P5bXpVoZDsp5EEtGWoJ+DiULkGlps7ejORBwAaA53rP3cnQI4HlX0mqAOLAlCbNcAQAzOEMJBMp58cXSFpAjL2Pk1Q65C/VUu/xyyiunf6MZiimnTaXkXdQZ8Ej0b20pYHmeMUXAf5RjCrdXVo8I6D8JGlx7KW3H0z4pAPAMa/2XE7QDX3SEw6Fv8+bNwx5NTgtM3qDOBx98MJlUlXNW4cMxcKSwfv36kbKM2f39Bw4UdIYcs0ZkK8J5dGt3mKLLQ2ahsW6E1+cIFEDAnQALAOPJjsAQAozhlvj5RkvFBJ0M559/Xllz5G+//Ydxah5Oeblmb+bp5wuQ9L/+678Ou8XKfmbWx+Fv/bzesGxOCEdKH21HJ02EA7KYP60JBI9sDeGZhBsDQsULL7wQjjrqqKKbAjGNsNbh/PPPL6kKhKFiQyUlFVKlTFh0NDvTgyOQSgRcAEjla/FGpQiBVvFJyWO4d955Z9ijBXQmJ1bku/zyKwI725UaIA3WyWd6njnkjfQsRH3i4G3hqqvDwBFzQtuEuDNwcky/V4khTNTquhwnZwUAyRgxILPEKEGnT8sZ9Enp79LAx4NPhXDL//54+OO/uGlYn0ZqTy3ulypksB4D6x2kJhwMM1LTFm+II5BAwAWABBh+6gjkQQDdv2QvbqaxYbafPXv2kMbMvH1M9+V4sSME5CP/XBK87wtXhm2bvhZmag+ga38thCnTQtvM2RpwztE6mc3XLy8Gjm2616YBDc0ADK0SAA6K/DkSOGeDvv2yCJD/pNO0IFD3P4S7/+wf1J6WcPKHN4dFOUsU81y5vg48U24otP5BbjnMxHjggQdyk8ftWj+gWaqcN1KiHWncmuoVNxkCLgA02Qv37laEQFku5ZjtGfdnZT4L11xzTSh3Uxt7Nnm0sfaHvv2n4fHbP6olfUM47kSZ9RdE8g8TROyJag89elALGYXBQ9c6y5tP6QezhgPJIPJnkGVAggBO9d27BsMr314Shwnmv+ZPwvGX/uFQebUWABCgrO9DleY5YfofMzFq4Q+Rp7oRk7ILSDFu4+Q/IlqeYawROPSFGuuavT5HoH4QKHkIgC499thj0p6HTxq4/vrrh23vW0nXIcFt27aFr3+4Jbz004+GVWtCWHVMCCuODmHmrJYwUWb9QqQeWjNj0dy3WKgNrVILiAgTlNkxLVP+ItHYWvn6nXyWfAh2fDR85w9bwpaHvj9UTLnOjkMPlnCCAFVqSJP5H0uOwtRS2+75HIGxRMAFgLFE2+uqVwTyr69boDdf//rXQ1fOxkCY7j98/Q0Fnigt+XfP3RXu+1/zwyxtdLdkpczuq0OYKwsARA3BVxow9fdqR+IerflD5Jy0YUHe7K0hI2TMPqIlrD42hLNe2xq23n5RYBiCwKZCtQjsZIgAVUpA8CpnumApZVYhj96UB0cgfQi0pK9J3iJHIHUILFaLni+nVffff3845ZRTpG0Pl7ExlZfjC0CdEOCnLt8t4m8JRxw5GOYtEvEvaA3Tph0MKJj7tNccpM34vXwAlJ7R4EdqL+b93bJtvLRFUcsN7JL3f6/KGlA6fgIzOkNYLK1/pawM0/K5sWlYYf+BwbDthRB+/pOW8OicPwu///u/P1K1Zd+/6aabSl4CmDUULr300qJLCpfdgNE/gDgljwsPjkC6EJChz4Mj4AiMgEDJToBWDjv3MWY9EU+7RGBf+/PP2xiX4E0kFzy9eF0IV58r8peT38zZg+GIeSHMUdy352B46AEtULA9IwAgZ3TK1WzBElkGNDSQl7BzauEZnAERHND8d76cObdse9RrBAPtHxROOTNPmbI6MESwaFkI02cOhgUP/374o0smhf/5r2W5TFh1eY9XX311yeRPAUxZLLafQN5Kap+IjWauohD24AikB4Gs7296GuQtcQRSiACM9rFy2jU4OBiuuOKKwwSA+fLamzdvfrj11ltHLO53XxvCxadA/HIjnxPCEaIQyH/zUyHcd0cIWzeHAEkzZQ8LQLtoZoFsFQsWybCnf6WESe0tUQjA5L9fkXLU9KHAeY+mBWq/oDBbQkiLhIbcQNrkybJOqG2rlw6ENxwlK4La9MhLLcPKyn1upGvI/+abbx4p29D9/Zq+8J3vfCd8+9vfHkpL0QkvvCwrUora7k1pUARcAGjQF+vdqjoCH1GJ0ndLC48//nh43/veF6cD5j5x0kknBXwCvve97+Xeitcs2vOZd/YPHLUstDLej/YP+XNkDv9P7sIjf/ijM6T9n3qOHAJlrh+Z/LUYQMD4p9jSHzrkokb5UzV00KE162TVx+t/QH7rke6RJTpnKo/a0j7coKE72aBM+CKQb76EkJOPDuGy4yW8yLrwkwpo78Ybb9TaCZ+20ks6Yv4Hc2YBpDDcozb9IoXt8iY1MQJ8BTw4Ao7AyAjs0pSuGVmv7pFzK8ePfvSjOD8+3970OLWxzv4tt9wyrKwzlofwW6/rDVOnhzZM+pD+DJEqVgDM+tu1U2/uDr2Q/pnnZbz1hxWWe6Ex+9Cqgf1W5Bj+62u+36COg3uiKZ+hg6UrVMcrIby4ObRtfroldHcNhumdLVo5cDCwV1BHbpk518weoL1TJFQsXq7hiNUhvO0Sqb5Ph/C3/xHC/Zs1HTHjGZ/zZOaSmQRo/aVM+UsWwPS/++67L+5qmExPy7kkqWVyrfDgCKQKAYR7D46AIzAyAj9XlvUjZzuUg2l7mzZtklOeVOsCYePGjeGuu+6Ss2BLuHLDYHjzyRminyHCxwkvSf6Mt2Oqf0QtefJRmeZlrj/2hBA2nA6xJ+z2+eqC/CeImVmUrpVZaRj/tOLPwV2KYvycaeo4COIUuEMCBzMasTDMXZCZFqjMJQfWFGBogaGKl+VPsHVLpsxbZMX4t02ZYnByvOzNl8ex/vPOO6/ksi0jS/+yB8OVV14ZsbT0lB2/rfZclrI2eXOaHAEXAJr8B+DdLxmB25TzgpJzZzM+/PDD4ZhjjjlsNkCynM9//vNh/13/JcyZ3hU9+KeI+GeKcNH4Z2vsH8/+yTmqN057eOuX4uyXqUvkH7V/FZyx7OuoAg6+qiiWDxq0zxckOPQPaA0BZAyMBqMICAP9GhLAz2CnZI5dO0N4ZSuCTEtYce7/HLawUDnV9EoS+vzf/V344Ac/WM5jY513sypcNtaVen2OQDEEXAAoho7fcwQOIfAtnV566LK0s0WLFoUnn3ii4Dr6jFt/949XhYktu2Vq1zi8SJ99daZMP2T2nzwJ9h1Bwy/anFY9rwH8Vo0nBMb/E2FQqvnAC0ooIAAkslbz1IQBlhzGnwELwRY1Y6dkkTWv/ZNw9EX/5TAHynz14/jHUEupGwXlK6PWaVh3CBr6YOxFZhcPjkA6EHABIB3vwVuRfgRuVhOvUpSrW3nhtttuC5i2c9cE2KIpa3f89yXa9EfEL8LH3D9dAgDkH891nCSnvFbx9+iCSB/yRwgY0v6zJQ7KAjAgNXyMBYBD/aFzEzW00RuXHd4ny8Z2TZZ7VRYCjjPXvD0c//ab8g6jQP5Mt/yN3/iN8Itf/Lyob8Gh+sb17DTV/pNxbYFX7ggkEHABIAGGnzoCRRD4tO59qMj9ore2bNmidfvnRyGAMeutD/8g/PBTFwXM/TNk4sfMD/lP0zVm/emQP7w9SrN7plEUNE8xaf7njg0B4Kav8/EM0UExY+Uw6wBDBSwytEPCwKs7MsLAye/6crQMJMk/Lev+jwTfos7wm1u6wmdGyuf3HYGxQsAFgLFC2uupawSkp35MA+E3FvNgL9bB6WJ0dgmcMWNGePjf/jz88tsfDVOnZjT/2pI/rco3/k86AoC0/+gDwHUtQtZ80ZIz43hQzgAxFBc8kk6EL0kY2Kbm7u1uCXtO+nL4y7/8y9Rs+lMicrco33tLzOvZHIGaI1AV/aLmrfQKHIFxRmBBp1bM1ZS4SkN3d3dcK//z128IB1++M06t6+gYrLHmn20tY9AtjFxkyXioE8wC0CB8LQL1DYr0WxKfGKYcErT2QFyrYFDHGBgWzy8IYAGZTNTaCDNm9sapha9sHQybn3xXePeqEB56aIJmKVg52eLSedBciHBCOpvmrWpWBHLE8maFwfvtCBRHoLsvHC9nrjcnV8kr/sTwuyzu8z/etC9MO/icxvhbNOY/GFfXi2P9jP3L9E/EH6A6Zv9s/dG0rjGFVo0pxLn/1i4Rrub/h0F54LEeQNUCQoY60aIVg1hvgCNCQAvnHIlZwWDIKoAhEgGgiICl9Yrb2lrC5KmThVN/XJRotnC7ZN3BsEtdeGr76FYdrFr3CxfEt3a+4icUqwl44Rr9jiMwAgIuAIwAkN92BLIIzBX5v6cSNFbI/+7PL+sPc2Znxvnx9GeMP3r968giP3Gqn7z9hzixkoryPdOi8f8WORi0qNJhSwSKbHEAHOzK91RlaWj9LZqvGIlfx7hwouqP++CI+KMAwpHlBBEUsEzwCYL8RxACuE0Ud7Ia4iQVz1RJjseIVk/UdMnvPcL91IcfqIXPpb6V3sCmQMAFgKZ4zd7JKiDAHLrryi1nw5IQfu8ikb3Iaqo8+nH6m5YY+8fhz8h/dFP9CrQMAaBVlXAcJgDI9D+A9l+t6X8IGmj71AP5m+Yvtm5NnMchgcjkypMNmFViElbyIlYAy69ji/KzLDHLGE9QFR06rwchQGLPc+rhHYmu+KkjMG4IuAAwbtB7xXWGAKz2oXLafMbyED742izBixeniIdzyR8BYCKKcy3+J2L+b1MFrbKVD5u9KI374E5xbbfSq2GNhvzFwpH8c83/Yuao8auTsQ2iQHYPSoYWrBEk6A9bE+bIB8msuefsP8AUSlZInKDH2YRo04u5ucb/mrUAWBJ6gCkgIdwy/i3yFjgCGTuc4+AIOAIjI7B95CyHcqD5/+YF0kyl9UNQ08TBTPObriMaP8TPLADIv6pj/oeaoIJFxtEMDwknA0532uKvKtp/LvlLTmIYIFoBsAZA/BC+Ra7Vnmgt4FyCQzJUsODRRO1ouHBpZivkt56uGttzykyWP07nzB4ZGJBwo52Vx6kJXq0jcBgC/K/04Ag4AiMjsNtWdBspK2P+178uQ/5TJABMRgjgKF4kIgAwdl29ef6FWgQ5Q8bJgPavcf+DmmQ/6lCI/BE4in1akveyFog4MyASZPmtktDA5kNx22StdfSBU6th1Si/GSM9kZ1CKtEvnDpSXr/vCIwFAsn/iWNRn9fhCNQrAjLeDo4oBLCxzR+9MUPuEye3hEkipo4s2SMIIABMFD+SVjPN3xA2L/whMhb54/l/cK9yjHbsH+0eAYBj1uyPVh83GRrps4IVXGGQMX+RNZP9mRI4UDlxT9AMAQQrrConrtJWxikOWtnx7BQ3z5vWRAiM9D+1iaDwrjoCIyKwa6SFgP749bujdp8h+cEwWfwI8TMUEMlfXMk1hFXTED3/VVEkZGqCdGX6H0TzHyX5R29/mdmjBJMk/5E0f9pBED8PMgxB0DnaP22rwPwfi+CPnmVmBTsmSgarhUfFUFWjPZEXwHmjLcOfdwSqgYALANVA0ctoFgTkORdQW/OGM5Zr9z5xLnP5EQDaRf6Y+eM5aYpo/hxHRXZ5a89JjAv/wIPELPmj+Y9a++eToQ4cpvmrY0OWBp0WDIIPIYTIUMSghJFB/BGyVoGCz2VusBXyHd9V7jzZcaQE29HvnTBCI0Z/e6OK8G/v6HH0EkaJQPq8ZUbZIX/cEaghAs+r7PWFyn/7a6TZi/iJ7SKiyYqQ/0QEgex5m/zeak5QcfEfSSJxagHWcMUh4te2e5UGW92PFf0oOzryqYPR4W8kPoOx0fwhf2QoTUOMmj8rEeZhc6VagOx/+dMQ/uXfJ4Vt2/rCLE2lPPvC/DiCbc2HVqxhlR/xAzhe8T8rL8KfdARGj4ALAKPH0EtoHgS0ck7+wEp/nZN65YGOeT+j/bfp2KrIPHWIHyGAaWs1D61iyCHvepnWD2LyR9Nm7L842RZsWxQq6BCavki/Rfb2KGCUovlTZ3b4IZr+pfFHJ0SGAYq3h+2C//aTITz6rLJKaJisqq94Q34cmQoYI8WmPEhQuVCCjQsAKX9Pjd48FwAa/Q17/6qJwK5Cha2fJ/IXOaF9slIdmihHCD9G0nVec+0fy7KpwGy4M+Roh6YtB8BKQ5xSKFNGnNPPkVAq+WPuTwghcQ8ArgsHtP7HN4Xwha9oJ0CNFED8KxaG8Gvv1HS/pfmfg/y1Q3AUAvLnGP9UZpK0STLU/gXnqTV/Nf4t8hY0MwL6LHlwBByBUhAQtb5aSF9dNidTAkpx1PiVmaORP2PTWAZqHlqyjn/RXI+pXQ52cexfLKo2VRZ4UKRvQkB0ApTLfdECQcpM/hIAMPmXMd7/1S+Ggft/Edp6Reg49133nhCOOUHFFAgIDP3qKkJAX3HZokAJY5OccSIVLiGYH0Chn9TYNMhraWoEXABo6tfvnS8Lgdawu5DFWvv7RHO/Ofcnzf8MA7SJQzPrCGi5ulqGOD6vCqLmLyaMu/3pWKmHfVxNEH8CPhWKkfxH0vzhNDG3+R1YG0qYfdAjI8Wf/kUc629D6z92ucj//84snKRCCwdV2Ss5g7V2duJTmOKQWA/gfDXzthQ31ZvW4Ai4ANDgL9i7Vz0EpGU+V25pGeLPmP8rJuGSKzUVn//WePwzvQ51uFKVWOW1Qf44LsiEEZ3+IH+uCwUxcdxlMKH1x1UHR1Z0H7hHa+T+k1qrgX/I/82vD+HCSwrVMzy9X8SPv0CvuvrCjuH3Unx1mdrmAkCKX1CjN80FgEZ/w96/aiLA4vl5Q7cUe5axx0JgQ/A23s/RzvM+XI3E6KQn1iREzZsTsSHat8kFJJUVVF4kf4QAzjH7FyJ/CF4ARPJPaP8lCB+Y77/wNzL5P5qZvz9v3qTwwQ/0hbkLSm9sJH9p/n2Se+54ovTnxjEn4zOXK354HNvgVTc5Ai4ANPkPwLtfFgLbC+V+LntnQEMBUfHOySjfr9qGXBM/c+wJuemZ1BL+4uhHhPhLIf8E6cfZBqXN7d+jWYmf+MtDJv+Np4bw1ndLaCkjIEDsE/EzBLBPMs9DL/FZw/qR6tCuIaGlGg5YoVY+k+qWeuMaFgEXABr21XrHaoBAwWmAL8k2EDeywwqQDRDTgCJHTNQTa/q/LavmM7c+etmrEaMh/zjdD81fJv+o+RcyI0iRHVrYh2mGDDcQiwcw+cmdIfz9N5Rb6jtz+3/z10NYvqb4c/nuRsc/yRs9iv2SHeRhny9bKtNkGbpCWPhsgFS+ncZvVE0/SY0Pn/ewyRAoOLr8jO4ckBIcPdHFP/vFi3YO2RHHJNiqeoX4esRG4O3POP9I5E+HcrV+iLc08k+a/KX1D1x1jfwkK2gzuO6T42C3LAm7NUnz4S3yVWDGQZUCjpsjLf9caVXZci/W8y4AVAqiPzcqBFwAGBV8/nCTIVB0Gb1Ht4XwmhlooBnSOCAeinPTdeyVdmrTAmuCmbabjcRXsdZPq3LJH0Egl5Uhfsb6ZW8nljm9D0e/r94qjPpCG1r/B38zhMXLK1+7H3z3yPoC+fcJ53/5aXXIn4WdFi5cFDo7O7Wa48Swc+fO8Pjjj6u/VQ8XqMSFii9WvWQv0BEYAQEXAEYAyG87AjkIbNb10py0ePmdh0M4YYmIftJgOCBFeL/+d5kAsF+KKWPUU+QLYE6C+cqoOG1UxE+tNuZvDn8a9x/GyxA/QZ2wRX3KmN63XcLRl76QWdEPD3/G+q94p7DIlS8ylZT0F18LiJ+pgz1qVrfOEcKqEZYsWRqWLFkS5s+fr9Ud22UFOBjWrVsX7r33Xi1HXKVKsg0VBr+m4t0KUI0X52WUhYALAGXB5ZmbHAHoaqdiXgEA8nlyx6Rw3OQ+ERJef4PhVTkHLl15CDUWBoJaayIEHKqmzDO6hfaP+ZxPgq1YJE0fbT+G/epONjLLIK7jL7NGoYURsk/h5HfrPx9a1AcP//96Q1+YMXN0wyKQ/x4RPwLAjldE/l0t4e6HsIJUJ0ybNi2S/1T2F86Gydra8aKLLgo/+clPwmOPPWbJoz6K/N+jQlwAGDWSXkC5CLgAUC5inr+ZEUANRgAoGL5yX1+48RJxadtg3BegVxbpR36BVSCEU87MPMbKduwSmA4hAPJHJLEgZs3lUVtO2Mz9zOsfNIuAPTf8yLS8b38thB/9p8i5O2Puf9+7tJPSaYdM9JVq/5D/XjUB8ie+Kv+L7q7B8Hc/ywhdw1tS+RWaf25ACDjzzDPDnDlzwj333JN7u9Lr9XpwteKTlRbgzzkClSBgon4lz/ozjkCzIQBbXqB4YqGO75Ipesm0EObNlB6t/13TZ2i8W4TVp/Tnn8E/IETtl3ssEtRCieMaRJotaP40BgJFJzBy54iWL9Jmah9L+cbrXAlBydnAMMd3vhPCzbeEsOmJzAZIF702hN/67RDmL7ZclR8h/31qUpfEsJ0vi/xf1bni4+ENYdveieGVV2QOqEJg7H/x4sVx3f7c4lolucyaNSusWLFCKw8OqA07w2BhSHIfz3st9F9VEXfkvemJjkCNEHABoEbAerENiQCf+fMVTyvWuwe2tIQLj+sM7S19UZlG4+cE8t+pYYJnN4cB+Ze1Rs7VLYSAyL3FCq3FPRYPokdRChHxo9XHczWU3foG0dYhfyN+sW+BYMR/080hPCHiZ08EiP/Xrw3huOMLPFRmMv4U0dtfSxzskta/Q3GX+P6lnZ3hpZlviCb7X/7yP+N4fZlFH5Z9krZuXLp0aXQAPOymEhACpkyZEoWENWuOCkceeaTe7wFZOwquFZWvmKE0vYaVuvjUUIKfOAJjgIALAGMAslfROAiIq0/Xx/q8Yj1qEZufcPblYXr3piCKFae2hGnyeGfce6/GrTUjYPCZx0Ir0wZnHZHhXBYKitxbrOBq38s0TqXyGYDcEQLQ9NXLOJ0vq/0XWVQHE/y//rM0/n/QAjxyguTJ14n4r/t1Ef86rRuYHF3QvUoCWj8e/ruk9XdnyT9q/jtb4hDAtjX/LRbLLnv79vWErVu3VlLNsGf6JW0sX74ikvywGzkXCAIMCxxxxBFh5cqVQ1aBHUgn5QX9QsI9is+U95jndgQqR8AFgMqx8yebEAGR9AaZey9Q1wv+3zniiDlh5bEbwuCkOWFaz5NRu4drcQCcNUfK9WBolRl7YPsrYfCpR0LrslVolOM1JIAJAFM/zn5iWdi2RZJJkLp9mDOAkrLhZXHsN78WBr701dD6K1GWFOZw/qky9X9IxL+2JUyoEvEzfZJpfpj5iQgBO8Wt3btaNAwwGF486s+jlo7QRZg5c2b42c9+lm1l5Yd+LeIAqWPqh+RLCWYVWLhwYRQKXnjhhVIey83zr0qwMZjce37tCFQVgYIfsarW4oU5Ag2CgMh/obpyVbHuQBrHHntsODhloYYBpAXvzRABFMXOgPgFzJ0XWhEA9g10tj7xi76oyc5VyfBY24RipdfiHkJANkYe5fzwwKI7v3ooM53vWxrnf2qzlgzSrEGI/wO/pSmQJ2eEnGj2OPzxklKQPxgqYVU/zP0Wd4v80f7x+Mf8v2//jNBzyl+Hjo4OYdYSI6TN+dNPPx327pUlY5QBJ0D8ACawgEMZAUsEwgPDCGUKAWtVzd8qqvceHIHaI+ACQO0x9hoaCwEEgKuLdWnGjBnhpJNOisTRN3VV2NM/NUzd92R8ZHBQZKUzZgAsWRZa+7r74v71L8ih7amHw8Cs2aF1ipwIx2VIoECnmGf/rX/STn1/H8J9P9GYuwj4iDmTwgUbB6Kpf4j4Czw/UjKCxQBmfrkdoO0zdZChhb0IADru3J4hffnaxbSWIzeGwQ03RnwhW9P+OUcIYM7+U089NVK1I97vlWPDsmXLRhwGyFcQ1gAEwV5tT7h9uzpQWmA1xG0SMu8rLbvncgRGh0B5ou3o6vKnHYFGQGDEVWBMY+RIPDj3tPCcCH7Z3u+q/4MiqEMwsEbAlKkh/PS+MLC7J7R9+1ZZCPS/8rJ3hTDnyIygcCj32J0xje/u/5Bb+k8nyfSui2w4ZmVn2HBiV1h/urbs7bDUyo5o+yyZjJl/v0Yd+nTEmRDtv09+hz2KpLGmwu6902Ml7ed/LkyUZt0m73sChA/ZQv4ELALHHHN0+N73vhevR/OnRw149tln47CCvdNyymMFwZNPPlmzBF4tafGg7LLDH1Ydf1VOPZ7XEagUARcAKkXOn2tWBKSTFg9GFhwhJEgqLDo7PLclIwTEbYNVBMkDUzJlnXx6aNstE/emRzpDd29X+MrNmfTVa0O49BLZDEa90l/xNnMXTf9Hd4Tw/bshXVIIfaFz1qRw6sl9Yf1xslqsUiNHGfDmp++s4Y/Wj7UeIaBHRwQBKc2xLQgDOP+1zz83tJ70/jB79uxYM1PvMM9zhPjBGSGAa7Du7u6I8/TL0LwL9ugJTWlYs2ZNXBK4YKYiN1hIaP369SUJJOwNkN0h8PUq8vtFivVbjkBVEHABoCoweiFNhEBCf8/fa9NGuQs5mUDQKyHg1f3LwvRnPzugXQLbBjTUjuk7msCl0GpWWTj3nK4g34Dw5CaZv3XvyUdC+OQjmTH5uXPDwFnnhLZKdszL11K0fJz5vvXNzvDUli7W5x8KkP76NX3huBNCOGptX1UWLYL4qQPhwoh/n0z+cStf0iUQIASY8NH+mj8LC1Zpp6As0Q81LntCOnE/UkM2IABM17zLE088Mdx2222WXPGRaX0IAZC4vcdyC1uwYEFYtWpVOcMSv6c6XAAoF2jPXzYCLgCUDZk/0OQIlOYSLpDQUk1DhZggkL1hSQjLf6Ot75l/0PbBXWFQ4/0EzOEEpuJj+l98sTzr5Ul//z0i6Vc7ZRLvCi+/HNr+7styt1eY3ZFh6xPWaRFfrSo4VRbymVKQZ+vZicpi5vmktg3ZP/FsRqh4QeP4hwi/K7TrmRULtRydLA7HrmGDntGb+GND9SdJ/JHsJQBE736N8UP2pv0zRbJl0owwaLUA2gAAQABJREFU45IvBZbiRasn4EyXL5jGD8YmdDE3HwfAo48+Otx++w8lXOV3aMxXXqG0Rx99RBsDLYyxUJ5i6QwFsK9AKX4J2fZeoPL0JoLEPw+OQO0QcAGgdth6yY2JwMyRugVxmbbIMXneJ5s2QsD2pb8dFm7+3+FgV1c4KB+Ag3IO7O8fDB1ZgQAT+aDSTztb5D4jY3aHPB+8b3+c/rZdmjOBMXoL+1l3OCf0Z+0Vh8g+k0EjE2GxCH/Vspawdv1gmLsghGmanZDl3JxSKrs04sfEb5o/Zv+o5cvMj5Mf99D8Jy3aGI584+8POdwZqZsQYBhaS3D0s5i0ECBoYXbHAW/q1GkVL8xj9XDEF+Chhx6KQxDM+a8kMHyBZaKMhYKwAry3krr8GUegVARcACgVKc/nCGQQOGIkICAt0/hNAECLhfwtkP7yyutD5yvfD7P33idrwGCYLMK3wGncTyibgGCAhv+mtw3G9QRIZopcz96+OJb+zBPaT/alMNC1u7MNawFhRkcYmCzLwIw5oe1IHSdriGEeRC8RRtyYJfvRa8ixssQfiJ/xe4YYMPWblo8Ag3MfHv42BDA4YUaY8qab4kp6SdJPClGm3dvRqoL4WX0PQcAC11gBINtTTz21KsMAlP3cc8+FTZs2hRNOOKHg6oDWhnxHrEH8BsoQAK5SOQgBL+Urz9McgWog4AJANVD0MpoJAVFp8QAhJTVWTMAQGgTGtDALkMKOWVh7ZbqXEBDDIS7LXOf5iw7KokKsJ0AkZP0C5Ao/zElvaJovHFlN7T5T66G/lI9zoxE/5M85MWr9cvKj68zl78UiICFh0ul/FuYffWYsxDACN7DiGoIHI66J4GpHHuKc+5YOvjyDoGXOd9XwA7BePvjgg3FoYvXq1cPer90vdkQwKTO0awDkA4L1Y2U+59kdgZIRcAGgZKg8oyMQSfQoyK7UYBYAIydMyBBXMuwIF4Tuwc6wbN93g5wDw0BcjCeTQ3yWN5gQkPdmnsScKvPkqCwJ34V+tRHjBmb+JPFHAQDiVzpm/r0atmCKH+b+Ref9cSRRcEEzBifOieBDNHO7CVNMkh9IgA/xY2nhaLgiAJgQgB/BbA0F7GTd4CqF++77URQ6WB/A2jVS0bSxS0M9e3FyKCPop3CDsn9KUTYTD45A9REY0hCqX7SX6Ag0HgJapOUD6tWJxXrGeC8rAWKGRhOF4IiQ2qAKYOEaO9oqdgMdC8Lu/R1h6t4n46J8+K5FOYA/nOtI5ByjPecqLq4sWKwttbpnK/axM98Q0eucYQk0fiL74jDe3y3+hfz3hxmh85J/CnPWvjGSqOGCto8mD6HaMaZlry2tPZuPa7C0dBMYbEEgsEXjZnYAdTz88MNVgwFh44UXno/vlh0DqXuk0KMxEGYSbC1zjwJNCZzUMhj69L7vGKkOv+8IVIKAWwAqQc2faWYENDGueEADTQYjNsgCDdd8AUyDNU2yZ/bJ4cnWmWFV9z9QQNuELLeY0otQEC0EWQsE6Xj74/U/FoH6MPPjoIimT7Tx/ujkJwEgLugjU380+8uJoXefGEzXaP0rLvqTqJ2buZ+jnYMNOExSWksWJ7CywL0k2YIdAe2aMiB7u889VmNEEFu+fHnMV80/B7S/8x133BGHc4466qghS0W+OmgX/gMvlUn+lJWdEXCtTv+XotD14AhUF4FD/8OqW66X5gg0KgKfGaljOKHhLIb2jxmaxYCIaKyQGgICZEVEW4XcSONey+RZYfvAgtbpXZuCJgawcVBokyDAkeWBMQvEa/GfHo07CHKs1dLB8CxrFRix27h+XL0vS/Ro95aO1m/aP0cEhOmXfiMcedybYn9Na8dkb+ccTRgAC67BhjTLM1FpWAC4b3kYEogChHCL2EUTyaG3gxUAYYsFgcrVvg+VUviMdf737NkThQ3alBRYeAryf/7558OTTz6pKZwvFy6o+J1OdXOn3nHWSaR4Zr/rCJSDgAsA5aDleZsdgTcIgHePBAICwCmnnBLJHyGACFFBEqalYq42SwFCAIEjGu3gxJnhpY5Tw5SuR7RBb99hQkAmd6YV2UejZUBEEccHRrutMOZ9jBho+hC7kT/j/IzhR29+pccpfLomz14dMffvkZNfHOvXOVr/wsu/GDVk+o45niPCEEfIPZJ/VgCI51mcOhAQkgKAnoVgk3ECgkI2rVV4UiYY2hAL+GaGASaG+++/PwNYlf+yzO/WF7doSePMbATqp97du3cPkf/WrS9GYa3SqlXksXoWXwAPjkBVEfAhgKrC6YU1OAJXldo/iBxCsgDxQ3CQAwSYqy1aPo48S3x67q+HlS9/PkzXgkEENPF4FDljio9RGjpEzX4CaOvtqrJFYr1VHa0Gmcfy/jXLAo58PD+oI8MMnKO9U/YAR0VZvofM/jYEgIPfAVkCWK8fcz/O7kztm/zGz4X5WgGPELV09R88TBCyNIQCw4I0NH1IHbyS+OVtvBLJZ3nBjEB5nDMMQFywYGFYtGhR2LJFazHXIOzq2h2YIYDPB/Vh3WC2B0JAGdP+irVsqbr5Eb2TvyqWye85AuUi4BaAchHz/M2MwM3qPHp20f83EDxz0DH/Yw0wUjCyM2c1jjaWDagIB5AZpmsjtlcmnRCO2M06AVnHP+WDnLF2o/0TGRY4sF/pygNJcw5hQ9KQOaRM5D7aPOdswsP9uOmONPio6XOdTdsvUmeuPukc+/RcXMBHmj7O7Mztj9c6R+PHKrCvJwx0nPFnrbNO/WDcQIf+GeGbds815+1ZYQCyJm1I49c5xE//yw0mCDA0ACyGLVYA3sUDDzxQbpFl5aceCB+rAEeuqxX0ns9QWZ9TFPIeHIHqIHBIRalOeV6KI9CoCFwor+wZpSwt2w8DZ4NptxwRAIzk7T7XBMjKNEeOkCDe45w/Mu93oiUg7JMlQLw4OTsGALmzdDCKr3gzTsNr0/oAcCd+AgSsAXaeSRn+N5aRacKQ5o+AgSUAQWHICoD2r24R+xURHND++7MCQ8fSjWHqhuvbGO6IBA/JK9IPuzZhgDTOCfSPcyPv4a0r/4py2C2wU5o42KKJH3HEEWHx4sU1tQKU39Kyn2DFhxsV2S3QgyNQFQSKajJVqcELcQQaA4FPS6M9OmrcI/SHsevTTjstasGYhdE+IToEACNFGyumKMjftNXkGDZCA+mQ2qtTN4QOOQb29/UNyKzfigmAIQEcBTlG7T9L2FHjh6xFzpxD1pC2me05osGTnszDddT2s6Ru99mWl2V74za9eo6xf1u/P0yUyfvUj4UZ694WrR1G8tZXjqRZvy0dIWAKvgASEkwAGAHWkm9jeaBcrAz9EgIYDhgrK0DJjaws4wY99mVFXxegMvz8qRwE3AKQA4hfOgJ5EFgo7f/SUrT/5LMQNyRu2i2kR4SQGBow0ueZ5HmyDIYTsAQQNi/8QJjXfVfbhOzSwe1a2hdNnY189kuhbtP/ZrR9VRljrjMgloHcELV9afyErDEiHuPQgYSGuNCPBAyGBqLmryPCRveBzjDnnN8PUxceHwmcftI3s3RwbsIARyL3iPEa60DWQpCpvfp/sQQwFXCfFitgR77ly5eHY445Jjz22GPVr2zsSvy0qrps7KrzmhoZARcAGvntet+qgoB48/3lkH8/dnMFiB/N1wiQa+a5Q46YpiF3iJ+IhQCTNZFnTCCAMBEYSEMQ2Db93Lhq4MJd3w2TVM2AlgRs07G9rUV5MmMDKn7Y9r35iJ/2Qf7JANkTGFIgHDigDYr2MzMhOxwggaBtyoww6TV/EKbMXhPbTPtoG32zfnI9RPTZ/nKPQD+J5CfWMlA+1heGAEwIuPjii8Pjj/9Kfc+Oo9SyAdUvuz0riG5U0XdWv3gvsdkQ8CGAZnvj3t9yEZgpqvhHPVTycjuyQIeNG8+LO9KxKx3DABDgVGn9k0R+kTCV6aDGE5JDAdYwyJN0IgGTtgkBCAZ97XPDy1NPD1O7HwkHUc2VDU99c/7jGB390Nojieta5xb7eltk+m8ZGgKwoQHu96qc/TY8INM/6/drCGCgbfKMVkz9rUdfHSZMPTKSOH1Kkr1p/aQRuW9pHM3kT/9qTf6GpTkimnBlDpaPP/64ZamrY/YnsV6N/j+KmR9IXfXAG5smBNwCkKa34W1JHQLSUa+XoowDVsmBleIIRo4c0XqHmbx1zbr2ZgFIFo51gGeSAdJkURsbEoBQGRLolZv+sgM/DZMkDEwe7JLmLe0/K9Znjvk4Il9apjbM+0SGAyZqp6Edi68KCxcvbxucsSKyjY3hG/lD5JzbtRF/tHSoD2YJIN+w/ic7V+Nz2jZ/3rxoBcBD//TTTw933nlntabo1bj1eYtfLziv18/HpwXmhccTS0XABYBSkfJ8zYjAHJH/DZV2HDJkrB/ShLg5TlYk9GOnVzABwEz+aKoENP5k4BrSJ1AWmixhstYC3jb53NDfcWa85s/E3sx898kHd4XpLZk1BBAQ+qavHcpT6KRlwQnx1pRFG8IECSlzxDRtqo9g5A6hQuhcJ9NoHzGX/JnbP17kHxuuP/gDLFy4MM7NRwh43/uuDZ/+9F/b7bo7ivxvVKNvUnSHwLp7e+lpsAsA6XkX3pL0IfDf1KSytH/rAsQIGUKWaP+QP8KAkfiErPYPmUPuED9H8hFIzw3cR6O2QB0IAiYccCQcnJbZqW6frjVtP1Nndtthq9/axzVlcrTINfcheauPPnBu4/f0y/Inzy2f5bV7lDWegfrxB0AIYI4+S/hu2LAhLuAznu0aRd38LnEIfO8oyvBHmxwBFwCa/Afg3S+IwIlyuPpQJc5i7SzHpwAZEiF+ImRoAUIizQIWANP+7dysApYneYR8bajABAHSCCYIULcF8hAsD0cjd85pmxG+CSEcycOz3OecPEbqdt+etzykJ9OsDeN9pE3z58+PW/Pu3LkzXHrppfUsAADnVYp/o1jbFY6oyUNDInBInWjI7nmnHIGKEfiuHMjmZ52uyiqExXDwNkfbnDt3btyTHue/3ACZ4qRmjoAcIX0jfu4Rks6Adk66EbiVw7URNqRt1xyNkMlLhKQ5QtpG6DxDPsvLNfk4EslnRyP73DQriyMxbQEs6BP+FMwMQFh66qmn0tbMUtvD9/tURXcILBUxzzcMARcAhsHhF45AROBaaf+/UYn2z9Pr1q3TLICNYbnmnSMEdEjTNzLPxZd0aB63PIgfgk+SPGkmJPAs55AY6RC1kT/nBCN4Oxohc81zdm1ET5pFS0tq8NwzAcCet2sTBrA0cM7z+Dgw3p9G8o8A6Q/tZJEgplXS17vvvmtI6LI8dXScr1e7Wz+b++qozd7UlCDgAkBKXoQ3IzUIzFVL/l0f1JKn/eW2/Mor3x5OPHF9WLlyZVyIBvItFKJgIFKH0BkCMCGAIxHSjXlUgAkGlGdplAuh2ZF0I39I2c4hZM7Jmzw3Erejkb9dm8DAde49S6ONSfInPc0BHHBMZAgFKwCYPfroo2luctG26bd6gTJ8QXF30Yx+0xHIQcAFgBxA/LLpEfiqEMi4wlcIxTXXXBNOOOGEuP68kXOxoiAkSAhztBG/WQI4kkYgj6UbsZNGJBjBUyfR8kDiRuSkmVZPHs4hdtIhbq7Jyzn37Vmuk+d4+nNt+c3zn2fqIbDjIO1HAADferYCyFrVpp/JGuHOb9eDI1AyAi4AlAyVZ2wCBK5VH393NP08++yzwxVXXBGHAfJ58hcqGxJP7mIHKSUJP94XaREQArg2Mueac0vjHHKDjImWj2OS2I28TQjgnkW7lyT9IYEA4UBxKA/CgYQIruslgBV9YxbFXm1u0KftDut8caCjhf0mxV8pMqLkwREYEYH6+R87Ylc8gyMwKgRW6OlvKlZs+qf2P/iDPwhnn3VWNP1DMqWGmFf5Tdu3GQFJCwDnBCN6jqRBzJAvBJ8kfa6TpJ8kd/KZMIAFwO6Z4MA15xyN6C3N6uN+HP/XkXrqLRg2+AKA4w9/+MN660Jue9+ghJsVtUGzB0dgZARcABgZI8/R+Ahgt75Ncdlounr11VfHqWWrV6+ORFxuWRCSkTrPIgwQSTfBAPKNwkK2cM4haAiMY26EtHme5+wI4ZOPNAic9CTRk861xVwBgfw8R7qVW25f05Kf9oPt7t274/oAzzzzTFqaVkk7EF5PUrylkof9meZDwAWA5nvn3uPDEfikkt58eHLpKcuWLQvXXXddYAggOb+/9BIyOSF0tH8I3Uifc0iXazsnt5E955C1CQOkQ85c52r0XBvh5yN9y8/znJPHxvs5hzBJt0gd9RzAgr6wOBDYskRwnYcVav9mxV/UeT+8+WOAgAsAYwCyV5FqBDCbsphKxYGFf373d38vvP71rw/ztOb8aEiRZ43sOZowYI2DpMhj+ezahAEImnum4XNt5xB4kvztnpE51+RJEr1p+ZRBPnP247xRApiwLgCrA27atCmwVHCdh/PVfjaw8mWC6/xF1rr5LgDUGmEvP80IMOXvLsVRjfvfcMMN4ZxzztHUvxOjhjzaDkNIkDjkzxHNn0g6gXMTADgasXNuZM+RyD072jnkTVkQPgRv6UkBIJluZRr5k7+RAljQp66uLuHSEu6///667p76MEly4kZ1whcIqus3WfvGuwBQe4y9hnQiAJveqnjMaJr3jne8I5xxxhlx4R+2/a1WgMwxrjM1kPNc83+8r3QTCqjXSD95TJI76eTnaATPfSN+BAOuLc3KYbyf2CaBgbyNGOgXVoDt27eH22//YcS7Xvsp8keQmd+io/7dUa/98HbXHgEXAGqPsdeQQgTE/jfq43jtaJrGZjIs+fua17wmLF++fBgZj6ZcnoXg9ScWE8382TSzBJgAYEMAEJiRuxE3RE4a0UjeCJ48RvjJeyyQY+kcLZKHZxo1GHZYARgCqOPlgbO/mUj+Z+ni3xS3Nup7836NDoHG/R89Olz86cZG4EKRP1upVhzQ9q+55ppw/PHHh1NOOSVqyBUXVuBBSIlgJG9TA6NwoHQjd4iZc9KN/C2N9FyN3kide0nyT+Yj3Zb15Zy8jR7oJ2sC4Atw9913N0J3+b6/UfFzipn9oxuhV96HqiHQmPa8qsHjBTUgAkvVp6+Ptl/vf//741K/xx133Ki8/kdqB6SEVo7mj9mexYJ6tIQtwciexWzMMpBbHs8TIHDLzzXpxCggcK46CNRBGnWyWp7liTcb/A99Ze+GpUuXBgQ8ZgY0QFigPvx/iu9tgL54F6qMgFsAqgyoF5dqBNiS7weKy0bTyre85S1R88fp76ijjookOZryij2LVg8RZwYDMtYA8psVgHMjaSN57pGGpg/p25E0u7bzpNZPPtLZKAeBgHvJeqirkQN9xdHx1V27wi7Fet4fIPGe+MafqPgzxccT6X7qCITGt+v5S3YEDiHwWZ2uP3RZ/tmqVasCY/9r1qwJLPgDadY6QOwQMuSMhs46A5xTNzFq8bpv1zjscQ7ZQ+JRo8/mJd2epSzLR5qls6wv580YwHn+/PnxHTdY/7+i/sxpsD55d0aJQHP+Lx8laP54/SEgDv2IrOhXj6blzPd/29veFpYsWRJWrFgRZs6cOZriynrWyNkeQgjo01AA5E5kCICYDHaPI4Ej5SAYEDhyHSPnWSEj3mzSP2C0YMGCOBTQQMMAvM0ZiqwNcCEXHhwBEPAhAP8dNAMCG2Xe/SrTo0YT3v3ud0fN/+ijjw7Ecjb7GU299qwRN06BhCGCl+mawH2LaP6cR3O+SN40/6RFAOIfmtuftRjEgpr4Txw+EW6M/+/YsaNRhgHsja7QyWZFXyXQEGnyowsATf4DaILur1Yf7xBnjmqxn2OOOSacf/75gSGAdevWxc1+TLMeSwxNCMAZkGmCXNOO5DESf1abx38ged80foi/HdKXENBsY/0jvS8w279/f/QDaIANgnK7e74Svqm4PfeGXzcfAj4E0HzvvJl6PE2dZZMfzJ8VB1aHY74/HuKY/+ceeeS4jpGjzUNQeB/s1wwAI3UWDcoXuE9AEDDvfs4tPd8zzZwGNvgB8K4Z9jlwID+udYoR/xe+qsimQR6aHAG3ADT5D6DBu/8dkfd6zLqjMf9v3HheOPnkkwMb/qxduzbMmDFj3L3joyVA/cL4H4k8OwwAeSUjwgLXED/PmHc/aR4KIwA+zATYtu3l8MQTTxTOWJ935qvZsxW/W5/N91ZXCwH/ClQLSS8nVQjoh/0xNeiCgwfZVa/ywf+OjsnhtNNOi5v8LFq0KMyaNSsSaho6C/HjsR/n64vcWbgnNyIAMCsA4p/c0eFaf4kvDmwXL14cV3ks8ZF6y/YhNdgdAuvtrVW5vT4EUGVAvbhUIPAG+cPfWI2WXHbZm6M5GPM/hAChpilE7V5typ0FYBq+HdPU5npoC7jNnTs3LvbEENBohMgU9/frahuOgTtT3EZvWg0RcAtADcH1oscFgbWqlelOow5z5syJc/0hAsh/LKf9ldt4CAut1SLXTv7lojg8P1Mtee/nn3/B8BuNc4U/wBcbpzvek3IRcAGgXMQ8f5oRmKLGfUeRD9uow2WXXRYQAhj7RwhwQh01pHVVgA0DnH766XXV7jIbe6lkxY+U+YxnbxAEXABokBfp3YgI/IP+stb/qMO8efPigjAsCnOkvP6nTZvmAsCoUa2vAhD4mA3Acs8MAzRq0PpRf66+ndqo/fN+FUbABYDC2PidOkIgq8W8oVpNZtofDn8IArNnz3bnuWoBW2fl4EDJMMCZZ7KzbsMGdoL6muLYLW3ZsFDWV8dcAKiv9+WtzY/AhqwWk9nSLn+eklMx+Zvmz5Q/oofmRIBhgOXLl4eNGzc2OgBYzm5p9E56/4Yj4ALAcDz8qv4QQGv5hmJVyJ/us+If2j9Of0RIwENzIsAwAH4grADZyMMA2bfr/gBN9jN3AaDJXniDdZffL1pLVcb9wWZm54xo9p86dWokf8z/7vwHMs0bmA3A5k/nntvwVgBNd4z+AOua9203V89dAGiu991QvZVydr06dGk1O3XBha+NC+fg9EdkYR0PzY0AAuDSpUubYRiAF40l7d8UJ3PhobERcAGgsd9vI/fumKy2UrU+su47mh7bwEL+aH6ssuehuRFAAFio2SArV65shmEAXvYCxc8291tvjt67ANAc77nReol28r1qd+qss86O4/2Y/+PyuRr7d/N/tVGuz/JYShk/gMsvv6I+O1Beq7ECXK34VkXniPKwq6vc/nLr6nV5Y4UAv9lPyCGLcf+qOf6BLBv9QPxo/iz526FzD44ACOAIinXo1FObarr8Ter6Mv8FNC4CLgA07rtt1J69Vh37ULXXZmfqX4c2yyFO0rg/cUBjDG4BaNSfUfn9mq2ZIatXr46zAsp/ui6fYP7r5xV9Gkxdvr6RG+0DnCNj5DnSgwAfpPsUq+6Zd+GFF8a5/3j9MwTA3H8++Jy7EJCeH8B4tgR/kL6+vtDb2xseeOCB8WzKWNa9Qloiu2nfMZaVel1jg4BbAMYGZ6+lOgh8Wab/GdWej82Wv0uWLI5mXky9xDZ97A/098dd9qrTdC+l3hFAEMQR8Ljjjqv3rpTV/oMh/KEeOLGshzxzXSDgpp26eE3eSCFwreKl1Tb9g+yxx64V6beHdjl6GfkPDAyEfgkA+/fvT90WwLTZQ2EE2BqZkLtFckzTe80NaPaQO+9+pIB/CMMAGzZsCA8++OBI2Rvp/rfUmaMVexupU83eFx8CaPZfQH30H9P/9xWxWFX9N3vBBRfERX86OzuHnABtJgDOgDgGtrQ07mYw9fETyN9KSB5hjSMC2wEJbFz36RivDxyIQtwBHYm9MuHvJy0RMeuTF0M33v7FAr8DrEMMA9x5553FsjbSvTZZ3ToFD/8Pv9tIHWv2vows8jY7Qt7/NCDwN2oEH5+qB+b8Q/yESAI6RgLJjvX26UNPOoKAh/FHwIielhzESpPV6O3dkW7nvEciYRBBIWsZ4JpykqFd2j+CAIJBsZ0fsRSwNTRWAIaOenqaQyHOWt4+JMzYbtuFgOSPp47PXQCo45fXJE1n/dWra9XXNWvWyPSfGfenDsiDiOmf2CMBYN++fdE87M6AtXoL+cs1kjZC530Q7NqOpCcJnufs2dxznrd7vE87x/zPNQIDx7gIlI75AhYhtgi+6qp3hptuuilflkZO+0d1boni7kbuZLP0zQWAZnnT9dlP1O5batn0Y4899rDioyYoUoH4bT0ACKIYKRxWiCdUhACEDLGbdm8kz9E0esg+6aDJPUg7PpfV7C1vUgCgQVxbXq45tyNTP60+8hXaBZLfAs6AJ510Uny2Wf5knW9nyBrwZfX5smbpdyP30wWARn67dd43fZr/UIbapbXqxrx58+KyvzgAWmBsFyIYGjPWddfu3aFFRIEwMNZDAWaJmKBx58lao6DRghF0PEr7xgTPuREx/bdzI/jkM9xPXnNOMNO/HS3djuSB/O0aUkfgQ7u3NO4zHJAvIBywcNTZZ58d7rnnnnxZGi4t4YDL/hs45X6h4TrZZB1yAaDJXngddXeFPuVMP6pZYGU30wCTlUD+WAF6enqiwxd5IP7dEgT48I+lEADB7d27N7YF4YQwXaS0aPHiZJNHPI9EKYLdo7I4R4s2oWYaSx+PoXABwVo0AudIgLD7hT8avhG+CQCm1XOdm2akbUfLa2XGwrPl23nyiGMf0erkHhgR8gkBZgW45JJLmkYAiGDoD5YACQOf0inLcb9o6X6sPwRcAKi/d9YsLWYFskOqeQ16zdruycDHH+0fEuEcAQCyRzM0bRFi6UQIUL58wkOyvGqcQz7WFgQThIGXX345PPX005GwFmiTGjaqoT2x3cqDp7sJMLSdSBm0nQDRIcgwpEEcK/KnDbQR835S04f87V7ySHvps70PI3WuSSdYmvWNe3YeM+gPZZYSIHWELCuTZ0xIyhX6ePfzZUE6+uijoz/A448/XkoVDZEnawnAKfdLihc2RKeatBMuADTpi095t9mE5IJatnHOnDlxlb+kAyD18fGHMIwEIAQIExK1wD0j0LEQAmbOnBm3JTYSMq0Zstu8eXN44YUXYtO4b+0mgfu5gbUOaDue7Kx6OBbtpx1gau3mGHEWieOZn3uP/JaHfFxD+JyTTjABwMjd8lmfuU6G3OvkPc55xwTwIW8yP7jms/wgdCFEXnXVVeHjH/94fL7J/vB/lP+r/9Jk/W6Y7roA0DCvsmE6MkU9+ata94b93Y38IBG0v2SAYCAFNGnLx/WePXuGiJXn0KCNmJPPV/scLX2hIvWxRsH27duHhBIjPRsiyFc3xDZLSxsvXLgwrnmQL08t0mibETzH3HNLg3DBHIIn8hwxeU0e8iePnFv/R9N+K4M2EK0e3rn9NnIFJn4XDCMxI2DRokVhy5Yto2lCvT57kxp+m+Kueu1AM7c7I/Y2MwLe97Qh8P+oQa+vdaPOOOOM6ADY1sb4fsacbysB8sFnwReuOXJtGuKgVkPhww9JcG5ERZoJCrVsO05qRkrUD0FyLBToA9YONNUlS5ZEJ7dCeWuRbhgZUYNXksDBkWuO9IVzuzZhgXtEhDHSEHS4pqxifa+0P5Rr5fP+LYI7+CcD75w2cLz33nuTt5rlnH05ENp9bYA6fOMuANThS2vgJi9V374kJ6O2Ipw26u6zgAsCAB9txvw5Ek0AoAJInzQ78vHn2gKkAFHx8YeUuMZpjGVlOa9loM0mkFA3ZJVLhLSVBY7Y5dB2OqxlmwqVbeTJUcvJhYPCC4KlfYYTbSeNAKYWTBjgnt2nr8k8lrfaR9pkAomVbYJX0uJDPxAKdu3aFW7/4W3R/8LyN9HxNPUVh8DMWFQTdbzeu+oCQL2/wcZq/5fUnWP17a1pYA738uXLRf4TRUQZYuejnvzA82GH/IkEEwBIT0aIwoiMfJCT3ee6VoH2UjcRjRhBwAL1o/Wj8XNMts/yjOUxkr8EIzUktCpOlgCDcx3BBCzaDMZGrjxj+Bv21g/y2jn9r2UwIYA2xDbpaFYYq5d2gj/tuv/++y252Y6nqMOfbbZO13t/hw981ntvvP31jMBGaf412ewnFxSIkY+1BT7gSe2fdCMkywMBJINppKRxztQ1y8M5zyfrSD5brXMc0yAeBADTlmnDEUccERZrmmC+6WvVqruScozQwYs19/FnoO1GsuCGU2CHfB0szcz+XPMc+QlcYw2g//Sde0TDgTxcVyPg92HvNv5O1HYwpj8EjiwNfOKJ6ytaHhhHVEKmH7UVaGJFtfmzXj/5jwhypgdWB/jatNNLTSAw/KuWuOGnjsAYIsAX8OtS5uaPRZ0bN26MmiamdD7eEDUfdrMCcCQaYZEvmUZeIqRg0a4pi+fQcGstAJiWPCASpD4IlalpTAucIkfBtAbaDTZgZ9iiVYMh9zhaOudgj1DAOfm45kiandN3u8+znNu7oUzCaKwFCCI8T7uJ1j4rmzTyEH72s5/FYyl/IP+5c+dJoJgTnTTpR5vm2bcoJq06pZQ13nkED7MCblL0ZYLH+2WUWL9bAEoEyrPVFIH3qPT1Na0hWzir/2XI5pD2BpFA2hAG94xAIBHOjXTIY4IAaSYg4JVvz7JiH9ot98Yi0B600alaL4A606b1l4KBYWVkjuZuGn+uJYB7EKPl4dysAOa4hybNcwTzGSCP3beyS2lbMk93d3fEmN8FbYX0scIQuGZNAJYHLmeToAMHMkM3Rx55ZJzdgRDBlFOsDl1dXVp8qqueNhxi3Y7/V/FyRbcCCIS0B7cApP0NNX77YMpvKGa25Kthf1nBjClbDAEYsUP+kHnyyDmaGGTKMZnXtgnmGe4PPadr5oVD/ggDYxmo04SUsay3FnVBquAHoUK0UQjTeZuEG7s28jUhzAiZ92TPIlRYOu3kGdIsPfmOSrUMkA+CtjZOUpm0wcqibAQN7j/wwAMlw4NgsU8LPDHNEIGC3xW/M/utUX5Pzz5ZIEoucjwzHq3KH1J8dDwb4XWXhsDYfqlKa5Pnai4E3qvuXj0WXeYDeu6558o7nlXwpg6RNx9aPrpG6kb8kD8Ez5bB9kHmHgvzcCRyH+JpFxnw4TeT8Fj0p9HrAEvIDwEHAjdBDKI1Qrf0JLnbPdJ4Pr4flcH7IQ3BgCPX3KMeLAqlCAImBPAMwy78ZojWVn4zO3fuDD/UjACEgVIDu06yqBPt4PdGu/htIRBkrifHWSbkq4Nwutr4RcW6aGwd4FmzJroAUDNoveASEbhV+Wqu/dMWTLOM/0+e3DGM0PnAQgqmffERJ40Iyc/QEe3M0oyIIBcn/RLf8iizQbBgHQWCLIlH8pdgABEbsbdnSZ97vFOzAnDf8lCG3bcyyVeqIABJM5xAGZRldfA8dUD8HH/605+W3etXX301dGlKIUIPAoCVzZROfosIIP39GefHsgsfuwf4/+xrA4wd3hXX5AJAxdD5g1VAgGVEr6tCOSUVwe5ta9asifPjTeu3I6vk8YHl2gQBrvnwIgCwEh8ffD7skIaH8UMgKQyw7oKRJCZ5rnlHCGlMOeQe10TOTYDgyHsk3c6NzCF4YrEAyeNLwDPEqRIabfgHAXLHjh3hrrvuGvJFKFZW7j20/G3bXopkz2/Q2o+lgd8pu1ce2N+X9jUHNqhfNyt25fbPr9ODgAsA6XkXzdYSxv6/rDgmnv+A+9rXvjbMnz8/ErxpVHxQ0bSM7BEAMPFH4pf5NWphEIvIAuLxkC4EksIABAxZRu0e0te1kTzOmRC1kamdc98EA9LsGk0bIaDYsAACAPdjffqN8NsxK4A9V4kVAIQZrsIagEOgDTNY2/htMuRE+9gcKqUBbjlC8ZspbZ83Swi4AOA/g/FC4ApV/KGxqpzpVhde+NpI7DaGj1k/Sfxo+vGePuQdaHQiESf9sXpD1akHkoxEniV7yDlpGYDsGSYwbT1J/rxvniVQDhFN38g8XwvNKRBBkfxo/5QBaUPgd955Z0VWAKsLgmc2AGVStgk8Zqki3759e0e0WFh5Y3w8UfV9W3HrGNfr1ZWIgAsAJQLl2aqKADb0ryiOmfZ/6qmnBoYAIHi0frMAYO7nnPSZOkZTf9YxrKo99sLGFAEjSojTLANxiqZInhDTdY8jxG3kz3XyWe4VGxJAOGBxIp5HCOgQ8Vt9PIfgOdrVAbE07Ny5Q63WKoqUr7poF8ILv12sBb29PWU5HUYQxubPGlVzy9hU5bWUi4ALAOUi5vmrgcDFKuQj5RbENL7MhzrzUS7n+UsuuSQw15qlcZk3j0Mf5I8mhUAwhTF+ET8E4KHxEIgkL8Lk9xP9A7Kkn/k9ZYQA8kD+/AawHJggAMlzXsirH6KHpONQgOpAU4ecIes9e/aG2267bVRWAN4GdeBXQFusfNpLW/ktIxzQBmLKwgq1Z5OiTwtM2YuhOf61S+FLaYIm/aP6WJb2jwc/3vs4QBEKfYzjzZw/fCDPOeecSP6Y/dH2EQIQALhGCID8+ch7aGwEjNQha8g/+gboCJHiNGh+AyYIRsFB9wmQb6HfnaVD+lgCOFIHixIhcNx3331VAba7e3dcGIjyiQT6xDnHtAkBCO2C7XQ1kyWCPaQMARcAUvZCmqA5F6qPv1tOPyF/xnHZtleToeNH1T64pZSD9r969WotuTo3En8090sIMAsAROCh+RAwqwBkjyBgOzniIyA2jQKCCYUcyQeh5/vtIRzgDxB9DLACSAhAmEC4ZKfAe+65Jzr0jRZlVRMd/xh2oD0IG7Qn9kHtpp1cp8USQHslBHQunBG2dfeF0ldHGi1Q/nxJCLgAUBJMnqmKCHxaZbFaWEmBMdSpWrRn4qTJcdyzpaVVc7D35/0I5ysQDeSNb3xTWLhwYWAZYNP+OdoUq3zPeVrzIGCCAILgRJE2WxaTZhFyhViJpEH2rAOQGzDTIyCg+WNR4veFQEAa53fffXfuIxVfMzugT0KAWTKo24QUCt2vaYL5BJWKKxzFgwgBIv8TVMTnadooivJHq4yACwBVBtSLK4rAYhHyZ/gglBIg784ZndEjnw8dgY9pOQLABRdcGI4//viwQBvkYPYnMuaP9u+afylvoXnyJAUBfhtctykSuIZgIX8EAkI+LdsWCMLsz2+W8XoiqwP+6Ec/quq0PdYL6NEMAPaBICAE0DZrX8oWDOoUkgf0X/+O2Fj/kwoEXABIxWtoikZM0Afg+oOD4bxSezttWmYlPsyofHzRaA7IyQnzJx+7UsJb3vKWsHTp0igAsAaA+QCgmXlwBPIhAIFC+JA/1gAjVBMY+S1ayBUCEBAIPBNnBchEjzDANfHee++1R6ty7NWwAxsHYWGgbgRk/m9EYUZ9YHZAqf9XqtKgIoUIGRYH+pxiT5FsfmsMEXABYAzBbvKqJuoD8C/CQAP5Iwcc99CcOPLh5cOGANDT01Py7mgbNmwIZ555Zli8eHEUAGwGgFkTRm6F52hWBCB5m84HmRJN+7dzwyZXCDArAISPoIm1CSEAXwCGATDfVzNQP2UiKBPM9E87mR1Q7fpiJZX94f9+h+J3K3vcn6o2Ai4AVBtRL68QAmz5e2Whm8n0OO4/NbMTH5oNHzK0mAz57xv6wCWfyXf+zne+M6xcuTKO/TP+P1fTACdlPafz5fc0RyAXASNxHAPjngMiddOwERJMGIB0TfsnncizWAFwCGR9CZ5DEKi2FYA2IwQMqA34HhAQQmgT7WvTUBqWgpSE09SOLyj6EsEpeCEuAKTgJTRJE/5S/WROcNHAuP90kT4r8TFWj/bPh5MV0Xqk5XDMWlmLlnPCCSfEjX/Q/omY/ymTD7MHR6AcBCLRi8xtSACt3giecjhPRkiXPBz5/WJJMIsWvgB33P7DmhAyPgGDmP/VVurm/w2R/y8II7mWinIwqHJeeOf7imqZh/FEwAWA8US/eepep67+RSndZT7zVGn/fDBtnjNj/kQsAEy1KiVcc801ceOfZcuWxRkArJjGR9GDI1AJAhA8RM7wEZp+kvCtPMiW3xgRwiWSD2EAzd98WVjLolrrAljddkQIQFChXtozZJlg+uzBjH+A5R3HI74AzAjoHsc2eNVCwCdA+89gLBC4rpRK0P47tNgPxG/kz3N8yCD+vXv3lFJMOP3006PWz8p/8zT3nyl/Tv4lQeeZRkAAjZ5hKY4EI3vOEQ6wUOGvQuB3iykeJ73u3bujTwvWKKxTDHMdONAf81X7z07tQTBTZD+hPTNzpl/TZgfkfUuba1VnmX3AA/f3FD9c5nOevcoIuAWgyoB6cYchwBylLymO6PyH13/GAjB1SABAg2EzlDjvuUTt/73vfW845phjwqpVq8ICmf5tXPSwlnmCI1ABApA+ZGpCJUcihJ+0DJj2b8MBCAg4BCLM9vcPhJ///OcV1B6i8NDWhjVrsOBwGGP+WCDiwlkifwLtOyjBoJQhtPhAbf9gBfg7RbcC1BbnoqW7AFAUHr9ZBQTepTJGdP5jtb+OjsycaTR2CxA/GtTu3V0lfbguvPDC6PkP+WP+n5KdQmjl+dERqAYCkDtCgK0aaNdWNuRrgkHMp2EAVhvEesDsFoTa73zn30v6TVuZWMgQkFkRk2EEBIrMFEOEj8OJPToGKp0A+SNMDwwwTBGX57Vix+sI92AJ8BkB4/UGVK8LAOMIfpNUjcdv0XX/Mx+2jjhGyjgpGhPBtH/IvxTTJeW8733vC+vWrQurJQAw5z9qQbE0/+MIVBcBSB+HO36v+AUQzSpATfz2LHKNIABp49+CT8u2bdvCE088wa2SAuRvS2JD/NQbrQtaHbNNZWMVyBUETOunAoYm0P6xtJGX/1/jHJgR8H8U3QowTi/CBYBxAr5Jql0nUv7vfCiLmR35sKH9m/nfPqJ8JLs0d7q7u7Sx/4svviScccYZ0fy/ZMmSIUGiSbD2bo4DAvy2IXnIHQEALZ80i5YO8ZOPdIRczru7u8MPfvCDklr9/7P3JvByHfWdb91Fm7UvlixZlmRbkhdsYxsEMdgYcCZAxs6Ex+4wCXggxDOEhMSBhPAmz3kvk0dmmLBNYkgCYXeIyXyGmCQkY0jAEBsT1mAb23jfZFuyJEvWdnXv/L7/Pv9zq/t29z3dt/eu/+dzuk6fU6eqzv9U/feqciF5fGy8tGW1yitZA+ZPCwKjWB3G1I5S9L8XXBp7pQWNqBvhgXZOHJswy4Dn61KarABdQjzVpiDALiJ/wKvGSfnmycz/WOtdIWxoNRAl5kxDMAG0EwjkQa1kVgRwIVx44YVhy5YttumPl1Pk2ZQnYWCuGHD//tNZ/0WIxdcfr8znZnjcWkxLPe2002yHyieeeGLW6s3Ur7EyT2OFvs2BEAG4AOJ9nnn/B1RHbDVjZg3XCQwkP8dSWQIIGOwWMPZFH96g+v9vHfu61Y5hrjdZAIb567f33Vnx61M66gb/lbT+kl8UAcC1f4jkPvlJi2r/LPqzY8eO8IxnPMOIq5fT3ldMpScMTGPAGTFXnBm7hYB79ElnvvR1gH0tbr75Zjuv98OsAbbDRtBwa0Kcn7Kps9TvSxa32BKAyZ/nvY3EIdC2bu4XkFkFF0hTOCLPxD/G75POO4OBNDG6M3gexlpeo5deVu/FIWpo/xAufJlONNH+mU711P5irsEVy5eF8847L5x88sk25z8x/3pYT/faiQH6sG8zjbkdRouQO82cS7VPaHrgRk0JPOussws1h6A/gHJg4rUASwH1ldKSkEHegwcP2SPeFsqgfcu02Va3Qbt6vFFtKM1Z7HZjhqz+JAAM2Qfv4Ou+fLa6IGYLsnn/aDUO+P4PiPnHJky/Vy29/Odeb4v+nHLKKaYdVcuTriUMdAoDCKAw/uWa8kcKo4Xx0seZNYBb4IgEAGYEnHHGGbZuRZG2ufY+W14bVxIEMPkjZDvs3r3LTt3VRj7ahfusy7BJKHtrl9swlNUnAWAoP3vbX3qNarisXi3u+3eNhhRw7R8fZhFgjX+IKDv+xdMHizyb8iQMtAsDCAGsP+EbASEIGOPNZrh4vVs0VfUlL3mJ/62aMlZg5kXBBQX8/T6ueNbjcWibM/9esAKUYgHSokBFv28r8yUBoJXYTGUZBkRffn42VGCiRPuHEMVEqlHt//Wvf72Z/on6j8uZrf50P2Gg3RgwIUBaP0JASdMubQ1M3+ceQYGrV6+2Datma4uv5Ddbvtnu33fffZaFsYJFgnax50Y3rQCZYLJJDXvFbO1P91uLgSQAtBafqTRhQHTt39dDROz7d58l+RvV/lns5/RsxT/MqQkSBnoRAzB7+ifMdqGYvwm9mR8fKwH9mBkstcA191r361332IE4D7MTYP60wxcm6oVYALXxP8btTOftx0ASANqP42Gr4XS98Ln1XtoIYGae5NwBAYAd/4r6/l/72tfaan8EU8XleHkpTRjoJQyYxq3of9wBbCxEn0U4YDrgpZdeOmtTGR9FwfMS5V8J99xzt12ibhdO2Cyrm1aArI0vVnpmZXvT//ZhIAkA7cPtMJYskhJeW+/FXft3PyVakYNt+Vtw3v/5559vc/6J/IegJkgY6BcMwHRjgRUXAS6selCNkdfKT5AhAgCaPkclYFHYp82JaAcWOGITWDWzR6wAb6lsb/rfPgwkAaB9uB3GkmX9tyk9Nd+ducgEJ8H4IT4O5vvX1D+fruTXa6Uve9nLzHe68cQTjZDVypeuJwz0OgYQBti3gqMWwNCPHjlijL1WHq7D/BlLhyVIH9JRy33wwAMP5GsSMAWXYMBuxwJk73Wl0rrTh7N8KWkBBpIA0AIkpiJyDFyiM4J5qgLaP9HMrv3HWhDaf9Htfl/wgheE7du3W+R/2umvKqrTxT7DALMBXvnKV9ZsNW6xoxICYO4w+WrgzJ8ptIclLNRzpbHK5pPRKoAI48yi6bYVQDMC5skw8aZq75eutR4DSQBoPU6HucSfr/fyldq/CwBoNxC2otr/i170IltEJWn/9bCd7vULBjDFLxfzRaitB2j0Jc2+JATA8P3A1M+umTB/ptAWGUtsRuRAG7ACEAvAtLxuARYLmRF/pVv1D1u9SQAYti/evvfFmf+6WsX7giTVtH+2LWXp3yJAtDSmUub9J+2/CMZSnn7AAC6xE82dVZv5otHD3GHybCeM0AzT53zvnidty+w9e/fV1fxjXDz00EP2vF/DCsCsAPYN6BYgfOjAinhxt9owTPUmAWCYvnZ73/V1YvIy31UnYGj7EBhShIAYMEdyFIFLLrnEBICk/RfBVsrTLxhAA9+2bZumA15Ut8kIATD5vXv3BFb2Y6tszrlWROuvLHyPdttkPQKANvi0wMp8nfpfsgBoZ4AQruhUncNcTxIAhvnrt/bdX445slrQEdo/85Fj7T82/zP1rwig/W/UlL8NGzYk7b8IwlKevsEAzJdIfLazLgIIAjB8Ds6bhQcVDBgDAYEIAT0AWBNTMGCbP0QSANqM4CEp/gS952XVmD/vD7NnDXRSPxwvjUz9u/jii8P69evThj+OvJQOFAaWyAe/devWjr4T2wHH7jfGJ7EAPbAmQAoG7EBPSAJAB5A84FWgvFxe6x1xCaD9j2Zm/0rzPz7MIqbLM88807R/fP9p3n8tbKfr/YwBFgdCwO00sCaAuwHcSrdI03W7DfJM1F1RtNvtG4T6kwAwCF+xu+8A7ag5UCEolVP/0DIAov9j7aPea/ybf/OTpvmvXbs2zfuvh6h0r28xgCTNwlYEA3YSdu0q7RLodSJgz9NSwT0ArCh6fg+0Y2CbkASAgf20HXuxZ6umqkv/lrR/ljsdM9N/vPAPrSN6ucjc/xXLWSltU4D5s1gJhDJBwsCgYYB+TYzLbLsDtvq9H3tsZ762AG3giFfobHV9DZb3Cw3mT9kbwECipA0gK2WtioGa2j+5Y/M/QYIx4P+vFTcQ5/u3l15mplEEALcexPfTecLAoGBgvtwA5513XkdfBxcc1jgHAgER1n3qrl/vUvoG1dsT5oguvX9bq00CQFvRO/CFMzDfUOstISKx+d/9i+S35UqrrFNeWRZWBAKjjj/++LBmzZqk/VciKP0fKAwQB0Bf7zQgjMdQGawb3+vkucY/MwEu62Sdw1RXEgCG6Wu3/l0ZmHWn6rj536tG0+DA/F9k7v9znvPccMIJJ9iRgv8ciykdVAy4G6DT7xcHArqVrTcCAW1NgOQGaFOHSAJAmxA7JMXW3L+7MvrfiQp4QQAoOvf/3HPPNea/evXqpP0PSaca5tdEAGBnwHXr1nUUDQjkMcTjNb7epfOXqt4VXap7oKtNAsBAf962vtwGMfkXw+irQeV0P/cxMmWAdcuf0nKmRQBCyHapHBDHBAkDg44BNuV54Qtf2NHXZFXByhidHpkJAB7mnbi8/jbjHUXWAFWWKOoAfcxOvoo6zi9Gy3aWVV3S/qd3/uMmGkVppcBJW3+8yOplTIfC788KafN7Y1pS2XumPwkD7cAAgYBnn312O4quWWa1tTh6yQrw0N7wqpqNTzeaxkASAJpG3VA/OK7Vw984Gwbw/zu47x/tv+jcf5b+hfmj/fcSMfJ3SmnCQDswwKJZrAfQaWCMYqEj9fFWy8LX6bZhbVSdazpd76DXlwSAQf/C7Xk/pv6xY1dVKEX7zyu75y4A0iJz/3l4y5YtuQCQzP9l6Ex/BhgDMF8CXzsNR48eNfdcXG+lKy++18nzbLpwmg3QYqQnAaDFCB2S4t5W9D0x+8fMHwtAkbn/aB4s+oM/lDXSEyQMDAsGEHa7IQCwLTeAIOBjtsdw/vIea0/fNycJAH3/CTv+As9XjVVX/vOWuPnQ/3vaiPa/fftpYfny5bYxCXOjhxUwyR46eDA4cR5WPAzbeyP4rpIA3Emgj8H86XO9BpkrgtkAC3utbf3cniQA9PPX607b31nPLxjfm5zU9sCyAGAFQPMnrRZsVO01nvnMZ5oFACFgmM3/R4S3/VqkhbiJXiTM1b5dujZ3DLDmxXnnd3YZfAR0jwHwN6glzPv9TqWZ1RBN4Cc7Vecw1JMEgGH4yq17x01i8DW3/Y2rmZg4Go5NTomglIQABAGEgKLg/n80oWEVACDGMH92TEQA6FGzbNFPmvI1gIGFWkXzrLOe0cATrcnqAbq92Ncy5SLNBmjNp7ZSStuytbDAVNRAY+DXi7wdxMM1B4SAEEp7ABQN/qMOlkNF+++hTUmKvHpL86D9Q5BZNhlhACEqwXBggJkAW7du6+jL4gJg3JL2orUpswK8UEhBce09P0VHv1ZrKksWgNbgcRhKWaKXvLJIAJ8jAysAgBBw2IiKLevpt2um27dvN+a/ZMmSXJComXmAbxzC/J9p/wgBE0kAGOCvXf5qWL06vScA/n/rZ1VcAeWt6+o/Zh+d3tUWDFDlSQAYoI/ZzlcRPfpFlT9rNJ4LCFgBSgcRxY1FFe/YscP8/yz/O8yA9s+BEJCCAIerJ6CJYwHrJDBeK2MAOll/0bpEiwgGTNACDCQBoAVIHIIilsgC/TuzvacHALLKHwF/gAsCRVb+8/Lx/zMFcPkQL/8Lw3cBgNgJ18wcRykdfAywCFYngbHqswA8aJdrvQaiRS/stTb1a3uSANCvX66D7VYnuUrV1d31j+awaMjSpUttH3EsAS4INML8ESJ8/v8wT/9DADio6X8IAWzV6gJVBz97qqrLGGAZ7E7CtLBect11su4G60rTARtEWK3sSQCohZl03TGwQtE2b/c/9VLMlvPMdLmiTBCo90zlvdNPP8N2Qlu3du3QRv+DEzR+GD8HQkASACp7yuD/ZwlsBOpOAX3MhQDSHg46xRXJeiQJ5oiBJADMEYGD/rg6yK/qHWfV/tHcF2jDHnYQW6ApTMxjXrVqtS1m4q6BIrh6znOeYxaApUNs/gdPhyUAYAVAAMAci292WKdDFuk3g5gHgZoNsToFE0eP5AIAdTKFt1cFT9GlizqFlxrulGIAAEAASURBVEGuJwkAg/x15/5uq6T9v6tIMZj/2fwHosXhEfwIBB4YWKQcCB7Bf8M8/Q9mf1ACAJo/QgBEOAkARXrPYOVhHJ155pkdeylm68RWgNI6HsVm7nSskaoIhUJ0KQkALUB6WgegBUgc4CII/Js18p/3h1gxd5l00aJFxrBg4piyiwIDmzXQh333P8yvMH4OZ/xo/+PCb4LhwQDf+6STNnbshZmtM6YxGMJ8q5P/vQiZQvHsXmxbv7UpCQD99sU61961qurKRqrDCoD5H2ZlDEvCAMysKJx11tm2+x8WgGE2d8P4EZwIAnQwnCYBwNExNOmKFZ3bD6CRlTp74APgljxLx7/2QFv6tgnJBdC3n67tDf9t1VBI+0dzHx+fV7ICoKmK8aP9kzYC52vtc6Y+Mf1vmMEtADFB7pVtWYf5u3T63bGosRR2pwDNmr06DhB0qvNGhPdOtbGinh0V/9PfBjGQBIAGETYk2VltqzHt30yHMh7K5w/j97SoCwAhAv8/BG+Yp//Rv2D84C0OwJqnHRGH2SoyJONuxmt2MhZm0aKFNoWXfnfo0LT1aUajeufCC3unKf3ZksZUtP58x9TqxjHwITHkeUWD9+IAQKqC+bsFIGZi9ZpBXcx7HubNfxw/E1qSlQVZKnGXBADH0HCkfG9m03QKSla8ecb8G1m7o1Ptq1LPOVWupUsNYCAJAA0ga0iyPl/Mv9COf44PNH4PAHTzP0IBAWyxGdvzV0vXrVtnS58iBAw7o2PfBA8ABFfg0nAshpBgeDDAOCCmphOABY66bO7/wkWq8qAt5NWJuudQB9slMig0KSBBMxhIFKUZrA32Mx8qqvnHaIBJcQAQEg7M1kXhWc96VlirxX+WLF5c9JGBzIfQBPPHAhBDI7iMn0vn/YsB+kKn9gNYvHhJaczKesdiXgicfQAQmK190M6ebWISAHr203SlYW9Urec2WjOmQwCNBfO/n1easO1GjZ9t27aWzP+ZEFEj28BfJvAK5h9bTmLhauARkF4wxwDjyYXq/GKbThDY3XrH2h0+pttUXSuLPbuVhQ1bWUkAGLYvXvt9cTa+D1NgI+D5YxO1Ey00mKLAdCfWDxh28z8mWKb/VVoA+kQjK/q5U74ewwACwGJZ30iJ38EK0A8gBpYEgDl8qP74ynN4wfRoIQzgXX5HGB1Z1pT5PxMa5sKkCP4b9gWA+FKHsmV/Y+EJoWguuC3UA1KmnsSAC9PtbhzMnz7G0Yjlrt3tmq18qRgnz5Yn3a+NgWQBqI2bYbqzUQPpXU0xf5nsfQlgnzfcqBbP9COWDu7kxie9+nF9DYCYCOP/TwJAr36x9rdr3rz262lo/cw4oJ8hdLAPQJ9Amgkwhw+VBIA5IG9AHqUP/L86ikfsRS8OwWAGAMA5MQCuvXoaZa96um3bdtsACC1k2AHGj//fBQBwaEQZG02CocIA375T1h9n/h7Dw0JAfQKr+qSdPdnMRFV68rN0tFEE/f38XGuESVWD0tri1e5MX9u0aVNp3YAhDwAEI3HwH/9hAGhkw744ErgYRuD7E6HfTsDCAOPH/+8CQJ8sBARaNukoRR63E0kDWnYSAAb0wxZ8Lbj2fy2Yt+FsRV0BGzZsKAUAJgHArCfxGgAgHRdAp3zBDX/k9EDbMdBuy9jy5Sts/CEAMGaxPvXJQkCO+xP8JKWNYSAJAI3ha9Byv1gvxDEnqMecxufNLpyvXLmyoyuezell2/ywTwOMqzELQA0LS5wvnQ8eBvj2MOZ2AvtvIGQSB0B9RZfvbmebGiz7pAbzp+wZBqrbbRN6hgEDfPt3zvVFK+cLx37/opqrLxtc1GIw1zb36vPgDgHA/f/eTojysOPGcTFsKdNBGR/tBAQAtzIcOHAgHNRmQH0GyQLQ5AdLFoAmETcAj7VE+58ND7ViA+LniP5382N8fRjPIfg+m4L3h/EnAWAYe4LWt83W0Wj3fgDxFEDcTwf7YyOgvFOcuDwcn/9JJw1hIAkADaFroDLPWfsHGxMT5ZvWVGqwRQQAyoHJDTs446+0AIDD8YSfoeweLgS08+VZbhgBnP6H+Z8tgfsJHnkqdG7HpH5CTIG2JgGgAJIGMMtWvRMWgJYBxMMZmKcwLlb3mw1g/kUFhdnK6uf7rAJYaQHgfcwCkASAfv60TbcdYbCdY4PNtxij1IH5f+/evU23tVsPylCyuVt193u9SQDo9y/YXPt/ubnHqj8F43Km7znQXIqYrjH/Q3ySj7uEOUywMYDDIniMn0nng4OBdgsAzMAhVofxu3///n70/w/Ox+7CmyQBoAtI74Eqf7ZVbYgZP+eVO9kRwFRvJTPWHPe5x61qU7+Wc0T+fwh+pQsA4SgJSP36VZtvN4I1faGdswDWr1+f9619+/aFPXv3NN/g7j25QlWngPYm8J8EgCaQ1uePPEftZ/GMlgAE6miF+R/t35kYzH2h7S9evbqly5YZAUoMrhT05XiLsdVOE3BcTzrvLQz4CpvtatUqTb9lDw43/+/atUuBh32zAmCMlpX6MxFfSOfFMJAEgGJ4GphcUiYvbOXLQDA8ENBXsXOrAEwdC0C9KGYikN3EPexCAHiLhadWfqdUVv9hAAsAgIm+HbDxpJPM/0+/e+KJJ8JTsgAkGC4MJAFgyL63lPNntvqVjXFlxMqZvzMzmDsb/dQCtA+0Xs9fK9+wXK+M+gZ/MIBhF46G5fvH7zmBdU1uoXYB5n8sdPS5J598MuzW0afQtw3vNr6TANDtL9DZ+rXpXzhnNNu+t1VVw8DZPQwmzhHHAeC/9EVGqtVHfqCS8VXLO+jXwGM1FwBCQIKEgVZiYN26dYEDwPeP+T/B8GEgCQDD983FbFvr56O8w4pe913sXJt3ZoYLgC1/awH5eTYJAcEEgISHWj1luK7TD9pl+Tn55JPN98/Yw/y/e/fufkUuJpK+jFzsBYQnAaAXvsIAtAFCMnH0iC0kYuf81wEBwwKwatXqqm+ZmN00Wlxgmr6SzoYZA4wdxkerZ8kgjG/evNkEAARv8/8/9VS/onqe0HRfvza+2+1OAkC3v8CA1M/uYewh7swfNwAMDQLGQiOrV1cXAPz1Pa//H8Z0SrhKQsAwfvnq79wuC8CGDSeaUM5YffTRR8OjjzxSvQF9cBV3poZNigFo8lslAaBJxPXxYw+0q+3sIX40cwWwpCgExoENR6q5ASBy5CMddjiWcDDsXaDs/dtl/j/ttNNy7f/xxx8PT+3vW+1fdMPcmXeUIS79KYyBJAAURtXAZLynXW+CFYA1AWD+MPSntauYTw0kDuCkk2YuP+AabywstKt9vV5uLSHIcdTr7U/taz0GavWJZmti5U2W/2W8Yfp/+OGHNdNgWlBvttwuP3dnl+vv2+qTANC3n67phn+36ScLPOhWgIMHDxqR8eA+tJmTNO+4cgYChChZAEqIZVXEapBmAVTDynBca7UVwFf+Y93/R2T6Rwjoc2Dxgsf6/B261vwkAHQN9V2r+AftrBltgu1EsQJwxFYApgSeddbZZdUnzX8aHbVcAMkCMI2jYTpD+2cdgMr9IeaCAxbmgunfd9994cEH2uYNnEsTG332W40+kPJPY6C6yjF9P50NHgawADB1pj3Li6lgtP7DEgIOSKOF4KBtwPzRZo4//viAGfKpLOoYAQAGl5icdv0TfhIkDMQYwPrTysWA7rnnnsABYK3rd9CI+Zqih+Bjfe/H6Ma3SAJAN7De3ToZKF/T8eJ2NYPAnAPy/4+OjoUDEgAAXxKYGQHPeMYzwk033WTXERQSJAwkDFTHAMI0AnQzgK9/+fLldrAaJytKsvImQgXl4gJ4QFYAF8apAxfdMgnoi5cstTEbr0LJM1j1DmpsY+U7ePBQM81q6TNi/lgAEvNvEqtJAGgScf38GFJzGB15cRZB25ZXcVfAPG0xCjjhQQCAKDEPGTOkTx1Mfu7SZ0h4KOEh/ZZWx0T7b2SRHqxrxNqcfvrptgQ34w7w1PGKUAFDZwXAWABYvHhJWL3meLPUMU4r+6Nb6niWFQT37t1r2wjv27e3GwIBlswv+zultHEMJAGgcZz1/ROSmv8hTE79TrtfBA1hfLykdaBJsKAJhIjzrVu3mgDARkIAhKXVAU/tfr9Wlz8iF4AT2Mqy8QcPO34qcTLI//nexM8gABRZppctt7dt2x5OOeWUsHbt2jKGTwwBmrsDfcyDdP2apwcO7FfeZfYX5l/Z5/w/Y5iZPSeccIIJEggUe/bssT0FOigMYMl82tue0sYxkASAxnE2CE98XS9xVOa+eUWsAPd/LoQ1WjZ8TFEDsZtaNCpgwV9+SW2UQFDGsr0HnHigWRATcOqpp4b77y8t4lWpadQucXDvgAMnuj79C2JdSygYXEykNwMDCABo2I8/Xj/InW19t2hp37POOsvM9jB8GPK0dr4vFyY86JaUA2YdA/TgkUceNqaOC4HtgnHf0S/diuf5fTxj1WM8M65PPPFEEwKom2P37vZtMSxa9EVoUILmMZAEgOZx1+9Pfk2DvWYcwAOfD2HtepkOK5h+5UvPXyDt/WaIVQhLX1R5FzNmKR6g8g7EgilJP/7xj40QJSZXwlA1QciFgUocpv+DiwG++X65zzC11xPSYdJY03CpMYaI8IfxVvPvF8UW9VEOB4t34RaAwSMIuCUP7R+LHv89wBeBwP8T7IuVAasAFgwEgVbHDAhFf1P0nVK+6hhIAkB1vAz81Sx69iK9aNlsgHuuDWHjFjH+sRGp+7bK1qy4GFUvWiKrIYLAj28PYfsvlD9CPMC+aK1xiJtPbcJnCWDqTIyuHG/+L+HFMTE86YTGA6v0oY3XAmf+pIwfGDbPfP/736/1SMPXYdox48bVgCVggZj/goWLTChAmF+2bJkJArEwQLsIPkQYYLvhhx56yKwZ9QSaBhp4v/KK2iSYCwaSADAX7PXxs7KcIT2XxQHsvaHEyEtm/mLMP0YBgsC2M0fCwRunwqp/s7CMcDDoXQjA9Ih2ALHg4BwfJUJBqzc+idvX6+fuAqhsZxIAKjEy2P/53vtlwifI7nvfq87MMftv2LDB1vSH+aNpf+973ysL6GsHlhDmLcCXGQB7WYOnBFgKli1bbnt+YNlzt8B5551nGe66666wUm2ei2XC6yKVAvOxZP2PMdLceRIAmsPbIDzF9BlGsEX8HP5GCJjz5wyyGkgxCPu+cijM+4ny0lwIWCxhAHMlTN+nFnFOtDMawzCD+1UdB+AJhoDQNMzCkeNjGFK+9/333x/uvffecPPNpemy8XvDbNdIq8YMz/hBu/7ud79T11UQP9+Oc7cU7Ny5M9x55x2K79lqgj3WgrPPPjts3LjRXAHf+MY3zGqANYC8zYKY/6eafTY9N40BCVIJhhQDCND/9O5LF4SjojEtYf4RIokdoFzKjwEhgGlHBAcSgMRiJBAwDtYld9dA/MywnPsMico4gBQfMSw9oDT1D20eTRlTfmx+BwuY4Nlam77CWMFK8O1vf7urzL/y62AhuP32280iQfq3f/u3FpTIjqCXXXZZ2LJlSzhZQYvr1imyuDlgMbO7mns0PRVjYCz+k86HCwO3fCj84eU/d2zJWJvsQFoHKLzwomNhk3YG/sL3sNpNg0cho+2wUyDTiQgy8nUCRkYUgzBkAEEnYAphCPwA4AH8bJBZdVwBVwkGGwOY83/4wx+G73znO+G97/1vYarCE7dC/nbGCJYi+sutt97aswhhFgOWPcY1Gj/WPWIFmCnw4IMP6t2mbPfQg8rTCIiQfFho+cdGnkl5q2MgCQDV8TLwV++7Luw87YywDibdFEyKQRfg0SOaO3jujsnRc2TZ/9xMa6ZV/eijj9jqgBA1iAJEAvPmsAkBUxKGnpAAgBAAIwDAgc2YkL83uQAMJQP7g9DH4ljf/e53w/XXXx/uuOPOsndF+1+06Dhj/vQPXAS9DkxHZCwztnHxsUgR/ZhzZjlMarxjBXSBt8j7iPm/Wfl2F8mb8tTHQLPkv36p6W5PY2DXl8LNq9aE7ePjRZg4ijucngNzPuYCHSNZGvAkVKgpujINk2JiIZx+VgiXnBLCnyvQsBIY/ExdWrlyhQjBMRMCiCCGUAyTEAAxdAsAvl0AgQjNCR8qAZMJBhcDmPPR/m+77bbw4Q9/eMaLLlighbQ0Hx+rWWl+fX+EwWGpoA/jtqB/M6YJ/MUVyD2EGawFBeHLyvchHf3x8gVfqlvZ2mT87dbrpHpnw8Dv/0x4ldb2eA4R+3UZNxo+voGpTEaE4U/JLG2Mn0f1f0T/c95/RBdrj8lRWQIu/Mmj4TqtafLKP6TucsCUeeedd8hH+DMW2MTd5z73uWYNKM852P8QeioZPTEAEMoE/YkBGPYjP/zfYenjL6v7AmOjk+GZ+sx/B4urAgjKvbIGf5Xm1bxUivkpWQJwCfzoRz8yIcYfIOYF6waxAwXgU8pTKGOBsoY+C2pdgiHCwNQtI1Ozz+9H659fwooxfjF7IFvRT5JB6T+/kz4W8ePVFwIsu2SEaz6wPPynT5avQMY9B4KD3vSmN4ULLrggXHTRRaY9YEIcdIBRMF3qzjvvtCAw/gMs7XrhhRcGrCIJ+gcDj35B8RvHs6aGhk42hOq3Xn185DgdivWYlFn8qLbU1kqb1RbYql9O793F78+4ZioglgCEGdwDWD2wChRcPphZS0QONhY00Hvo6JkWDT5V7RlUd78hmuc/C/OHABFoJuZvmv7CkqYP9RrF/IxQwMF5dowuLt0b1dw/iFd5rJ/+lwN8/JfeWpv5k5vpQb//+/8lXHfddeFrX/uaEQlnhuWlDdY/hBwCprACxDMBsACkmQD9863v//zIYxM3j4QTNupbLhiNmD/ktt6h21MyhU/ulYZ8KBCfYwts3RLCdW/vn/ev1lL38WPuh/FzYNVyV5ffr/Ys19ilUPDnOhLzBxMtgkJyaYvqSsV0EQN3fCx8tf5UPwiTmLuZ9GH8+mtqC9q+dxOlI8o3Jc3U0/idRjLLwDFtX1pnFUGKZd2BBc+LHy4/Z7rgn//5n5smTFT8pZdeau6AQbcEoB3hAmBJVYglAJF0QlmOpfSv1zAA49908oq1JT4Fr9JYQjg2wbmytccqL2T/tTHWiL49LreM3738cp1WcZ3VKKDnLiPAwuRh+u7Owh3AtaO6NpuACz0QvK/nXqzPG+SUvc9fIzW/DgZGL98Rzlm/JVy0cAFSdO60jx4RUzfmre6Ab7+M8WddBIaP6d/yZYRrFGuAYEr/p2BWIlgQrTFZBdBk6sQEIIwcvDGERRdSQG340pe+ZJHRMMOf/umftmVFB1kIQPsnahoBwAHrx2wakudNafcwAPO3JbTDHjVihcaRrNWjrLOVCcbWNNxkjJdazN8y6Ue2/xEFgmo8jo6WttRmpc56G2/5k72YTmYCgAf7IQQwphECjkoIyBh8vaYTGXFPvQzpXuMYyKh74w+mJ/oGA5O/9ebwHfEUEaMazN+0E3WFaswfl4Br9kbIEAL83TPCNiKiRp4ppcgJk7IA4A6YRQhgxcAn/z6ElT/l5VVPWUzkql//dTMbIgRs2bLFphVVz93fVz0IkLneEEu3ArjW1N9vN7itv/uzI+GU03g/jTFj/DIClG+zkb28LALASCm+o/THfxk8ABY2Cdc2jvQ3swQwXvoZEGIRZjmwaLn2zzTAGO74uBz9G4UCoQM5+IjkoCd2hhefenmcK523AgNJAGgFFnu4jA+8KnxzyzbRpKpfGoIjQuOBfubnzzKOZNQGQpRrMNNaafkrQ9QgWggEOoyOyQIwxbMSCupYAlasHAl3fHxqxgZCeqgMdssN8Gu/9nbb8OTVr3512L59uwUTlWUagD++45qvpe4CgKcD8IoD+QrsnGnA7JlRxkMmHGeXZybO7GfeKQ0gXAe6Z3KCrGoD4PqO3Vgwf/6j/Xv0P9uOn3iyXrsMNYqLESlaJoPKsZsnp7R0AFYQITlBKzBQhupWFJjK6B0M/PFrwlmXvCTsWLKk2njh08fMH8afHWXM3wWAWszf35fyRLRMYKAcnoMQktYBWSVOPT2EL/xOnTzZLQjF1VdfrRXS3qs10m/OfYmzP9k/OYgBcCsAsQAuEPTPGwx5Sy1YDYY9m4m/CJ40dhAmTDAPYf/03jtFHu6pPJOTpb0/MPlzHJR1CwHAtf9/q3VCypl/Rk+gHyX/vykxCAJaYryaKbOn3rdfGpMEgH75Uo23c3zT5vCDk07Vg1VN/1mBudmfqH4xbjf5mxAA86aLNNJNIFqKAbDgJ5VpswnqP4914mUv0yMF4aMf/Wh417veFW688UZbTazgY32RzWcCsHDK4sWL7cAaQJDUMMyE6IuPFDWSb/KDv/4v01eMWUkAmMKsXc3MP5119jPGTckSp2rCzf80+xO9muMwPv/sOCyTP+sZwPxd+7/uGpENIxP6GdGyoaOrdKwuHeMblGo+JXEVgmyfkSQEGDbm9lOfMs+t7PR0FzEg0/83tmwX+cgs+eVN4bPD3F27qGD+dg+Nv5nukZVt0wkzgcLKq18Wg5qZAUXhq1/9arjiiivCF77wBXMLDBJz9EBAtP9q0wKL4ijlaz8GENhuu+XvzU9ttSFsTxK8R1BsffdX4dapvAkVd/tdGpH5WhyFn+6JjObvl7kfxo8wYOb/bOGfb2p2Qz5DydZBkAIxQhDl8hLjh/mPysdigoACKwXQC5vW3BNv17+NqE+V+/e9hrrlrPZ3+ulhxwkbNVDGqpn/hR7TzB1NrvkjFHDMZu7352ql6lZYEMwdQPRhAVeAckEEHv+bWmXOvM666W9603+w9QIeffTRgYmUXyLN34UAtH/OWRdgkIScmV+zf68sPPjVaQEgfw2sAAgAcxUCcCXsCbt2KgT+YckWmTk8r6ZPTtD00fhh/Oxw6O9xhvj52TsQbPQiZn0UrTAhQFYAoxvc8AOFRYLAaGlBLBnJEswRA2A2wWBhYOHWTeFzJ24uBc7MNP/zycXkzfSP5g9zFuTBfnNl/qXiTIhwIQAfZgFXAE+ycloji55ATK688srwkY98RJun3DEQQgC7/mH+xw3AlEDfTCUJAN63eis9cmRK/U7MWYcBS2TblFjm8s9FCJDdf/IxWw3wR7eG8K2HYJQ1BPqs6l5OEAKc8Xs7/+r/j7T/KVyH0Ao4ey3WpOujzLBYaDEByQrgmGwurYXl5kpLT3UdAzL9f3W1pGoY6ew7/UnzB8xcT9Ryq5i/laofhAvKxcLAOdaF+l0OTcAWPVHORoDgwPe85z22h3q/T5nzxYAw/yMIuCtgkNc/aORb91recfVZpqrlYNP2YPwuEaDF8x+3QCNwJEwe2RkevFcBgHtkB1BYQSUDbaS0Xsv77ksXhC3bRBGMJIg+mKKAzxKaUQ9ER3APCJIVoB6eZr9XnxrP/nzK0UMYwPR/6slhxzpZyVYQP1NttgxT9dDGfcqfmd0YdK1m/hli3Apgg9qFgPpIgyA0Eg/gpX3iE58I73jHO8KXv/zl0lajRE71KSzMZgDgAsACgBsgQe9iAAFAG1lmIGafBwO6FYCbHAgBRfql8h25Lex5Uox/lyYBqvzb5AYYFGDzn1947eFp378pC6IPdbV/f3sRiJGl9qefLSL+Nt1MkwDQTey3sO4Pvy6s2bI+fG65GD/a/3z4+Yzof31udvfD/F8Gs0ncZZkb/KOGmHsBCd/rnb3bEQ/AIkGNwg033BDe+ta3hi9+8Yt9LQTMlwDg5n8PBEwWgEZ7Q+fyE6SXy5tlfnpZAVg621b+cyGAtJ4QAPP/V/VfbQ8tps/c94nYwtC512pbTZ9960TYuEUkwUhBpv3b7KHZaYM1ymYp8dxU2Hl9mhbY7IcqiO1mi0/PdQgD49pt99HlmjmzfKUOAmid11Y2IA/+U4Zc+293N5D2am4GjznQfxZMmQWW6V0aiQfw4n784x+HN7/5zeHzn/+89k3fLcJcj9j6U72VwuxdACBFCEgCQG99o7g1muZukfp2zQRv7QPAbAAHZgXYktm4AlwQqOyX/D9gzP/Q4anw5OMhPKW5/wclAGTbQnhpfZ2+9tkhnLcj8v279m8uwqKvhtIiAUDA2gAJmsNAuyl/c61KTzWCgfEPvCJ8avWaMLZS2j+m/wWlcVG9jDz4r5aEUP2xuV3FCsCAVZ15QODsJaIdNBMPQMnsQc4MgT/7sz8L999/f18KAT4TgFkBCAAJehMDBABylMUBeFNZztdjAWxqoP7mgYEeFyDhgJX+JsXxJ34UjhydCvvk89eGeVowB+Y/Ep54ygvs7xTT/xUvC2H9iXPQ/h0FmZZTsiL4xZQ2goEkADSCrR7M+75XhHeddFJ4DZo/kvAK1s+oFilsGneFHzmP/O/EiynOwKwAEgJyIWT27sfgZtOgZoCAqd/8zd8M11xzTWA/AeYi9xsgBCxUHACBgQl6FwPHMgFgeiaAtHxmAxiTqtLv3BrAgkGTUvMnH9HxkM0kYMU/Ds2a02qXujwxFZYOyOf/s38/EU49I1ZSEGw5KmhToU+NRTHBXDAwOwWeS+np2XZiYJygv3VrwtULxFuJhsVkbgtqzPD9qxkIBRb8h+k9piYd7AImcKhuC0AsPuh5p9s+1jwqmR3A8a1vfWsglw9uHjPpyVZhQAs1lqYC+vp0SATMBkAiMFcAQgDXcAX4IQ4/JdV+cqcORfsJjugWlgSOozomJAAc05CdfUaPPd7TP7/8/GAbJpn2byRItAda0IjvP3/DabqVLAA5Uho+mcZiw4+mB7qJATH/l5+yMXxuiXYbXawDzX+JAmNZIas6uISdBfyZNt7O4L/KVtDVVJ9bAfIghdm7IAN8+5mV5TX2nxkC73znO8M//MM/SLMS4U2QMDBHDBBb8tAP/t5KMQFAzLuqkanMCoAgIHO/mfxl4594LBMQdKrnD2HyF+MnpoAygRGlWgcqnCz3Xr8Ca/2/VALA+pMi7Z8Ff8q0f2IgODL8WCqk1Jw+KSlCls1qBk89lKAABmanvgUKSVk6iwGZ/f/ziWvC5xYeN1Ji/jL9L9VxnKwAVaVhD7iz6H+YvlsAOikAgCMEAAQR6udcKbEB3j6y1ABoaDNTA+PiWD74LW95S/jcX/7lwC0fHL9nOm8/BnAn7Vd4/p27XLAuMX8L9qf63AqHbz+zAhAPYAccfm/piPIiPHAcEw8kbtUFACbuYAF47sntf69W14A7EuZ/xYtDWHuijvV6F4Y/Y35EC//k2j+MX+aOKUU8EiOBayRPEdgRCsgTAfsFC8/T0y+je+m0EAaSAFAITb2TCea/ZlW4erGY/aJFU2b6X6I1MWD+tbX/uP2MPoEx4tJp537pbjB+zBRqhwkkmABxS8wOuALuuXb2fPVyPPTQQ+GXfukt4dprrw2PP/54XwYH1nu/dK+9GIDxY0GC+e/Zsyesfuob6r/SUcW4Yf7Z8vZZI8TIqgJCgYQAhIRMUIDhYwGwA3kh0/55nNW8EQAu2caYx3XWP/Dq86fCz78ghJXHh7BmnegUSj8wxqp/0CIEKL08jB/hyBi/3CIx8zeXCbjkwCIQQQHlIcqdTiswkASACoT08l9F+1+7annJ579I4wemv1hm/+M4R5iu9TXHGGjVCEetB9qJBQQAHQx+/H8mBEAEirVl06khXLBlbu1j+eBf+ZW3hQ9+8IMDs3zw3DCSni6CAVaYZCvb/QrPZ3opQsA9U2eFw8dKe/8yVc/WAxADN8jXAxDDt+WBYfxo/hnzjysVD0QIYMkAB8z+aMto0VodOszTMPnl56uMPoF3/KRm8TxHzF+uC81Smg5QNu1fL2Rz+SXpTAknxEIwBTK3kGTnQbhC+7dgyUxAcCEAZOWWlj5BSo81E86QoMcx8OGfD5sOHwzXrVoRdiwU0z9OvBy//9LsIA6gbpAQNkQIECY3oOP+/1K1pV8YvSgZjk2CpEZJ1Q1talScr/o5Qs4/fkZ+xOdVv1/0KjMEfu/3fi/ce++94Rd/8RfDc3bssGj7os+nfMODAXz9R9i7XsfT2sceIeCAhACOQztvDWMTYcwZNyZ8+L6Js8ac0FrV3y0gsArjz9CYywoVaKW/j6scBIFxFXPaCSG8eUcIf3JLRcYe+stUv/f87EQ48XjRKFkniU8iQBk6VWLYKCOZKYAZEMb4kZqqCDdGG/Ty0AkLolQCQD8AswB45GXpUvotjoEkABTHVcdzwvgPHghvEPv+z2L+Y0T7w/wXSQgg6v84af+cL9T1mto/AwRqxEAyS3svfHIEEh2m/WvgWyrqVk0zqoJ1XAEP/88QNry8ys0GL336058Ot912W3j7298eXvrSl4ZVq1YJl0a+GywpZR9EDMTM/4A0/oNi/gflAoD5x3tOoL0zZe+YrACcl4H36zrdimdisz8CPRYA3NwMFWaBTuI5E/zEaRrzGi7XfHNcawTAOHsHCFR8109NGMOH+TM1mfgk0mklRUQMF6Rr9cb4EZQEsSSEa9AUA/IKARxGy0pZ7TdZACJkNH7aC9yg8VYP+BNM71s8L7xC4/6VMvmPsbDPfB1aHXaa+Yvxa30YO0pb/taQgs2/rocNss9t/v+MmnQFl4xiDepKK4ARyCpaQJU2rttQioq+Z1eVmw1e+va3v23rBaDZXXjhhWHr1q1p3n2DOBzE7Pj7J2TXx+Tvmj/b2Zrmr75Cf6kED+Cbvo6Zevpfo2dmAYD3SeE9pvEPMDXw3JNDeOfKsfCeL8kr3iNCAMF+r3qWaJToEgoKyglWSjR/3JUluVq0iMC/KU13mJJJPyiNg/vKcOU0DTxDrzCvKCGPbbiU2JcwMSdIGJwT+lr3sDN9SfYvH50XxhYuCGP4/dgDhmOeBv8CWc0IomFAcTDQuF7TD+bmsXxQ9dLnRr3RUWYFQJuhsZUq1Ew8YxK9/a/n7grwkgkOfNvbfjn89m+/O1xyySXh3Gc+M7kEHDlDmKL5w/wx+7vvv7SX/UH7jxBADIAZ1SL8wKiJAwiyyjUDFtiuIQCzJHRnTOk88UxcC/M0nqfGp2ylz8PiiSevOCxTewgf/LKCY1sgCDfTXp7B5P/Ol4yF7WsPW9vMOon2D+PPYpRsbxIyj4IYuUImFfRXzeRPnmpAICCzKXLygDulJBGxYFKC5jDQSxyhuTfoz6eO++PXhFMOT4T/SwP90mXHhR349xjs4+rTmPsI/CHKH4AAaIyFRWL+mPv9KBT5nw2S0mDRALLAGzHergMjObYC6K/zfTeZztJGXAH3fy6ETa+eJWPB2wQHvvvd7zaXwOte97pw0UUXSZNZklwCBfE3KNlisz+aP4zemb9bAo5KODimeXqPPXhv2ChBHd7E/H0sAIxaTPoljbc4VtxEznOcQwcQ/imztBDkVJl7gaBD8dnwyy8O4VM3hfDtB4rX1aqc558UwpUXTkjbnwi5i1JMfzHKirR+aJUWsixN/SMQ2Uz8u1W9D/YGWmLmfre6UBaCBCKYWwoaKCtlNQwkAaADHUHM/ixj9iGciYavQTHftHsxMCMSDHiL9C11ZMz9o+rsaABIzkzvM0uArjOgGFhYAGad9mfR/yrEiuVT99rndkGEdomCNgEnbm7ioVke+bTiAr7zne/YwkEveclLwvHHH6/vgcCSYBgwgOn/iLgrTB8zP/85h+mbcCBnP/8dfOoe/2H8CAIW49ZAl/HuZYxf431MZXAeWwFQmPN1BrLKyYMQcOWFIdxwZwif/15n4gKYjnjlBYfCORIAzEUpWoZFciEWStEnO4dWuZWS9rLuxxRBf00wf57PASFAfhAWEjIXZxIActQ0eNJrHKHB5vdedrbl3X0gvGjRvHDG4gXhCq3Ot5lBCgNHQkaSx5xnWr7OGeClwS+GL4JB4I8dXNc5+WD0HAsoA8lagwrBwIlGVSxY8J8KsOl2KsTB/P9c7wXQC5tFQm3xGQGTSD/6X9AKgCuABYLmOiugEhu33nprePuv/mq4+nd/N1x88cXhjDPO0LeI8Fj5QPo/EBiA2U9Ks8fsD5Mn5XAhgHPX/l0ImBiVNB5gbNNBgPlMALta7Ifx7GNau3uGcfFJAgOhHQYaGjNAggJ0hbgA1gl4zskT4S9vCeGf752RsyUXMPf/1GkT4WfPPmT1osiglNAGmD/aPgIB51w37d/IjV6Ouf4tAyGHOAK5ERcumqtA0bJG9V1BiaLN8ZM5w1+zJPxXRbpuRvo9VQyaAL2YkSOowtAdfKD7/zglnwkDGZM3PyCugWywEQcA46sLJhlnOcx3pgbl0//gsL0CGVIsKhgrgA7bs4D2ubmvflvBy3f+SFuM/sf6+Rq9u/vJJ229gN/4jXeEyy67LDzr/PNFbETVEgwsBtDw3e9vwgCxABIKMPdzuDDANQQBYGQiY/5i1h4EiCWgEWC40o9HxdBNSVDRjHtoAXE+qtrgmMa9spXBKMMmA1nfwxUXKBhPUwW/eU8IN+toRXwAGv+LTz0kxj9h6xHgsjQrppg9wcnO/C3NmD8uOtpeonUNIsRfqG6KENCOcutWOlA3Z2MjA/WyLXyZ47Qi31WsyLd0+UjYtly7dRHwIh5L6lo6A7qa0ujEgdSie5W6GdHveVsZPLEVwDT/Ql9NI9RMbirJ4wC80J5K9YJYAZgSZNYKJTamoWoIKrMPcHB0jqKP2wGsF8BGQqwauGvXrvDc5z43uQTagegeKBPmj/YPcwec8TuzRwAgTywMxM2GSaOx2zF7t40fLQn0YvrQDKonhRbkVgAxUjYIYjEgxI5YCKC1/EdggDFjDVguwQGLAMdTyvCgggR/9FgIu6WE79FQu3ffQk1nrC1gn6FV+xaprPXyL5y3ZYECDkt5qR+hBKY/fyELFE0Z88dK4Vo/mj/Mf1r7L3vVlv8Zz3SIlhc8BAUWYiVDgIdCr4gvX53t+rUbRjYvFdOngy9ZNhWWa47rcs1/pePTGfHn14zMr1WTTPYwGyBLjADw3zt48XJhnAKbN8snjm2HvThavE3eHUXp8jaLmhURAvTo0/8kIexiZW8DfPSjH7VVA6+44opwwQUXhFNOOUWmWVG9BAODAZj7RKZqw/T57+Z+Z/yY/V0gIAVg+Gz+59o/l5uZCYBwb7MI1Jcpk3OEAM6tnkiocCGAiTTQhUnNDqBetwYwkkwQ0bOr1E2XiyHD1GHepfJqM3/q8nykYwpI8CBl/tPtEVAWLJzKA5RZkZTrrvVDC6e1f0psBkTHbKYQCIhevqIoo4spELACK8X+OsUtlntIc2HmVxDf35xwYthhi1uI6bO6FQtcrBDjNw3dFuwuMXAN3cYxxWpfGd/OkiplFCyXQYM2bdk5F2D+N/9/6W9v/TLQRTEA2ozFghgAA1GVgvEAWF6+8nshvOi3s0dbnNx4443hgQceCFdddVV49rOfHc4888w0S6DFOO6F4tDwq0F8HYEghskpCf3qvDGzNs9bExQ2tgIgVExp6FaDSco2Pj6VBwce03DHPUjdkxASPUsZtpBeRSHeVr8Mc4/BmH9GjGgTJGSe6BwrE8LcmZ2k6crG9I356z9KEUIAR931SeKKzDWpB3IXJTczGsapLaOs1OiA8DyJtTASYNSegzeGqUUXzpiVydMJ6mCgie5Zp7QBvMX8fM1n/dxyMXxWs1quJS1h+ggA5ovPtf2CzLndOJoR/Bd/YgZVbfGi3U2rX35MfdRmmmk0VgMdHBcQqhCgnvei+rXM9e59990X3vGO3wi/9mu/Hp566qlw3nnnpdUD54rUHnoexj6m4B23AHjTKs3/3McaILY1A8ydJxW90UBAGDfBf8Ck5F5sX+YC0DiAiTOS3TpIHuSUKeUz0E3kfiwREwwXjYUJxo8/p7SS4Zf5EUql5L8wf1NIVM44Y1HHfNUxb0FpWWKCl3PmD8NHGMi0fhcC6lpBc6aPdVIFjCp4ypi+0wFPaVImkI0KI5hFRhEApCDYHgLYQlR/hjf7k34KY4A+laAGBjD5r1gRPrd6rTa0YDOLjPEzBQ8Jt6Sx9wjj5x2M+athts0uVCAbRAy2nor+r4ZwUZjYCpBPC4RACApaAfguj/wv+S7/XemxdvziO/V9BHbu3Bme97znhU2bNskSlIZTO/DdqTJdq6+n6SMcOMTfG/cdzBcGjSneTPcw4AYBdx/POgOOuxQxAGjaJg9n5fKfxYM8Fo782pvA+KS8AtNb5WZtOSayAA+tBcbsuQnTF5hLU8+g8QO+Jgn1co363PfP2EMIYBaAWzNLT8W/3FRgAVP4jCYhwYDTrMI4a37u96BjepERhAUJAZOqcErBDbIGIDxpNtCUZgNB+BIUxECiWLURNaoO/l00f2f+qxACZAGgs/UkOGWwdbM1+q2h3tjZBlkvvJHa6G4KmxaoNrkroKAVgLdYe0Jn3uXTn/50ePTRR22Z2HPPPTecc/bZaZZAZ1DfllpY66Haeg+xQODnMP+9e/cGxf2WQHwJxo32n/vuM6brWYqkDFkYdy1ACPARDZNF6HCIBQHP5MIAeRBO7NmsgJLbQmRiZLpChpl5ELNCYfC0yacro2njDuCwmCelTE925l9SjODB02WWioLxS4MyTR+mrwebAhcGhPlRyhGYJWC/teG+68LOza8MinZIUAQDWVcoknW48ijK/90bTgxjx4uZsI/1uvWZZNurGDPtXwMij/yHNKmxfaH9e99icCME6LAlgvU33y1Q5wWtABAs+QSDfIJthxtuuCE8qemCl19+ua0Yd84554Q1ayQpJuhLDLgVwAUB0ljr95fCBWAWAOz0FYC5nk2BXBCorQ1XPJj9hbkC9nwVbZ2yAawEEwwXDRsLOtQ16o4FAcYC8QDVoZJJT+ci6A+gLFYhtSnNqsu1fhcCfG0SiwHAIkDb5ZOfBhUwqm0BR+U/tfWRGeOtAlWGNcEFLa0zsGnziOy1U1TiV1tV2UCWo0+boAoGRtetCVezmQVmfwQAAswaHchVym3TJfV3M03qc1rkv0ZiGWjk1jWxlWXu8h/aiiAjymd0RNRrBDcAQT9Sf0zQiQlM9eainXzzQ+Hwc95a1U1b/aEmr7KZ0L333BN++W1vMyEgTRVsEpE98Fgthu9Nc2GgzPyvroppHUYLI8bXDiNmj54FsKEmeB4BdJOaYlc5kmmHyxzUAU1Ca4fxmvVB14gN8DhG8liwoL9AgRSG7xAzfq+H+f8mCChF44f54wawKcrxu2KqH5UGZSb7+IaX3ooUy4LKAflmNTyEK+BYcgUUw230qYs9MAy5PvKasPW4pSMy90+FNZInS8F+PfjmxgwxtyGux8yfz6rDtH9xwqbNbXq04xARCtrPoAZcsHGXQOlq3d/znl2VftZ9ptmbLBp09dVX28JBbBd74fOfH9adcEKKC2gWoV14zrV+qmaKp+/250w/vo8FYAGT4Z+e2VBcAWjvMOQJpQTPNQzSon36bzUhYELDhOB403VVuMUNIIRINh5DAMiGTS4I6Nps4OENpGj+JlzoHDcA4Fo//3l1AhbLmH/Ze0rjH9ugpxDe2w2if2Zh0EsK9/MXHAp7bwhTyy9J8QCzYb7sk82WeUjujz89EV7LRjys5odkixmtaXAmzcgEzJddOp3x63lm3MguxM9iJscGaCZ/NZDibcEfGqsjZ/7K03cAdZPg4osD0X53BZh8gDVgdoBgPfUVTdd80ex5W5Xj/e//gKLDj9hiMUwVZL2AWFtsVT2pnPZgYDzjglPiqDB8Z/oIAQgFCHec802ZBeCjC4MVwX8wXCwAaP8eDNhsS6E7jGagmhDAwj/UYx4z6sT6IAbIQ7gGAA2BPPrf7tnV8h+3bEJOHMz3jxCga9RDHVwzISBLTftXw0zz94ZaAWL+4yfpjNo7ARAF0YsR1cvp5BHtRDgVdl4/NbXu0iQE1PsCZZ+tXsYhujfBGv6Y/DEjNz69JBstU9loInoGiAZX6UL061ouef08ul12CsMHTCNG+1fBjE4jFboH4wcsor5TA7BUZWt/1XaoKmCykygd78wrN+DiY+Ok1z47hM99e3qhJSuzjT/XXHONTRH0qWRp0aA2IruFRTuzN+aucvnv2r9X44yf//E9+K4DcjzMFkHAXALqys0qEZVCAAzZNXNiAXLmnwkC1Ac4U+c8Zvw+FTBm9p6ffF42TB9Ay+cajJ9rrvW7NWAm8yczmr8e6CioXnM1COkoC5N7whqFHtzxsfDV7W8ML+hoU/qosoyb9FGLO9RUOjtCQHHQA+a7dpQqRWOHGlQb/fis/DpMzXxY1ObPcx6B5/VLMdPn2sAwfn9BUoQbmffYCxy8gGKjtLg8ilkBIF4f/0AI1z7PpAg91xn49Kc/bdoiUeNsIXvWWWeZBtmZ2lMtzWJgVNo9jH+EjiOAyfPfhQOuIQTwn2+L6G1g/VIWgCzFBcDUPBMEIAGer4k0FgLix2niiIYG8rALAlmzrV7aQHvw2Xu7Yr7sTD4uk3K8DGIB+G/WgCyF8VtQoNL580S4ygL+VNLoSfrphNk/brWfgwgFBYJ4yMXk3nDqmZMX+d2UzsRADW4zM+MwXVm0MmzUuC8IPrTxQ+Fv50EdrqlXMm4v1R/z+e65+V6CQVWIPhUOOoOskfkc/05L3VUb2sKL2ftYLIAXq0BAc3uAg4za+q0aKabKOz8VwrbX18jQpst/9Vd/FQ4cOJBvGnPmGWekaYJtwnWrinVG74yfcisFAL8WWwC4ZlH7MP2M8cJ0zQJQrJtSRE2AjMyXQjEhhutMmrJh1rgaoARuEaCQnPnrHCEkoxTcmgHO8BEIKBuwc/13i0Nu/jfGr+tGjiqFagLy2Bmxm0Cj1QazErJo0b5w9KbJqXk/kVwB1b5KxFWq3R7OawefDA8e2xQ2u7msPhbE+GFIpoGjmXJOqpHEaGIkAn7uI4xrdq+SaVf+J2MEPk/eLjFaOdTpBxbAI/gUQG9smWD+cI146GLU9ZRtPNN5+NKXvhTWrVunQNLjwsKFC8P27dtNg+x8S1KNRTDgzL5SAOC/H5TDOZaASnEd5dMWBNKwd4HApu1Vc+IXaVCch8BA+BsWQwFMmtX+YOBuvh/Tf6NbIkOsIphr/qVHqv46s+emuwZg+IBr/JAt6uG/CwylHNEvU/LqihpR3raeqpG4AyCN+g7jY3slBEwlIaAKzrPPXOXOEF/CAsDA8dW1aqNCI6KM+UsCRhBwAcCEAJ5WPhhVNnBn/q9dQ/mdrBy7yPkwAO8pZm/TAt0VAHVV1zUFpKArQNk7tTZA5Vf5xCc+YXsGLNOa0hs2bAgrtLxkgt7EAAKABwLOExd0iwCthenHqf3JfmDADhYIqP8+DRBaEnv8PF+zqVkD9DDT+5gJgFCAIGAuBw0NbwupqFH+v7K+mJH7OSlCAEZGyoXxexxULWNmqVy0f/q1HuoJcCGg9M3GR5MloNpn6ZWvVa1tXbtmFgANLDPfVVq5qrYKbZQBgACAG4D/DD3Q6yj282r/43v1zlVcWZn8HwYAJwgB4BSZVeqUneuUWRYFAVfAdW8vmLnF2T75yU+Gu+++Ozz88MMy2VbqjS2uLBU3JwwQBwAQB+D+fi8wFggqv2M8iQctHAaM9k8a3/Oy5pLCjNHG6dPMycfPz7lt06vU73HNgpk1fGzKnsgT/+2a7nHfD9bwt/n8ukY5LOnLPeqqz/x5E2U2ujeXt2r1s0KKWQK0fGtYJpyM2nLBra6ln8tzbtTP79Dyth88Gh6jUM3mMv9a3QrQRM3snzGpnPHXfSrdbBgDDGZRqFwIgEgjdIlCFQS0m3/3moKZW5yNjYMefPBBWzp4gvlaCXoaAzB+h0rTv1+P8/g11779PymKRLtkPvp0zuw1RMoW6NHQcOZuDF3/CeDza3GKQGAMPxMkcsZfiEMok43DkuAUv3v3z9U2AgPHWJ1zmTYtmid3QMl22P22db8FhT5v95vZ2RZoEF9/SAt8HJF1mcFbGyTa+1aVudm/du50Z64YEIHBJmlCQKaaWJHFuzHE8sefmWs7mnv+61//ugkA+xUYmKB3MeBav5v8aanvAeCpt37qie/7aZ7iAoDhQzvM/C8y4fEAeaYWn5jpXsyd/m3avTNyUh0wdz/4bwcCgs7Jz3Ou6VNWQ2Ab+zBlqtEHG6plDpnVLiwB41rSVcLAuHY0OnZzEgJAaK9+sTl87NY9apK7BnE1qd5qKTM/I/0mdLYO+9VKAr9YAcA1Ghpp46bHLafqsS7Av/zLt8Lu3bvt8DXnu9CMVGUBDGDqRwDw1IUBUhcC3AXggXMUi68/Bmf8FownQaBTYMxcwyVn6houM86z+3NrkwpBIDfX59xKau/TGe2wDYmWCxdJCADfYCVBBQYWjIe/Oigl7YhcAIcO6matgWtzYDUtzWKBJfYn6AAG6LIeD4ALQJTNplwW78o88vQ/daCpFVUcVVQYO8jt27dPQmWtTlXxUPrbcQzA9D0QsLJyZ/5H5cZxF4DPFvLd9fwZrhMI6PEArY4D8Hq6mqL9m+8fYbzXoUIImLckHLtluC0Bxalmr3/bFrbvyr8Id7kJ76j4O+t51wSb86NMU8WnpNUsK90oiAE0DhcCZMc0l4D+NwCLjhvpSkAgOwcmAaCBD9WlrB4IGAf90RQX3EhZChiYmGKyGfdKEcOm7dt/rpYAIaBdcQBeR+dTsQ+LgcIK1w8CABiC5YlWYAmQO2B0bEmYumVkihUDuTtskASA6l/8EHFahzS+CQSsq6yZFUDBAiYA1JMUqleUrjaLAQQAER2LvYD5Q4Q4CoK+28tfWzBvC7Pt2rXLVgg8gnkpQc9jIBYA0P45YP6Y/zmemlrOZj8zuJ9vxgPtYHqeM/+6tKTnsRE30BkpFrh+YyO0F+vhKrVdgoDWL9h2zuhFO68fPmtAv325uAe293y+xnoWyHOkJOjXqQ9irqhB27wmmXbrIKqFtzICZLQ3c3A24Qpgs6BOAto/u8y5/7iTdae6imPA3ADRTAA3/VMC5n8XAJaO7C2Z+CPZHyZPIKADFgEC62zdr4EgD3oZi8PJNH/z//cjKyHyUVMEx3RIGFi7biTs+rvhEgL68av5uGpryloAPgsAAaAyuKesckx/rFdvAkA08ssypT+tx4C7AhQYyNoAZo5szBWwRKuGsllQJ2BUS7gRAwDzYH+ABP2BAWf+pJj9EQA4Z2qnQxwIyDWWEsDsb0xf/xEKiAfof4BlMMZ8Fk4mBPTtiyHMaJogLoHxtWHV8QuHappgEgBqdNyDh8NN3IL5MxugbgAPbgDbxU+ZkxWgBkbbdTlzBTArgLnIDVoBaNUnP9SutpWXi48Y5gETSS6Actz02j83/WPuh9lz8M0Q3kjdirP7/m/ny+fyDm7qV3YDtH+fCWD3+1E/8NlOlmYCtgnbuOBgITM8IKWX75tf3kFKhM0QWB3G5w9PcGASAKp3UpbRvvXoUbaQLQ1q0rowmZkJkhWgLppaf5MujBAgawBCAITJzJPFa2IO9D3XFs8/15wwExiJB5TNtbz0fPsw4KZ+1/xh/mzwhPZPQCeApu/gXgOzAJRiAu2W55mVjnhBc01h1n40U1bM9G3zAY0zF7DZ9MwW/mGsZQJBM3X01DPQEVkziAsYPV6Ti1aGqW8vmXrg84PtEkgCQPVOOKHVAG87cmSqtIpXvbUA/HkbJKxLjyCwz6+mtCMYwBXA+gAiRqOLJQToMIGgeOWbTi6edy450SyZSw5jSdD7GPCAP4S2gwcPmuZfSg+GL37xizNewD+rWwDI4Kb/2CUw48FWXDCmDUmvJOt+TelsQkFeBg1SfmP0MHkOMch8xo0zf65X1qdLfQvQElwCa5UuDhtPXjLQLoFB+nIt7XKrF4Xv4fc/IubPoK6/IqCqdh+BBQtA3BEGEnQOA1gAMEWKMBnRkjvAtZgCjejU2gCrVq0yc3LS/gt8lC5nce0fcz9a//79+y2Gg/RLX/qUsViPAABAAElEQVT7sHPnzrBqkQT+CNwCEF3KT9H+MU7VjSfKcxc8yRk22qv6vDFqBGF89Nnh10gtD2VHwkAuFEQMPy+LvCrbDs5h+IALAP1u/i+9TfkvbFFKhE0VlEtg3gpZA+YN5FTBJACUf/n83y/+RbiXPwza2IeXZ6g8semAflECwCTLvc7mN/D8KW0JBljuM3YF5MSuWOmsDfDfX1Usb7O5lixZku8q12wZ6bn2YwABzX39LgC46Z8lnW+//XZrxFLkzQoeWGsXUaclc289ZJsjY/q2FK8akjNqZ9hKLSYmSznnGBNzg5GT+sFY8XL8GS/P9x+28ZTVk1sCBpmFgF9mCWgfgZFVYdszl1x0+BuD5RIY5K+nTj4nOMJaAEwFJJAH892skjtxALY3gDsF01zvOX2Bhh9Wd7YFgjIfJYSsAStAkBD3K1c1XGlDD6xcucJWkGMVuWQFaAh1Hc+MAIC531dvxOf/wx/+MNx0002ztsVnAXjGWChwY6Hfayh1xmsr8MGgcH3h8kJjjbR+Px8hj8aBxcbISkZqAXy67udV/2et4tnccsC5DtpgcTYVkk9DL9IvmaEpUiwsQPD4MH/RmjD1LwunBmW6YBIA6vRDZ/qWFlHmkZSZDeBuAFscSFJEgg5iQITN5ygb8ZM/rwEfJfTu8b9pX3OXLFmqrVYXaGvW+WV7zbevxlRyMxhAOEPz37NnjwX8PfHEE+Hee+8N119/fV7cokXqazUgjgGIs/gqgfG1QucIssb8xeTRzK1vc85SvPzPUtfa85Q8OoiNIa8LBnmqDk+nn3HwDM/C5HXfj5z54woYFvbBe4LjLDZAwsCqdQoS/JfRvncL8GUT1MCA9gFAhZ9v0wCxAiiqt26XL8sgQYC1ASxKFv90gs5hAK1IVpgpiBimG4hV8ZiMVcdrUpCI+8GDxZ8p8m6bN28OS5cuDYsXLzYBoMgzKU93MID2D/NH62f1xgceeCB89rOfKWvMlmXT/YOFfljnQZ3OZsZhAYgBxg8VYGKAW9Tj+3XPYf4w4ykxIRj1CIwZ4DzSxqneILNA2iIEGe2BFhlA8kWbcpiNBUT387oYT8NI0zJBYFTvP7VX32JMKwjuv+jgjYemFl0YcuznqO2Dk7r8rA/a39YmjoyERzyqd9YgwBkt8UGIDOGDb0amdKEtGFC3ttXJIF4arOb7LE6wIOZ7bpgm7q1oIszhZS97WVi+fHlYsWJFOO6445IFoBWIbUMZaP9o/I899pil999/f/jkJz8hl000r0/1LlLXwv/vMQCjI9P3a1kAaG5FMbO8gTqj+exh/jB+HbmbC9O/hF3msOcav/IRwMZhM2MQhmkoGizCAkd2Ldfqdd/P49TK1i2esefJx1Eh3ejKcAH0BWsAywivDguPWxL6NTYgEu+G6xMWeVtNBXxMQvTmxgZsVjJugFEk7eKMp0ibUp6iGMiIFq4bswYotW8yTaTrlTRfdBZXwPE/XS9XsXvr1q0Lb3jDG8Ipp5wSTj/99HDSxo2BYMAEvYkBov8RAGD89957T/iTP/mIFnCKteZSu9fjXaoBWABcMCDLmHhG48BDYrj46I35KzXmDQN2RlyvYKc9pBoIjIPSvkWl1AwWmaJSa+0MExi8Lj2W6BlIEIB3CVl8ZKF2vuSrY7fsnxrb0V+WgCQA2Mes/WPTdrIxUjtXfEcav2mcSOIOWAF8MPq1lLYfA2g6+ni4AojNMCJaXLPHFcAywdd+q/GWYuq/+OKLwzOf+cywZs2asGXLFjs2ivnzP0HvYgCz/x133BHuuuvO8P73f6BuQ2H0xtzFD9y0jwUJC8DcRzyMV3QEs79r5uZS5Ho9xl+tyeTnyIQBy6JGmuG6GoFDyIiB/43WGT8/qOd8H+FPygWywMEb9/eVOyAJAPX65WS4W7MAdpAljuKt90gusTvDcd9bX3qI6r9p798VwYJg8g1g/nyTY/oQZVM2a78FhPzjov/XPq92nvjOOeecE84++2xj9CeccIKZ+jdt2hTWrl0bYPwLFy7M95CPn0vnvYMBfP/f+ta3wje/efOszP80rRVTDapp+w1vmGd+f5VuUoU4i5n9XROfKyOOn+c8ZvYuDPi1OG+1t03XzAWTWVcWLno63PGxya9uf2N4QT9gJgkAs3ylMWGI+buFBnDOWNAysQBk6DWpnTiAuesEszQ33Z6BARHNEVlgsPxPaZpmg1YAXAHaJjSsu3S6YEz6K1euDFu3bg0bNmwI69evt+A+/Pswe45ly5blKVP+fG356VLSWa9hAN//o48+Gr7yla+ED37wg7M2bzzijX5uyrqexDJQa1EgtxTUrMCD/oyGwPShJTBkzltJQ/wFPFXxScsHCQ2C8IdrhmXgNRtj82n7L2qwgK5lTwJAddQzIvL9AOAehSwALrXbgKVgaZzWMXALJJ9vdVS3+yqDE8IpzcatAERTNzArYM26EP7tWSHsXXFhuOSSS0yzR5tnOh+CAMyeg1X+SJcQ5a97iem3+9u2tvwj2qTpIx/5SHjve99bqOBtchE1CggKZZOFZi1AJBrtw/qwa+WzPpQydBwDfBu+1bwwfx7m3mKxRh1vZkWFSQCoQIj+wvwB6f0lwBRcyALgD7AYEAtzAGZ+zs5LV9JvxzGAAEAchhi/xQTs1zmfOf/EOq8NfP/rrlHIzwu+Hl760peGbdu2hRNPPNEC+eJpfUnTr43DXr9D4N//c/XV4T3veU9DTcXva8F+0AjO6VYCpxe4A/yap6UcNX5j7d+sVTAV+i8MJiu8xqPpcjcxwIcWfWEFWDPx9IcAkHpUeZ9xfJCKi+t7TkzZaoCFLABeFlG7rAroLgBbEMiL9kwp7SgGjIhSI4QUCwBEtTgsXDASfvhnU2YaZnoYmj7+fdwBRPSnhX2K47LXcmL6/9M//dOGmP8ZsgpVA2f8MbP3mAC/VtcFUHnTCqTPciToCww0NW2sO2+WLAAlvMfcmXOO+ewIODo+Imm+tLhH5dic8cniDCa9K4fPu52ROV3oHAb4nCKgfAsE81FiAtT1p7hezApA4ODWM7SW2sTO8Bd/8RcmABDND+NP0L8YgPl//OMfD1deeWVDL7FCLl/X/mHsrPMwPj7TVYhVwCwDSs1SUK8W0/7pTxJQjX4gqML4OeirCXofA3xoBQ414GLs5julXjU9ssAFApHjxFIW/2CAs2d88+CRtc2XkJ6cKwYgog4isrb+uVKIbkGgD3z/uqCd4L4UbrnllvDd7343HNJa8Qn6EwMw/0996lPhiiuuaPgFVtUI6UFhJwAQcI2/9K/ALwoEU4hjQHpI0F8YsBkB/dFkY3L90dS2tNLfn3TG+aJ54YySZC9zgIQ6j/Ct2hJjJC69M4jjgcz1BF3HQO4G0LexJVVJiwsAtF8L+IWv/F4IH/jA+00IuPuee2zXuK6/W2pAQxiA+b/jHe8Ib3zjGxp6zjOfokWA4jUAxvMZQKUcru1XCgFmDYhJgxdYMjpmD5NBRzL/59jpixNbelnKnqV90eIyLtUfLW5NK2cw+6zY+DpRY2HePFkAJITPqzpoo8aUMZJMas9X0YrypdMuYkDfxd0AhHjkVgCmBxYL2kFueN6LQjjjmkPhox/9qEX+MyOAhX5S1H8XP20DVcP8L7vssvA3f9P8rk/zsPJm4GZ+/sYM34WA+Hp8P3u8lPjUAPqkaf0QHOgIh5OlUtb024sYyFyJrDaaYgB68QPlbfLRRBqfewa/hgPO5vJqRlcYm80FwEdn0QDjIwxeDgcv0v+ntPMY4BuYTJdVzfdh+2alY0jtxfdrYJrP3/7xlNYGuNXcAazr79MAkxDQ+S/bSI0s9EPw5s6dOxt5bEbeOAhwTGPelD66kroZloFYH/D1AFDoqwsA3Mish1ZTRjtMEEAASNAXGICGaAbYxLFiykQvvBNUcZjA35c0PgcHM67pwpncQNofrzsOlZPAD6T3GX6CZP4Hh70B2Uc006pa5N9siuveHQq0VNaCVVrN939fHcJf/uXnwg9+8IPw/e9/Pzz99NMFHk5ZuoUBdvdj7Ya5Mn/fBhgN37R8dR149Xg01LleOQXQFwuq+/4WQKYcufm/bu50s2cwgHJhE8fCPbeFr/VMs2ZpSANUb5aSev+2vytpfE7L4//xedBGT3aUtvos8pIa+UAy/5fw0Gu/xAHYnM5My2qyfQQEPuuCEN710/PD//jQB00AuPXWW1M8QJP4bOdjmPxZ4IdFm1oBvg2wCQBOLVSwy5UYAh1mnQIYxw75Q/RRi1fJaIlfT2mPYkDmf6Z6swbA1NOhX5YBBplRV+1R3M69WT5EG0knP/y6MF9mvJ/AnLdshRpRy0fsU3dsAyDQ6Yc33Kv1/yntOgYsDiCL3sdiM2neHqXFYwF4hyXLQvi5VxwOn7/lcPjYxz5mW/yyJsD27dvTmv9d/8ilBjBLY63Wanjqqada1qJTtAKgaf5ZiT4FkL9m/ncdQCmWARMUsmszGhH7Csx6qP5oAqrcUhafmujHDJz13AUxf5YBFjz6YMFpxT3yDoPeu/z9SP0A9fH1qv/f8tlwZNHKsBEi7z48MtYECyiL7ib/XYSMHjq1RZloT6WgpksxMS7QZKwAGzaF8EdvC+G2224NX//615XeFnZqPXm0zgTdwwAr+33oQx8KixSf0Urmzxtt0BoA9WYATIp34+uv9PebMEC3y0GZuJhP/UNKUIZkPcwx1PsnGudo/hxhX1j/79J2wL3yzWIm7+e0zc9rpZ5nUou/ja2WtD8+hiheJLAjE/MZwBa9O1vkIFUl6CgGzAUQBwOqdhg/Apx94uLbBdPu47TK86nbQvjsWyfCq9//yXDSSSfZrn8LNDOAvQFSUGBHv64JXmzow1LN7YKVmgLoYHJ+9scZfqzxV8YB+HO2/gQUyOJP1PdmxA6Rs5bZIC8lnXQVA2L+U3vF/EvHyI4ps9l0tUkNVu5MsMHHej67vxepn9NoP6+VluVZvDSEFat4qgjz59FKSFpgJUZ64n9ZxL+IrE/bseWbvWsUaynC4fLVIWzeEsJ/e8WUxQPcfvvt4Uc/+lEKCiyGwpbkwuKCuZ+lmdvJ/GlsvAkQMwAA+He1GQAeF1DNImDLUefaP6WokAR9ggGYv/YUmcK1tC/0I/MH0Y1Ru/74NP5OpH4ev6tfq0wr8xy3UoQ9nu9b9fXLzMYMYB/ESO9eRdUn08VuYcAsNFUq9wjsKrdqXpJwuFAm4XXrQzj3nBCef9K+8JnPfMZmBtx1111ppcCaiGvdDRj/5Zdfbub+J554onUFVymp1gwA1/5h+FgAEAZ87RDueTBgXqTTjdx1mGn7tfpm/mA66T4GMs1/apeUhyfCyLMaWE60+40va8GgcqjK9/L/tVKQUnbv938mPH/zqWLns1nx0R5zKb40DaSE4WxAl6E7/ekuBiq/iQtralVOiBtvIVNEF2m2yGpNDfyll4Xw5H3fDv/4j/9oMwPuf+CBNDOgcZTO+oRr/O973/uM8bM/QyfgjDWH8qA+Z/pxjJBfoy3uHuCa+f/dQOz8wumGB//xkM0l9/mETpK4kaA3MJAx/8nHzfQ/8qz+8vlX4jCigJW3+vJ/PGL8fLaUF63MM7l4QfiN1TV2/JqBmSkYf6T92xQeL3JG7nShaxhQdFYZZAIb2ljuBsCmq/8NuH2g34sVC7BEvuGVEgL+yytD+PmPfj5s3LhR1xfbhkEsPpPiAcqQ39QfgvtYb+GP//iPw2/+5m82VcZcHlof+f8px9cHQfMnMBBwhm/nupbPGHCSkGv/6n8mFDgZVooFgEDVEZmVbKMqf4jSEnQXA4oPmkTr3xsO7j8Ujru4v5k/uPSe1128tqZ2Hymk8Tml1/of3+PcYfz008MOG9w2za9ODACDGUl+xEZy9jyUQJJiXq0Xm9LuYoDvkgkBRmhpjYiwM3/+4gawWAD+FAdWiiQgcLmmmj+9NoT3/OxE+N0//RObe84qgUwPTEGBxfFZmZMV/J588snwh3/4hw1t21tZzlz/n6ZvG88A8PJg+j4F0IIAM4oTWwTi89z/j+XJSEemRJgFYDazo9ea0s5gQCv8Te7ToWA/+fvv/P7k1zTX/8Wdqbu9tQyKABAz+Pgc7NX6X4nZON/kWefrQVu6C0Y+C2ABYCB7CcZk0iCeBWvdvW2BgBnRHZVQwBreDqah1RH6PF+UQtxxF7FsNIGjp24eCa/avs80VawArEB37rnnmiCQLAER4uqcYuY/cvhwuFOxFH/0R38Urrnmmjq5O3Nro+KCHCAPrsy7j9//k4dr9AusA7GbwJg/GdztRN+L40/MgkiGBN3FALRf8/tN698f9u05FJZfEpywRwSju62cS+2DIABoeBmQxudc9P+WocqP369Mxwub/6vuJ5/ZAqtUmC51GwPZtzELAGNYR8z82S8Ai4D3iAaaC5EnaJRj6fKp8JM7Qrjx8w8F/NNsGMRxukxLWAQSVMcATB8zP8F83/zmN8N73/vecOONN1bP3OGr8xTVt3S8RPfNrK8+Yr79iIq6ud8ZP8tBxLZB61i2Xaw6icuYZcwf/oKVyq1VTXTEDuNl8Kpzxr9H3+hAOPT0/vC+Pwiv/q0vhP+ld3WNkA/j532Lgqjr9u07FGm4jyJPecbPK9Pxy3eEE0q+vYLfF5Oxrf8JcRBKWRXKIoC86CJNTHk6gwERVzQsW7iD7q9vhtqWuwF0b5R1Apw6F2sVRUD8sQLMVxGL5MLFJfDOl4bwho/fFJYvX24xADA4FwKSJaCEW2f6+/btCyyn/M///M/hD97znrBbJv9egq2rppk/DN7Bl/7NU93LLQLRueU34RLmntEKLyT2xrKzkAkJHgyYZ0onbcWA6L1N7YPxl9YD+ev/tT/8zNVBIzln9nz5goyhrY1tSeH9LgD4MCSNz0FOrf/17tkzb/+F8Heltf8LMgG3+9lSsqAUKR4mwgD2Zug0QZcxwLcQ8TUBTd8oW75zmvnPrXkwBQj/PIQAKXjMDFgiOv/uSxeE/+/6L4UVK1bYjIBjx46F0047LaxZo4jBIQW0/ImjR43JM13yxz/+cbjppptszf5eRQlLAAPTWv6ITPvTNMKvI/ub/E/eyuHvtMJKin8qBQKEhATtxwC8XAKXM/7Jg+qXh8I3vhLCxb+VG2/4iv3OK6uichBeio/jw6wyrfrSs108/RlhXSNR4CYQ+kwANEtaYcE8Hs2LQJCgZzAAdZ5Ewqf7i/A2GfhX7X0sGlyfG3eALP5hgdJnnHg4XLAlmCvgoYceCgcOHLBI9lNPPdVmCszHZDDg4Fo+Efys1Pfwww+Hu+++O7Bo0rXXXhvAS6/DUn1PmLxp9xrj49FMEQIAbQng6FOS14UC4/sWUJy9JYHDyA42BZBr9MUY3A0QX0vnrcMAjB///n59B4L7DsvUfzT84JYQ3veZcN5nbgm36+JxWX2u8ZM6j/Fzv5dl7a+kstf1U+v9Q9Rrs+fxlLx+Xi21ayzs0jig8QNsLCOXAIyFAW6CAMWKGtjUHp2af8+r53+CjmLATKzi0hYIqJrjqH+z4pR7bYu0zT0IRvT1aXEFwBSwAkwoiPhNF4Zw8/0j5s/+1x98P/yHN705nHPOObZxEC6B47Rm/aAIAjB7P2D4u3fvDo899pgx/gcffDBwwPTvu+8+aciN47rI92hHnk3aFGxexuBdw6ces/xkzN6//4z68+EeSQhlmTILAH1yFIszgBCQP2hX0s9cMACvFp3G8scKfpj5tXvfnl2T4c4fhvCNG8Pv/Ornw4eUiYx8KFIOPkJlqktl1/jfd9CvAoCPCtL4nA9Q63+9e2XlNEeT6B9o/JiTCPABtewu5+f6b8KAOANgFIQ+JsqRN5kbCdqOgTwGIKsJLYxAQFuYBeGNb9k4EPDlACMwIUBFo+ATD/CrL5wK//3LIezZu8+C284888xwxRVXGCM8+eSTw+bNm23a4LjMB/0QHwCTBzDnA0zVw7qxa9cuC+KD8RPMt3fv3vDII49U1fQnXXKyEnr7hyWA0fLx8LEEsAsBWATk1cnDw/0tZpj/7QaKQiwEMP4jyNcBcNoQ3UunTWCAPspHE97R9sPTSiUA6P/uxyfDvXeG8PWvhlve9pdB0ToGpc7cLBHICumXBC6VIMLAHR8L147ixHXtMLo3+6k6G1o/nWxE1iOEANMo6YAu4WelmDDAdYFN+4EQJGHA8NHWH+E4jwGQtgX4LADcOO4OiMy7pUz1f2PmbyZiZUcAYDlYGMU8dYdzt4RwsqaR3aO1RAAC3q666qpw/vnnh1e/+tVh/fr1gQWDTjjhBDuwCnRbGHAm7xr9pDjdhI5Dhw6ZGwPmDtNnxz0YPnP1uYZ5/4YbbjDffult+/uX7waYYCeZ3mX28YyXY+0pn+pn2e3HBYXSlZj564rRBwrMIFYSkgXAsdJEytgWfTVtX/RY0fwoZJPHjobHHg7hgbtDuOOucOz1/yNs1NbvEOeSNFv6spyjFM6WKktZHv73FfSjABBr+PE5iK/1v949nvHnwvot4aLmmD9VAOoz5utTpzNJXy4BYzD0scwiYP4+od4Gu6r2LWqNUiAEcGSWAp0laCUGhG8ELse5fQu0fgc0tLmDCwGUBGNgQ0mYx89dQEBgXF8I3/3ud+xYv35DuOyyy/IAwQ0bNljgIMGDLCKEQABgHXALgad2o4EfZ+w84szdzjMGzzU0eg7M+Ae13r4zeqL1PY4BZg/T/8EPfhBuUvR+r0XuN4CSullXCvVm3mdoOquo80T8/fNssWnR1wCIpwCSEQtAgiYw4B9F45exjYkf4WqkRHcnjhwNjz4UwiP3h3Dfj0P4nzebn1//wuhbPlvGxL2gJtrQf4/0owDQTiyPEr09Z0B7tG4Ew1dpFvCTodokfmqgYyIEcD3rc7H0b9OAyOcCAecUlqC1GOA7RGDTtMyME12c/dQtAGYiVvZj+qTQezTDeZIB56srHBFt37r6cJkVgJLdDE4gnC92s3379nDeeeeFrVu3mjUAAYDVBFlDwNcUIMVCQOwACw1xuEDgaan8kk/eTfXMQjisBXbQ4kmPKhqfe/4fBs9/z+OmfRj9vffeG773ve/JbXGvhAL5UIcEKpcAJnYhngHgUwAdHQSDxpC7A1zjhzHZ2McKyBjPIKYBZgHgXkVhnnfoU+fVzvQx7WugmW+fcX1EgX2T4XFp/DD/h+4T83/A/PwfyVAXEd8cmSDbC/bzeikPev68kH45ybhSvzS36Xb6CKqWll3ztb2brskfNCGAACc6JxfpkAQICiACBggILnFk9yAAQEwIchuiCwOJKJSQ1OxvRHDdAmAEubny3INAsJ9DpQbIJyQWQLw2vOq8EP7gf3vO6ukdd9wR7rrrThMOWIBm27btYcuWLSYMHH/88RYrwAqDCAAuBMD0OcaQOgRcj5k+Wj3MHgGA6xxo8qRo+PjuYfJ33nmnnWPSx7SfIIRTtAcAaLXvKooxOlISEisZfeV3z3HnMwDcCuAWAJi/CQUZKXYLQL4fQF5COjEMOK91ps+gQxDlP+clM/9+rdz72CMhPPFoCLsfC3JFhb942+fDr1kRM3/gAV7wzLvFrrSijGI1tTBXvwkAMbOOz0FJrf8NoSufldPQUzUymx8ZQqHOae4A15gyZs9jrhGwzrQJA9EncUXUhQEkWycQFjdAASVin1wG4GIOYAQZIa05YGKBA9q/A0wD7Q83wGGlMIjTTmChoIWzatBuGTh6dMLiBYgZqAZLly41ywBp5UwCmDua/P79+8NRmfMPHjo4a73V6hj2a5XbgjsfBy+ZvJWjKNf28ytwl6kwSr/wB90CYOPfo/5138d6Pr6jQob2FMQxwGDySo3RR0yf2B1ZTCdZV0LxNXt2lxj/EztN87/vzZ8JP6mHnfjWwyI8xL5SlpK32jWuDwRE3GYg3mcuL3Hon/5r+K25FFDzWYt0zrR+Y/LeFyssAmYZyKwCLhhYofpMts6A/sRCgVeIUDCCkAG4QEDKQf9NUI4B4Ys5wODNA/8IEgK3RqAdyeVP1fsXM/1a+TAbjyp8HIbx4lMPhS/+a62cjV1HS0+aemM4azT3Geumn2APgMrJC8QH1IJcOLS+JTNQJdjaIZEQwH2zAJC3TsGV5QzEf5eeYfjZUcb0dc1m7CCsi1ZKGDiiZPfjJca/RwLAkzp27wvHPvjX4WU33x9uazFaKgUCJ7CVgkOLq21PccMgAPgHqpbG1xaedU54QYkpRLbcVuDdI8oxAxqT90IzZu9/cRGgGfgYyPMqXwwzLAV6JjcpRhlzawFEJD7I468e5R+mU9ZksJUANQTiZYGbwMEENMm/WfZ8LBC4WRizMdohzOKSM0LLBIAmmpweaQADWGvKFEi+Id69CCoXAYpuRafqJDZNOGLqZnL0/zC1jCQPhQWAQQOTBzJmz2nO8MEHR8T0TRE6omj+yXBYcdZo+3u1ci+M/ykZUXfJ3L/zCfPzf1QPOpEjjUeo//f73IuvxXl1a3ChHwUAPpR/uNnSxr+cmZcaf6zQEy4IeGYEArdMmY9QWvyxTPskquiYOr/HCFggIYNBxAjBYASNNft8No+daS4Cz28BhlzQM57PHJZObHQrJzJc43B06nSYAJzlwlbjLw7zB7WkUzVIB5/ImQYCwFL9j6cENl5reqJTGNiyrGSxy2cBqGIPy2Gap7sAKoXAsvZZv2C8M6bVAYyR6WGfIWSCgP475BYAv9CvqQ+IKoyeVzLziO7lAwcax5EJBDk9ho6J8U9Mhn1i9PsVmoKf/ymYP0KArmmpCebzvyZ7GDMfhUDUvBE6LQzxc/F54QL6IWPU43q+uXyEtsK/fj989QWXLHlOybRE32mm3zTQxFgg8HgBf0s6vnU7rAQSCo5lKgcb1VikuqsgMhPGzczPI6uBaxkmW0SfPB9canNuLXATJQIBY2hQgferAlD2nBhVuV9xyQMA/RE0/3qMgFgAggXhAScsVVTykyMW6FdRbPrbQxhYIWMR36sWKKaytBdYlqFSEDRhwce1S4H5UsCMY8YcTA+IxqcJ5c7DSnd799etprQ3A4SYagDdQWK2QePvXYXpu7YvhDJmYPgHYPqkEgA0WSXsxdz/RLjvT28Mb5a5/0eqji/lX4vUEZhTxmpNKnjNKLLyelrwsd7NFve23m1lZ1p25OLfCFdP/cvEVaU+04r+0oKGu5DgKY5qIyaZpcAtCKWL4j5i/FgPpnwMqA1YADg88IhmudXALQY22MibDeTYWmAUzP2RVjkl9DmILmABsfdlGAhvRpRrEK0Cb1uP8Vc+jtZ4wSkh/PO9/h0rc6T/vYKBVVrOGaglBLgFoJSr/BfXAEquuQjm8a0zwT23AHBNfc/GIf1QYAzSFVjGMbSo18YdbYK3cmRQyfD9PZym5EKO8ju94XmXoo0+uUBQ0vYPy/iiiSrhoBbxixn/gadGwuOPTR3bfyD8rpbvvVYl0iCIFBA1qnQh+wWJTtjj87JMDfzxMvzjeNkNFNHdrFmP624july7fzw6z8JDmtu8cBGX/Nt2uXWFq8/6Hs22AecSuS4cg8BAeCAm2QCz7Jk7wepQHiAXCPjjBIlUI7HMSgC6qKyPISdYTnT0LmZdaeydIPDxFEB/ujJQzM3G3IeZbFztOVPayxhgEyCHOMLfDGu6UWkBIC+WoLFsSHIOb+Ob2/MI6YyzWCC3CuiHEUmmf5qbDn7WK+MNukJ7dJj5XqfADGZfulyKs+Hc6Q7vrneMmT73LDaCcrVmhf7C+JmBip8fxv+0hAATAHSOJeDx3VOY+9+gB5DY50KI/Nnsa6m0uQHltaqsubWkwNNRbyuQu/+z+Mcm9fP4rUa/+c/hv134gsmrfHDHN/vzXH3R3lSahpncIsGg0lqABlzWdbPBai+uUelaiw32TFPOrQP94i7gBSFemgVggpLey/3/vJ8JSsW1cpg8BB7wRYBK/0q/MAe/b/RS3wJGwGaExAEk6H0MbFhWv411LQDqG3lvsn6if+4GoNhYCMhnA6hj5Aw1Hmc8UI1scb2dQMOzduRCc1afjSE/15gyAUbjyBk+t3x8cQ4wndnve3miTQjRMHrNVC1j/FqI0kz/T+uxJ3fm5v77VAgjiIMGghjDsNJmoRVlNFt3V54bFhJUdNRMyg3w/of/Z7hq3Qb1qIHGjsYKWLEBnAkFU7rgaqtZAqT6+KpaEC3XXOiqbsIz1wKSu0ataSvibj0bO5ARMov65yUgRLRdYOswYCUpTkMw+Wua/TSB19Nm7tV1FwZgDmOqAgybrARtFLg5OQUClvDR67/1mDxCnq8TYJp/9jL0gUkNKeRusxLpfP444gD9TOBjCB6Wj62sg3DNhQDLTD/l6JQlgHGQ1elMmnZ4m4xu0FaIpLdZp4yjmsB4E+QWSWXXIGIa3yExeRj/UZ1j8n9aJv+DurZPQX4H9f+A/t/1cPj47/5d+AOVAOVqJ3WmfBAw8NBOJPYt8l7+K+GnvvBH4e/XHD/oQkDlJ1Kfp+sbMFgl9Zv6IqLDcPCZCDD9UaibBj6CglsGjGAgACAMkCp6arpAnXcLMmKWa/20Q++XayY6N62ssTHvTB4C34j/P8bCwjQCY3T0xXlpC+OSXm8MX13d+kKNb8m9YxpXI/QThozF82Bd09iJwftjPgZVoDHaLJONKTRxxhZAmme2K3P7ycYJ4zhm+hQat8Omz3pNGVPPBRi/7ml23/5mVgS9/+TEVNDy/MboTQAQyUAA4CDAT6tUm98fc78i/lnM57UqQv8KvTCIQXqZK4DcxojCXGvs8PM1umyHW9Fj1bF4xBc+E+772deHzcu0Bzi7usW+vyLNNYYQdR1XrP3Z2RhGtfpiy2FnrBP+AtkgxkJgkAkEPiXRgpggVoy7rEvllgFdMstApzSXUgunf3kHURVs7hbDgLaiw4ltLAj4600/XPMMQs43jN2gnrnymrsA/L5/W6wARJgn6G0M+CJAvp5Dtda6RYd73i/MoKY+wn+/NqE+Ni4GOGpWABgi44LxFQUaGDNlHNFXAR9T8DQdFryqZ1nLwk3zDQkFjAnAeWSW1mT63g6eycYOwks+hrguyP+X6MXkxCHRzczawW1pEwhDMHmYfsz4j+gRzP9akdqsAVgBDsiYcNOd4d3XfCNcb+UXY/5Z1pQUwUDWs4pk7es89Pii5J18k5I4n7dyXXjotDNC2LBJ+7krEpgpXNXABziEXbtN5j5f8nKvWXBGwfNOfEwJ4EJmtfc8eerjTW3xa2RvDfjLMMBBkxMwncLwOVwYgFDkJk4IDAQLAQGCB3BOGe0EtROi5tqLaS4ZAbNqeQ/dz2dYFGsLzJ/Ff/xb47s0Ai/0OLP37455GOCZGJxheIR5fC+d9wcG7Jtm3bnSAkA/QOOnlxt9oL+ou3ON/jKuGQGlpYF9DNEXMyHAmKs4IDCarRDofbh0tfTrmrgJBOKcgAnbpdPpX1qRdcT8Yva/Ulotq4dOy8G4VmqCSWa1yJm9F0j7M8juGfNH29c7w+zZBwMTf8z4wQUmfvaVYoqfVq0Oh/QfrT+b2qeJfl0DtXywoQZLG9iX5oPCdfzDVuNAnmfeK/8wbP7Ufwp3730yjK1UxPZCtgTVE1gEXBhwQg7GjAhwEoHF3UX/bXZd9J9TyuBZ0mpMu/Ia/+N6vTgWJQFyIUHnljd7SxPGeTb7b5mb/nEUMvBVoGkPGTUsEwYiF4FZBSB4ECSBEavs3K/NSSigTRA2Ha7N5ARN7XSiReDVMSewJVMuzSkCEH1Ml9BNiDwEDOD78d8Zv18jdeGNcyDOw38Ipa/7z/8EvY2Bat/Kmbz5/DUcSAGnCXY/6y/Qj9pCAA/Zo+oYaNnqpy4E5JaArNNl2coS7/dlFyv+MCawhuVjg/sw+gisXtfyxZUdfAzZ/5lM37ORTmhRs6Py42sri5IAoGJg8AgBxuglsxDtj7/fUgQBHXfvNF//B1REs5QKIpCgAAaGTQCohhKGm3e0+JxONPb6/xFO+cCrwnUnbwk7lq2SV1tCOtPsjVlL246ZdsyUneg7M46Zbnzu+eKG+TPxNfJVCg9ldes+RMXL5p6vtUGKYcDKyPhtLsBwQ/f9ubjO4udOsWCyKpCoNwhK2awCjXr8FmVugoyQ+fRCr9AQ4IIBF/3cPkmWy8d4lromU0bcnKgpjQkXzN+kIW+3V1w/rWT+OVFX8R7oRQluBfD+4P+9ieRxxmDnlf4hLiboCwzQB2waoLoon5H/Dnxv85pxT9f9m5eYf2m85pYAWc4QLEbHsQLAWJXmfTbrvxYzEJPs7LyMkWe1O4P31Bvlaf5MNEb8ntfrqV/P2yXbvLsAPM3y8A4wcxeOtf+UWcow7WMxg/FjASDAj3sE/3ENv78EgSN/9vVwqVywrvWDTR/oeStqnESYr5Gj+OVWllW81i7kjHtTF6rv2SrpAGKL1vnGWF7yfa8I/37VrnD18lUjYZ7Md/M1PudJ4YWpWqS3Bvn/ae/cYy3JrrNe093T8yIzdvwgw3g8sYOFNcYYHAxO4iBL/AFEDhEykSECAeKNIAiJyKCgsRlF4iEeiolIIitCKDEIkIVNEiXIOBoJYiXYhFjBMZZIrHE8jAHHzviRycz0tFm/deqr/s7qvevUuffc7ntv19Y9Z73X3rVr7bV37apTl4mWiVSJn6OzW2DbfLwj19wWuBYDDJ70G4t0L/j2SdwX7ckffWKD32yL8wJXfQxCdgy02HBd2nzkZwzYTs/kEqM9s5+2/KNRWzsDhN6YfKZbBZ2EliufOCAlrV5S48Ap2uoH30piLFDiwLPsN8ZJ2vnEf6QjJTfonABCBo+PTwBK+OJlX4+HrPPgvzEfG7aCU9oDnF8lTCb3C8zVjYIeW/2CebuOq/4499jnwjzsQ+XaTgBjE4fEZ0705jh5YZkw+Am5NcBCAY8ElVo2Qo2VHAuSjcEX2hubAPiaLdQxltQt+sFj0tctMa72GSvkFxbFPvFz/Pm0f8h4sU8uBsK9XfV/X9RExuJD9+wq6CzRW+IHnUP62lXnqZArMk5FY3Y0gpNDYNyUEm+b+uGo+N++661feecL7hvedkeMVRYBl6MHSezTFXXQuUMQLdWE7j8hYvuPwoSbMGxVcuId6Ryq41jLyXnky6dP3OnH6vOJZtK3+lS3dgw0GcHPhUTUxUP+We+xdgg4ZUog4Tx//jPeQ8znBUKcUAeqcORgwemFgNOvDIKEl78jBpcOeDRYpd5wVxsyce635Y9LTf5ArLmS0eTPJE+iR8ZEz8QALz9B6xkANU1Qi4MvqnskWOGZ6IG82o9Q1Fii0XlOxxDOOIiQB8ZfvucmdRgSESu56RX4dDuAMXchxsF0RT3iGOVuQGaEqGQcK9MWPbtZulXA2DK9aSEx8nAle/BuKUEpG7WN+/rxgJ8mfcU/Y0JjhQWArvjhs+3PfX5e7APNQ37P8MDfM8Pz//QDw9s+9uTwxNgceohPLXSjSksu2VIoH4JL7Vp6+DiEn5bvE+WN4XqidRzauTqaKQ18Dh667ivf+d7hneH0kXe9dXj07nuGPxoLgIu3x6Su5wKALAAoWhSAc0WdySKCnisA3a9H5gsEcO0kIKNMEzSTsdGJhy/Jp8k+k0mqZp3OV37Yatuor2SWE//I8wXLpeBlnUeKmjhVnKmcjAPhXqWvVDLJxWVBPghFwhoT3XUQHyrSEQ0ckxe3H3Krf7yPmaur403+TPCa6MH1EGAme6ORMUHo+Y8JksJCtpaz2wOc21qYAFnoMW5ZBBC9vApDuwCMm4yBgLInji6GDjAXAWFyKZaXFy4Qv+NAx08WTchly0ETc4XYaLLeONjxLf+hJl9un9uYvKFvM+lzDBoHTPTQuSiOY2EHoE78udUfVfCkv1/1f+HX85/3fFfUykBWzwrSZp/0oY9a5FPwqH5kJz+C4p85eKRUfsaOkpPE1NOCHIrLoKseQThOfYhzfF+IhcAjgT/69/7w8Jp77hi+6967hzcwEfNhwmVQ50Qa+IVL8X/g41/B+sIgxkoWbbVr8oXZWyBooSA/mvi1c5CJZ+N2U7e1erqy52ijZAIace0mpA7t5ThGGRclOpZ8ihlZ9MixFwM0IrMiPRGVkXjyioWf+sZtg6RJhHYLIahmkS6zLp2RkIcNo6SMiX+/yZ9NBL/C8aSnhKcrn+vo6B8mgnr1T7P4n066+hfMdq5fZ6cHIkNo3HLuGWac65zII24uj+NOuwCMtXw3lqCONGjGmhYBz+I3/Yw/EyR2VXJCHu+9i5eLZSbvsjBA7raTvhCb8F1Xi+Txv5RGc8IP7ds8ya9J3yFDGFoP+hHTTPj5tD8w+uM5Jv74xNX+dNX/kf81vCN+3vfBTQ1UdKySTR09RAum4vjEPAIi/4JHcHE6TW6FBcAhe56AYngrEK787f8wfCzoPx2f2//SNw5vefiB4dvuvmt4/aXfiHVAaPK5GFtm06Qac90lJtmyKAj7rR2D58czo4nYdwV0RT8tCGhRFOlQl4ovDnJBYrK6KEAuHvZaELBll7a0m0/4AObCIHrkeIsBaoruDH/T1TtX8UkzaQee/yp5vCpiFlXheQOKdJtwo7LP99zkT7KjP3JrN5q9hYeMBAiP/+TMpMAigUlCBTsvn2PTYy2nvgdygh9bmYu4CD3OM7cAcxEQsZfr2YDEgH4FwC4AJeMFJGKk9aJM4orxhjo4C9YcX9NugC9ox10tLpxz0RxjhKIXdW2oa9+5CJbNNfaEMY5ijPGvdik8vc8x0WYmcIriGr5w2gmduwChy8Sf4yP4TPZM/PQRW/3IWAT82lPDL/3gh4a325b/poJwJWSEPlIclx5QeDHdi5SPHtzL2VlTPmsLAE4SaV4nS3gL3qhzwRCh/mdiRfvegP8+Ps/GYuBtD98/vPauO4Y3xmT5EJN1TpwBeRkIA1wTKdZchV+McaiFARM3Bb5v18PT1QeTsCZ9kodKb2GAPOsM38BseNiBY88ouxI4flX0oKAWA2ozOgx2aOkcf2dAtRaYE71P9kV+QLJO/kpyJDIlPiXGKUmOiVBy+Lr6z4QZtmn/FU7qeByB0XfPeGo74HGsrg7XAx//P8Pwmt+yOf9M3pz/qxdviysB7oVfGy+cc8Yja1TOO+c3daMpTKRhutnTjniBQKeObTIbEz+F2Ms8ET4vhNPppTr16n6iNwuCfAEPvyYQPxcJMQNnUokKotBu8k7GbJhRD22l+KRPGxX7LHBY0GrbX5M9cuH8RPa5qIrt/ueeuy1gPCAYPCb/8ed9744qFPWbxkQzsuJrcCSPBXp14PSQ9eHrkP6OddD7Gp+1BcA+x8dJiRDPIrwFUUBPMmjhggRTDOcsjksuqPruHBcD7w8L9rDvigXBm1kQ3Hl5+CMxQV/WggCPJArKZhLfXhiwW/BMfBj8vEGMws/YSRxUqlIXBfCZpLUw6C0KVLcSETbwZJeJLOvf8HKhEjSJjpLbnjHAlbSuWwyMthvt0/2tyZ9j1vZ+Jr+gNbmTzJDzyYWA6IgK6aLDZEAiZSeAkhNBzgwbGn98Ph8PRa3l7PQA54yxxpPvOWEmvokXHQVjiE2rPPUxmTO8I1wypsDDRQRH8ENGzKBPIk7foUD8UKYxGDx0hrgyp2iMJp7PvLCij0/G1zMhB89ZPflXeQsmDYjCbS1il0L7fYcqYzJkim9oTfoZ68QzsR06OQ5CTvvzgb/AcwcgJn9t/z/77OYngfHmv2d/7vHh0ciJH4hqORIvY2vUwhSFt6k47rqOS9l1xTsurPVU+rj+b6o9cbeWk+kB9S1B+VQE/48F/I/x+UevuX946K2vG771xV81PBzvgn+dFgQkjJyQY5BpYt7sFkBzBYBCJIv4sCigsP2eC/sY773dgrQL3bpb4IsCBrQnltaCIFQyaaFHcqI+EgR+lcjwk1uXwdMzA/jKNgZPbaHtp6kw+esFP+yEkug8EXJ8m0n8WhIkQWYi5Iov8GnbHxwfYZOLioBXmBEiQeMTmcpnfp37t5Gg13Jqe4B/S7tV7PwRF34bAD3OMfyc1CPmKTFUNguCYIKTFPLXAKNc4wc2scT4x0+Ol7E+jTn4OLs2lsgN8YkQU8m1QNptYk78o0z62M5N/Cx0td2fV/0x8V+JfMRV/xe+NPxSPC/1F8MFvcjeRh56wPGoAju5ojoEqUk40PEqgz73RZPUWTpQThrDRidP+Bzk+Nyu6iJ3XkufwGXsUhx3v8iqH9fNOTTuf30yPrzpKkssCF7xza8YXv3Se4dXvfie4U333DV8HQIm6BhbW4sCkgA8CkkiFwjBY1FAzTxlq0UBEzTKmsyxoXAFw4OErNiB+d6ejWh6p4EvCEgsWpBciqOlDVoMYKar/kxQIVMyI0HVHQK1JX2egujzq35d5ZCAlcS3El8c+xaNXkz+9BULIfpTV1Q++Sceiiws8E1hh+CLcW6e5rdR57vwVGf8T7csn4tvPvEjsOHzyVn+9cJRlR/Axyu58hP/qWPY8c96R6tjgP8d97AzJuKcPR9jilf4cjHOuWeIEUOMIy3sGLehsrkgBxnLOBzz+QDNhGk/yqcJP2gNDS0GUEm5+YPHmKNcDUfEb6uoXblwQDf0wKdP0LrSxz4XtaMcfOKFHmObeCbWtcPF8TPZo8tVP6/85b7/45/NN/q9e+OhOfnraARR9aNwXDpAx0f3XTvJjwNrfU47fpw6boqt4uymVH4GKuXkMsQECUjGLMVxyRUMblN13Q7ZhVgMPM4n8A/G5wficzEWBV9TdwmCv/WTQSZlTczXdgpiIFJ7fFgAxK3KXBSwLcgvEZh4uYVAYTK+EgOZBYGuJnyXwHcI4DOZKyGhT2IhATEpsp1JaS0Gsp7QyQVLQN0u4JkB/NAmim5jbKiT+85EGG3PyTv6wq+KOD6SXCbHwDlGJcTe5I+cCR1d7Orkz7Zr+gy/6S/6nPJpve9sQ57W79YEns0fG/xrcQpzMr//vuEzTzyVP+nChis+Jv4QZxmjbms8IZBc48pzkuPoooN+9HIWcHReEshDwWSRwKIA+GB8WCi8PD7HKk8+db05MXMl4jZjN1rAOaclOR5CRkNzoh1jWx6SHwSTJwsJ3pWV4zRwxpgKE6zGZP7PgBBA45OicZ+xHLQeNkTGZO5FNhnTo0zxrYlfi1/sFOfZ/tDP2I16tdVPDHO85A62+9nd0r1+Jn/b8n/M2jG2fDp3aqVgVt3QhyUdoONSl29o4S095zmOXaWdB34uSx1gZ+UgOVkMF5004XOQY3O7qovcedBHKa024YfAVJJzXG1S3VlnLAg+Ex8WAyoviOcIvj53CcZbB5FbLpMIWjsFGJGMYjxmstj8C9JIFDFRXxxTMYM4E1i5fcBEzPY9xXcImOioS4sE6tYVvXYGtBggWeVEH3UoAUHDxw+24LQxdyqoLPj4o01MzloYcFbQ3adwVaIiX0AlTKAmfvSgNdGDKwmKt0XH2dOVUE78Qc9N/nnrNnyqH7K+sPnE/1ULDwY1WXOV7UW0rrynSTv69gtxvLoaxx4dwqZOe3EEWa47ExLE5O9FenYmcnyhI5lgREOzYOs5inHDR/pUjc6TgTwZ0HWDHOLR96zstSF/RaC/Iz57Lwo+/tnNbRrONRVwHhWPWkTCh0ccqDBOiJPaKBpvankwHBTMi6PAFwPEI0V1AvHr9DTthZ70sRE+wahIkz5yTfzINR5aEz+6HD8LEyZ+xT/jQ1f98NnyL0/5c7h5eAHHI5kgbs9KqW2HrryzcixTO8v6dOKfBUTJA+g4ba+08xyvei1fLX0lIGSOuz/hbl/1q61sBNGnuB40OeUKuwR+6yAeMHwwJuj84byu3nWlIMiES9EETE/p9sHWg4ZRoyZ37RCQlLjCp+Bfi4Gc2COS5BOoiZ0kxUdX/TnBh9yTl2T41Q4CuIp0RQOdp+TmcnDxSWwsMoAUT9LokMQoJDWSH3BKhiHfNflzNUdSxVfeUgg6r5DCF5M/b2VFxtURSZJE+lQsut7+vkvBC+WZwjmJB84+FSqPRTd+0q6ysXoiPp8F2VHCNCd1qUVv5BiJVh2sUMc+RfqCtEmlzpmVRs/15aNlzyIgejuLcO0YsCh4WXx+a3xenhqdr3/y7cNwX1jz+m+9+IvF9O2xxcarwTOuo5UsmIlN4p/xQWzPjQ+qQ1/xrHEDX2MV3BcEGsvYKMbR6RViWrsCin0tbLGfYj30oDUOiGEtcH27Px/yCxl63OvXVf9vXBk+Gq9NfyTa4U9NhNcs4XkqwgURSK/i0gE6jh6lZdfSc57j+Kh0i1d1oCsPuzNVzvICgI6OIZAF6DjMHj0ncz+u57j8egJyXHL3JR5+KK7vuPQE0RXuejUhTnQsCl7ArYPbbht+28teONwfSeIhnFC0KADPyXr0SKLR5E1tunWgBQF0azFAAlKi88UA/jMhjn6V1ND3CX7yGf6R8aEk7kc78pB5UoTuFSU65DEHTwlQ+rrKUQIF1snfFwKZMCPVwOslRumzJZrvRw9dUgS2tAf//EQK+L5fGIYf/x9qTRN+Krjvi8+Pxyd+iLYVM0GeyTKe4antogX9rE8xPWlHWBkO6vrQ8gNedeGpaCEAVOFZgt8Zn98en98dn7viE9P3pvy1b4rtg5cHIxYAl8ZFAAtjYphnbpj4M+YD9v5HSMpD1+NbY4NafAxAuwya0op/Xxygo8kefGscRNxlHBKL8Vky8aOfi1m/6mccQEdc637/r3w+7/f/86hy6jOqpw1RwstUhAsikF7FpQN0HD1Ky66l5zzH8VHpFq/qQFcedmeunPUFAB2uQQ90vMqcdrxlU3mu77gnIMfd3nFsVVzfcemjJ1zQ9ZBHutkqopl6KCS4y3Hr4HV+6yAm68tMQnmlPnrUgkAJxhcEmqg90eGcBEjio9SdgbwSCt9s48tX1hdH4s8LYLu1wFB7dMQh18IAXRXx8FkLx+ZFk7x4oicY+toWbV0ZafJn+zP1Qp8rI78q8sn/ubjsJ7myG0BbNPknHvQnPjMM//A/qTVbkC14Jv3H4vNz8aFwhGE1QXinsTTORLeZdnZnY1zx7I5aPK/bfWPX0pc/XwCIlzDi66GIDxbPvy8+r/yGrx3u/XNv2qjcEUsDxglX9uwC3BE1aBzw/0GITWh0WBhrcQw/x0IZE3hFl3GgoviGdhxaYxTcbaBViD+KFgBTrMe0VSd+4jJvZbBDxWI1aE382BHH073+eMgvaXRjPMSY0E/8HssKr32NLWhOlJo80ZZexaUDdBw9its53dJ1nuPYVbrFqzrQlYfdmSu3ygKAExNDLIsghPAWrLyWPjwbtlu42zuOjUrPFnm1EY3M7VoJrvKkj4+rD9w3vPLPfsPwRnYJXnT38BJ+dUASyAl61MxEFbiSjbbpczEQXvRLg9vHFKrbBJ74sqH4iNbgb1pIjNcImSBHPJNm+FVCy4RoR4y9CrokppoYJXeoxLfFs9ShiX9KiuFXW/6ZGINmcicxavLn54L45cqoueUf/n3y17Y//njy37f+xy3+n49j+eHw+V+inaGxVay1W/yzSNhZzObrDFdY9Wo8Vxpn1UY+1U/VhsittwbEu25hEM5e++4/MbwDZ7oNkGMkvBLXvjjWwlgxzQKAkrcCwlHajYsA+Oh5fGvMaSygo7Ik5qULVPwrvpNHfEb8auIH8oAfpbWwzR2A0CGOseOJ/7SJyf97Hxu+I55V4jaUx61iNrSzVDiytyZx2SBzfcdlB3R94S1d5zmOj0q3eFUHuvKwO5PlPCwA6HgNdqDjVeY0OGVOv8pa+vA8+Tju9sLdx5yt67VsvR50a4Lr8eBTGLDYMAXfE7sEr/7N9w1veeAFw+sjKKaHC0O2SVhRmxJTJrBoUSaukvxSP3iZ/ALmJI9tfNiqVLIjaQqXXxIeUvgf/gAAHmxJREFUvPQR0PkbrvFGPfFbkAm7Fl0Rwd9KiqFLchOPBJdX/nH/QJM/OwCUeuWvBJmT/ugHe7ZHgSRV4ONfvGP4xx+8zX/691Phjm3Tx/EbJaynEhZbpdJbwhtIxFnK0mqPZLua43o6kxXiw/UiYq4rLZ7bYCC/Mm7ZSAbsLgLiH4D9AxbLxDK3AYhP7QLwLID+30fGdtSSC9/QURxjV8eBHnTVAkBjwhskXH5EtxYIyIhhFY934phCLOYDsQGJ3bziBx9jVwtbXfVfvRI/YQ097IlpbmN9+en8ff9fDXfxg79p8reap1hWTAvSBIrrOi49oONpNH65vvCWrvMcx02lW7yqA1152J3Zcl4WAJwADXSg41XmtOOyqTzxBascmuKJx3HZ9WC1rbTs4AsXrLq95Nbit9qYwa0dAt5JcNfl4euUnEheOfkHVDLynQG9xpjEN13tR6LsPTyoZCdd0fKtBKdFQXbAeOTSgUeRrie/jWTz7YlQfF0d+cSPLCf+SCvaFmUhweRfEyRJUZM/uF/1Z5INH5r8yz3/n4pqfiQ+H48PfR7WW0VJTcxKi3+WoMcb7XZa8SyIXLjrwW/FcotX7eQPHyotO8kEp92AR/7g8K0PvnD4U4yB3i4AEzqxWBcBOCNmGUMUjRvFPLy6GIBHUfxrHG64u78zBnNER5CNEUScUnzih66LWsbRs6Hrcc2VP/E8Tv5/Jcz4xYiKYnSsMdnCBWFKr9pBSw/ouHSBbi+8pes8x/FRaXiUym/RlbexPKPf52kBwCnQIAc6XmVOOy6byhNfsMqhKZ50HK92ogU31n175NIVdJ7XBb+X2Hr8aq860L/DdwcigcWUvklkWgxA82R0Jqqw5FcFLAZ4OpqiZIi8txiYEmJEpBKdkqNP9pro8avECL60aNLXQsEXBrpCyqQXqQVdeHmFFDi0ro7Q6U3+2vKnTTzt/yM/Mww//0Q+GPijwfqX8XkiPiQSfQKdipIaDMeh0T8thRhptQf+XPFYcxwb2VaIzHV7cdziux1+KPK/oTbfLVuXD7Ewftk7v2X4fuKTiVy7AEnHMoF3buhWAIYe9yyKKYplLQSAeojP43kaA40MLdnG4/XfmuyRsIhNOMazbmMR0xTiP2M6IAvYVlxz1a+Y/tSvDj/zkx8bHvnZTw3+EmvFqeJBkCocl15WzZcV6QEdN5Wt8SBfLV3nOS5fS3hVB7ry5O/MwkZ4ndljoeEa2EDhld+il/DkT9BtHPeE47jrePvcHzrVxmnXbeGui69eUuvxq33WEb8suCfu8+VqX+8ieNFvGv7YXbfHxU4sCLgaomQiDAtgTt7gUZOS4nSlHzzkvcVA2uJjjE4lPCVI0dSphOoTOXwV5D0ZOvUqKSf/GOaeKD1J8k9OKLsmf/w+/Wxuk/50tPujsXj4b2Gme85chymZ4I6ihLahtmnXdVy6R4XVV/TWzuI6+9i7nceZ41QuPUHnVd1eHPf41d59g1N6til8xx8avvvBlwxviBfvXCTuiUUtfvMdG51FAMa6JZD4eHRaCCRvbJ0WBPAoivvEQ8cn+FTofE2L3fEs5ULWoqx11Z+/YLEtf2Jfk39c+f+beK3v90d1xC9F3jwOhAtuNK/pup1k0gU6LrnqqXRL13nCsRNe4ZzMdR1XO848PG8LAE6IEgdQeOW36CU8+RPEhiJasCYap6XTgxuP2wsBt/f6HJc/eFUfXi+x9fg9P9SDzbO6VcBi4O7bhztIhiQ0YOKhmVf2Ably5wqJ96Zri5QK6sOD8JQUgSRDfJD00m/4AM4VT5hKgujDd1qJtF4l+VU/drpC2mvyvzJ8+D0/O3x3XCnp9ThKILh0vJfc0KNIFyg8Baf8K3p7KsIFEdSzWGnpCmIjvOr2YrjHb9Xv/sG9yM8VFsBf/9DwPRnf0QrfBSCWFed6SLbGOk59IZD0eFSKe68Ynq7Wq1wLBX/WBR7x63ayxy8TOmOAmKboqp8dMSb//AULV/zsfIUek3+sB57/lf83fPjv/sTwt8IES8Wsx6NwQdxTpLuhtmnp9uCcfbVB13nCK99px6XfgpWH3bko53EBwIlRogAKr/wW7TzH5cP9iYceRbRgTVJOS0d2lU6H8eU28CrdsxO/6uNDyQy8ljlZy5fqGUiMeogwks/WbYK8QgrrnJjDIrdG4/LeH5qiIa3FAHySmZKfkp4m+V2LAexbZZr8x6GtK35080op+EqUniTzuQCSZaRB3fOvD/uNv4l+d7iKNDolJVwrkYBTliRH9LCTrSD801qIC9qp+AA67u2uceW0bNBv4a4rn70Y7vGxa/mB73VCZ3nXtw+P3nVpeAOxp10Adpqge4sADHVLYOMlKh1bpFie+I1aFf/S6UGf7NFhEqdo4dub+PXeihrTPPAXO1lc+f+zcEM80zqPwR4+F9vhYvKB/RIf7k/6gj1/PTn6FMnnYJVtLM/J93ldAHB6NIyAwiu/RTvPcfno+WvpwvPk4nhL3+tArlLtKi079Ht4tUF3LinOybCluE8NUF5Z/OqHHxi+jSSJkm4RcLWU9Pi8gLZM+SmcPy+AjnSZ8EmQ2upHpmQoCO+oxROmT/z4yyv/mOh1X/TqV+I+PtujkRJqouQq6epzw/Of/vzwrx/9yXyF83iNlS1TElEz1Vc9WvpA4eg6Xn3I1z5Q56/nS3L3Kd2WzPWEKx57UHruz3Hksp3Dq81c/M7Jqh+1T/BC7Hx9rZ4FgDm3CCC2p//BMXr2W2GT0zhCLW7h1UWB9AR9PGiSlwyoCR/cJ31o4pkCn/9T4W+rZGGsJ/3j/xToyv9voh4fj78enq75GoviRXS1Ey0oPbcT7jotHJ74gvgTLtjiSeZQuOuDn5tynhcAnCQlDqDwym/R8CiyWQrdxvGaVCrt/oW7PTil2lW6Z+v8lh94c0lxiRwdCm3K+nh2IP+hUfkPh3mlFFrTVVNoZ1IM2Hv7II5JikqSSpCeCNGZWxT4ZI+uiifQnPRj2DPBU3zy1/YoydUTJXrhWy9EeX+Q41IHyVZRIhOz0ko4PdizE/80QY/NjIexceCVVrvdBl6le3bOrzb4mYvtORm2lOrz+fhFwJ/ULwJQuG4REC1igUvRw4HgPNfCbQEVLQag2T1oFcV6S1Z5PvEj8ziGZqufXazWYpZxkHEdV/3AcSfrXWFG/6qPFZu4cxy6xrPTrgteaewpbuO09AVTOb5EAx1HLrqHS96C4lVb6HNTzvsCgBOlwPUgrvwWDY/i9k4Lr3L4lBbfhv51SUX6sq10Oh2/3A+sSsPr2Tu/Z9tJRahPZZeO2kR9z8WuwBt1iyCCbnrPQG6jjokyFwahPbczQO1KlEqMWhSkrB4dzE7xZMktgJzYbeJXsvT/5ocrbfnrtb6RT/VClE92quolNanXZCNaUHo9P+jtceRydyJQ5x3njkN7G8FFC6JDqXaVRsdtenjLblfc7pKrfRfivQDf5z+TrYuAbGR404TPQsB3BJBLBq7iiwLx9oW6ysdOv3jR7SumRXaxgL6YZdLXIvnDvzz8nR/40PABqxcLFcfh9eKy6suuQum5H8db+uJhCy66B1VHT+584fIt23MHb4UFACetJgjRPdiymePJT0/H+TUpVbr6qjS+VKot/Mpze+ROO96yhUdZkhQ3mpvvqj9Oq/kAES8desPD9w9/RslTV+3a9ueqfvpZYOCbZwNui58XfmVKmK0kqYWBN2QXrisk9Dxp5k5AY8u/XiXNTP6ewNSMyquJptKyA7qt47IRrOfUfZw0rrprDFZaej2odlY7+JUnH8h6eMsOHqXG6oa7/d3UiVsBr3rHtwzfy4I2Fq3Pxy9fL2p3C3OefaHkQjVapsmehcCGv7k9sKFCz7KxdCUDEvPEaA9K1yd8eHm1H7N/bvUTOREpmvgVz5r8bSfrx0KTdyAorgSDNRWPQ5iVlk0PylG1E13tpO984ciEV9iy6+nL1uWyP3fQQu7cHVs9oJocRFeIXYvX4ktPMtGC8ClOC6+JrNLSk32l07F9VftKy4+ZbLWrJW/5kH0zKUo4Ayc7/eMif+GQLwa0vb+1MxAzLq3WlRQPUpHwegmz1Q6f6JH3EmbqRTpoJUvegY7tD/308JZ40p9/7Ku+UvJCTKk0vJpkKo2OSrUXPWcj2xsJW/GpPlE7Ki2bHpQdsNpWGh35mcORtWzhU6b43JD979/78uHyl54b7v3rbx7+FYsA4pRCDGshoNtcGwlxG1h8FK8Xx3hGTkwnvA1mBEksQHl+YCmUTcLc54/gC5cZ32O0tGKZq34WAE/HL1fiv/n9jbD/UnxYvniM4Zai+NtQm+/Kcztw0YKyrXZOS1cQm4qLFnSdFq8llx7QcXTPfbmVFgA6mUoS41BMtngQwits2bd4snNfLT3xajKqdPVXafkRrPbwWzz3g06lW7yWH/RqWZxEwzB3B2Ix8DU8LxD/wfCPX7g9bpvG76x9MUAFSqbXJVGLYpIoTzTzMywV8ir5UFB8QV0hJR0poG6Pwte2/5Qs4zf+7/nw8Jdj8v/V0Y8nL1iVVnJBJlzQeeCUai96zsZlGy8n/13jRrQgLbCzkQ2qtHR70I+i2rb8w5Ovirfolk/0VObi+RIL2b/wTcN79F4Mxa0WATjxxayc6haWLwgkE8wFgogZyESvogUtUcaET2GCp9QrfvHtfj/Hqh27tBm/FH/iVRq+4q9Cl4FXW6dbtm5f5ZV2Xcel1+Ihk1wQvXNfLGzO/bH6ASo5AIUjF16hy3q4bCSvNHwVyQTh1yRUadcVLoi949CU6qPHg1/tK93SgUdp1bORLP9W4nk+bhH8fv8VAYlUV1W4S3psXSZZtXSEurpCd0qg0oGpEkNdiVNJU7cElBhrwmSLdPy/598ZbngPuhdPZOJ7QgGvtPQEqw+nZSsoG6fBnUZHR1/5LgOnSEc2G26b7zpL8BonlZaPCmmDeGpPtYXf4sGvtrvoOV/IvGhxcEf8PPB79MsX4pJS4zZ5Vrv0Utm+psWB8RLFVmfIZJrojbU16cMnpvmwiBXNVf/4vgotZDfCzbfHnviV560RXqFsgW7vuGzQmcMlE3R957X4kgtKR7Qg/Fui3KoLAE6uDcPERQu6jniCCg6nhQvKvtJztshqEqu0/Lofr6PKpdfyg6zHrz57fuf4yLz06nIdcBIDuvfE09bf8eKvGh7W764Rzl1hIfek2k2koddLmkz6lJowmfzHn/n9/RDrHfGexNIOUyGGt3hSa/lwnmwFZec0eKWltwtyrt1W+ooBl4nnOuIJuqyF1ziotPsBr7R8Clb7Ob77kt5SnvR79fE+jDe//qHhkUis+UsQj8XWYmBy2GqBhAHdD2wtUE0lUcWu+DWGZcdbKn/xyeFfxIN+PxG61K5z7HEnNy2e9NEBr7RsgS178ebsJOv5l5w6duGS74L4umXKrbwA0EnW0AMKRya8QpeBU+Z0qkz0xnLzLZ4g3FaSqTzXxwa6xUPmpfpZKqu+3W5OJr0lOtIVZDuSbdYHvvkV1//HQpR8QQBdkyXbryRGbcOi48WTphIkUFdK6PIPUH7wQ8Pb45XIHwtSV33uRokFnnBB57mNkmCLN2dbZZWWP+eLd1zo51B4D6ouyaEdr3FYadcVLlh9qa7qYxe/58frkQ/BlszrvZOfCXI7q7UQwIlidnI4WtfYlbxC4lO6ilnpiPb4hRd3wXL36hefGN4fEz8P+c2VVmx6PAkXxJfj0NWH067ruPsRv8KWDjxK1RVdZS1+OriVvtYFwOZsa0D3IFpV5rwleLUXja2K8xz35IJupeG5vugWD1ktLX/SmZNJB1jrcpnjS/XcxnEG7iVuE7z03uFVD3718ObIbA8pGaLoydX5W04iFSFTspSsJk27Unpv6NB2b38riTgPt5WG54mw0q7vOHpOg1caHYr4ghvuYb51/IJ4Fd6DqllytwGvMVbpqi8/glUOrdLyhazHl537Fk9wTiYd4NWI0z/A7aw7Lw2v02JACr3YlNzjWDyHilX0hEvuca0Y/s+fHP5nLGA/ETrEBcfgfVBjcnIlJKDiSRCR41Ktvpx2fcerL2SSC7qO85zvuHQEJRMtCP+WLOsCYPu0a2ADhaMhXLDHc34Plw/Bqldp1/MBix6lxXMbdEQLwqNUesPdfLf87iN33YrP1Vt1W7QGbl6Jx+7Ag3rhED8tdINdSdZ1SZroc7Uf/I/EFf+/G6/4UWu1We0QlLtKw/ckKD3nuY3j6DoNXmn5E1+w8kUfBfrx78Ilr1D1ig/teCvmWjy3ES7YqkM8YMuf5HMy6QBrXS5zHD2dC37++iYWrbql5YrgWpAKVnmle3pM+KH7kdji/4X//unhv44Pqnqs4arScq/2Vtr5jkuv5c95buM49k6DV7qlA4+yVLfnd+PlFv1eFwDXn3gf3OCiBbFo4c7r6bT4bud41a10K1m1eNXO6V31oeul5991HN9X3233xTPZxE+zXspPs/78Nw6v+dyXh1fGTwzvjLP1ysnZ1eGr77w8PAh9223Dk08/E088Xxg+F2nkly1h8rM+3nuuQvKgr5RsBF0u3KEnQPGd534cl67zwCvd0xMfKBtBly3FFSeCsnNauCA6wiuUvetUvBU7LZ58u73znA9eS8tn1YFeqteyhUebOAdAPlciVl/0u142/J7ABxYGQBYHwEUlYvazXx7y/1O+96PDj3KLLLb22am6Oz7qA+ok5vhwDB5/QWapsSFaECXHN1ab7+rPabdxXPbOA680ei1etW/pVJ5oQfm4peG6AOiffg2gHsSyypwnz9KpssqvtOwF5+St5NTi1TZU315HlYnuwV59Pf2T5KstSkaC1KkEwLGih0ww0JSjg1y6gshVWjxkXpd0nVft5mjJBPG3BHe9nr7aJrmfe3iiBdEXLigfTrdw8QTd1y4fOpfSE2zx3b/XUfkuk78KW/6rTove167G3y576avufB/FSPh5k7xCnW/niycoWaXF93hu8dzOcXSdFi7o8hZPdUkm6HaOI+/pyNctDdcFwO7Tr+QBFI5VC2/xVENP1uK3ePLTq1vyXgLp8b0u+XCe45ILzsmkswv22uV2rYTj8qW4J4NqU2VOO17tem1zfrWvND6dJ1zQ5S2et0lyQbd13OWyh8c51XkVRC5c0HnglJ6s8iu9sb723ZP3YqXHdz9z7VPNVV/8FuzV2dI9JM/japff3jmWXZVXWnq9Op3vto7Lh/PAK93TEx/YspnjSSbovlY8emBdACwLA08M4JWWlxbfeXN6yFwX3Okqh6bs0uklqh6/5TMrWlCX9BzW9rnskPiSQe46jns7enzpeNITD1j51U+lsXGecMGevPIrvcte8grxo3PVgy0d54FTZL8E7+mmoxlfyHsx3ON7XUv8SwfYsnX5zcJ1Hlv1u8xx6bZ4ktV4hl951X4J7TpLcOpt6bV40pVMEP5aGj2wLgAanTLD8iQAXmmZLuGju4+e61bbVr0tnV5ilP0ueW2D7AR78h5fdseFvYHe41PfnEztqQlPfGBL5j4ddzvnCxdEz/FKL5W5nvAKq29oFZ0voHBkLbzFkx+3cT3nC3e54y1fsnHZXOzOyZbU1arP6+7hPd89fZ2jnrzFrzaVlk2Pj7wVy7KrMvfjuPSBzgd3uiWHR1mi5zoVr/TG6/rd7YF1AdDtmlmBD2zwSst4CX9f3Vof9l6P/LX4Lb255IiPXfK5+lx2o3FPBkvqromu2lR5y3+Lhx/nCxdUPU738H105aPC2h75rNBjpcZclcm2x0fek7X4LZ7qEHSd6h96Lm7nZPLf8uky4bUd4gvukktP50l0C+7S2SWXzxrL4gOrrPqstGydL1wQnSV49bXEBp2envytsNMD6wKg0zEL2T64hVeIK/Eqvi/tfty2x0fHS9VD1uItTZBL9bwNNwuviW2uHS1dTzKybfGQVb5owZa9yxzfR9fthFcof0uhxwd4peVnCR9d16u0y4QLtuoRr/pp0fB2xesuOT5qqe2r8kPROo/7+GvFsdu35LWeSsu+8kULotfDq6zSPbvKrzR+1rJHD6wLgD06a0bVk4BwQcz2xVWV2835cVm1cZn8OtxX/yhJUvUdx1Y+HLYSmMvn8DlbTyzy0eL1ZNIV3KXXk8N3H0vxnp7qOQr0OBFeIX7Fm8NVv+vu0kd3Tl8+Batu9S+9fWJyH135P0k4F8O13paux4n0W7yeTLqC6Dle6Sqbk7uu8AqrPfRa9uiBdQGwR2ctVPXEU5NWlbnLORl6Lt+HrnYtW3heWjaSz8mkc7MTZSvZqW2CSiaiHc7J0Ktypx3fV1dtcB9LcNXT05XfQ0HFQIX4F28prja53Zyty+Zs5Ndh1Xdfrif8Zsex2rEUzsW9x4b8tXiSAatctKB05+gqq35dvgvvydWOFe7ZA+sCYM8O20Pdk41wQdz08F0yNcHtq02Ldl61dRn4XGnZVv0lOtXmkLQnip7fJTrYtvTEE/Q6Km8XLVvXc7y2wWXCBauufJ8U9PMMXmnV63x4Tju+RL/aO73El+oQbNkskUlH8KQWC3OTuuoW9DgQT3BOhk5LLp5gz9cuefU/p+8y8EqrDSs8QA+sC4ADdOICF55kwJ3G3GnHq6xFL+VVv9WuJa860EtLz99S+6PqecJY6mPORjJB97mE19LBR+XP0S4TLtjy5W28Ebifa+GC1N/Dd8nUdrevNrvoatvSVz0t2LJv6e3rt+fD+X6Ond/Dl+q39JznOHVVuvJa8qpTabdp4S0ePtZywB5YFwAH7MwFrmoygW7x5GpOhk6Vy64la+m2eEtt5+py2WnAPZm02lPllcamxWvxe3q7dKud08IFW77gnYbiMQXuNO1z2vFdMuSUatPi7dJpydN5x79kS+Cc7yX20vFzLd4+cM7eZY7L/xJeSwd75zu+ROb6jqtdKzxwD6wLgAN36B7uaqKAbvHc5b7yOVtk1Z/0e/yefJe+7G4WrMmk0rVdLXmLh12P35JV3TlaMkG1sdLinzZYYwK6xVO752ToVHnPrqe71L6np/p6/l1+0viSGKg6lVYbW/ylPHxU3Tm6JWvx1LYVnnAPrAuAE+7ghe5r0hEtKDfHpeVHsPrbxV8qlx6wV4frHAKviWTO55zuIWXV11J6l97csZ1GWY0B6BbP276vfM4WWfW3S1/ynl2PL7uTgjU2VE+Pv0vesmvxen6q7hJ6l47qWuEJ98C6ADjhDj6C+5pYRAvKZaXhV16lWzry57Blt4/8qLputw9eE8ou2zn9OZn8tnSOypOdIHU4rjrPC6yxJVqQ43S8Rbd41QYdL3PyORk+dsm9noovtT3OOd9lOyefk3EsVV7pXTrSF1T/VFr8Fd7AHsj/p34D61ur2t0DvYEhfi+hwJfO7lqu13C/x/FTPePLfVf5Ieh927uPfku3xeM4Kr/SrlNllT5Ev5xGH36cHrPwTyJO5NPrvZH94vWqLarfZeIdBe7ys0uuOlt6S3hVR7TgnH/JVngTemDdAbgJnX7MKmsSES3o7pfysGnpytecTDq74CF8tOqoSaalM8fbZd+Tt/hzvCqr9FwbbxVZjRHRguqHSsNfypvzIVmFLd9V52bS+8ZST7/FX8KTjqD6otLir/CU9MC6A3BKTsQezegNKvFvZrKaq1vt2+NQj6W6tL5dej15iy+eoB9Ai+fyFb9+B0V9or6biy/pHgLWelT/IXzfCB+72tuTt/hzvCqr9I041rWOY/TAugA4RuedEtO5QSdZTWj7Nh0/S3ws1du3/qPo69h32c7pLZH1dHr8Xe1Z5dd6oNeH4i+JyWveTg476XboeJcewZz+vjLXd5y2VHpp+1a9U9ID6wLglJyIAzZj16B0+UknrgMe1l6u/Bh3Gc7pVlml8d3i7apzlR+tB+b62mXHjWt87eNjX/19jt6Pa4ndLv05ucscV70tnmQrPIM9sD4DcAZP2gGbPJfkqqzSc83YR3fOz1Fl+ySqqltpb8OczPVW/Ob2QC/+nO94q7W75IeyafkR7yjxtsumyit9nLplu8Iz0gPrAuCMnKib0MwlCXBOZ052kodznITWsz3J9q6+b1wPzMVklVV6aSuPalf9HzUWq12lvZ45meut+DntgXUBcE5P7A08rEMlvJNu8prsTrqHz7b/pXF8aL3aa0vj9NB6tR0rfQv0wLoAuAVO8nqIaw+sPXDQHli6CDhopeZs6eRvJiu69sDaA2sPrD2w9sDaA2sPrD2w9sDaA2sPrD2w9sDaA2sPrD2w9sDaA2sPrD2w9sDaA2sPrD2w9sDaA2sPrD2w9sDaA2sPrD2w9sDaA2sPrD2w9sDaA2sPrD2w9sDaA2sPrD2w9sDaA2sPrD2w9sDaA2sPrD2w9sDaA2sPrD2w9sDaA2sPrD2w9sDaA2sPrD1wmnvg/wP8fl1UMbXZoAAAAABJRU5ErkJggg==;" vertex="1" parent="1">
          <mxGeometry x="413" y="528.72" width="34" height="34" as="geometry" />
        </mxCell>
        <mxCell id="9VXA_7-maIpLuAQ-j1Ec-48" value="Peering" style="text;html=1;align=center;verticalAlign=middle;whiteSpace=wrap;rounded=0;fontFamily=Verdana;fontSize=13;" vertex="1" parent="1">
          <mxGeometry x="270" y="666" width="60" height="30" as="geometry" />
        </mxCell>
        <mxCell id="9VXA_7-maIpLuAQ-j1Ec-49" value="Peering" style="text;html=1;align=center;verticalAlign=middle;whiteSpace=wrap;rounded=0;fontFamily=Verdana;fontSize=13;" vertex="1" parent="1">
          <mxGeometry x="510" y="666" width="60" height="30" as="geometry" />
        </mxCell>
      </root>
    </mxGraphModel>
  </diagram>
</mxfile>
